<?xml version="1.0" encoding="UTF-8" standalone="no"?>
<svg
   width="1440"
   height="1925"
   viewBox="0 0 1440 1925"
   fill="none"
   version="1.1"
   id="svg170"
   sodipodi:docname="omnichart-style.svg"
   inkscape:version="1.1.2 (0a00cf5339, 2022-02-04)"
   xmlns:inkscape="http://www.inkscape.org/namespaces/inkscape"
   xmlns:sodipodi="http://sodipodi.sourceforge.net/DTD/sodipodi-0.dtd"
   xmlns="http://www.w3.org/2000/svg"
   xmlns:svg="http://www.w3.org/2000/svg">
  <defs
     id="defs174" />
  <sodipodi:namedview
     id="namedview172"
     pagecolor="#ffffff"
     bordercolor="#666666"
     borderopacity="1.0"
     inkscape:pageshadow="2"
     inkscape:pageopacity="0.0"
     inkscape:pagecheckerboard="0"
     showgrid="false"
     inkscape:zoom="0.74701299"
     inkscape:cx="435.06606"
     inkscape:cy="776.42559"
     inkscape:window-width="2516"
     inkscape:window-height="1330"
     inkscape:window-x="26"
     inkscape:window-y="23"
     inkscape:window-maximized="0"
     inkscape:current-layer="layer1" />
  <g
     inkscape:groupmode="layer"
     id="layer1"
     inkscape:label="bg"
     style="display:inline"
     sodipodi:insensitive="true">
    <rect
       width="1440"
       height="1925"
       fill="#fafbfe"
       id="rect2"
       x="0"
       y="0"
       style="display:inline" />
    <rect
       x="77.5"
       y="863.5"
       width="319"
       height="347"
       stroke="#e8e8f2"
       id="rect44" />
    <path
       d="m 383,863 h 320 v 348 H 383"
       stroke="#e8e8f2"
       id="path46" />
    <path
       d="m 703,863 h 334 v 348 H 703"
       stroke="#e8e8f2"
       id="path48" />
    <path
       d="m 1037,863 h 320 v 348 h -320"
       stroke="#e8e8f2"
       id="path50" />
    <rect
       x="80.5"
       y="1343.5"
       width="255"
       height="239"
       stroke="#e8e8f2"
       id="rect72" />
    <path
       d="m 336,1343 h 256 v 240 H 336"
       stroke="#e8e8f2"
       id="path74" />
    <path
       d="m 592.5,1343.5 h 255 v 239 h -255 z"
       stroke="#e8e8f2"
       id="path76" />
    <path
       d="m 848.5,1343.5 h 255 v 239 h -255 z"
       stroke="#e8e8f2"
       id="path78" />
    <path
       d="m 1104,1343 h 256 v 240 h -256"
       stroke="#e8e8f2"
       id="path80" />
    <rect
       x="80.5"
       y="438.5"
       width="255"
       height="282"
       stroke="#e8e8f2"
       id="rect82" />
    <path
       d="M 336,438 H 592 V 721 H 336"
       stroke="#e8e8f2"
       id="path84" />
    <path
       d="m 592.5,438.5 h 255 v 282 h -255 z"
       stroke="#e8e8f2"
       id="path86" />
    <path
       d="m 848.5,438.5 h 255 v 282 h -255 z"
       stroke="#e8e8f2"
       id="path88" />
    <path
       d="m 1104,438 h 256 v 283 h -256"
       stroke="#e8e8f2"
       id="path90" />
    <path
       d="m 82.072,837 v -19.6 h 6.02 c 3.4533,0 5.992,0.877 7.616,2.632 1.6427,1.755 2.464,4.163 2.464,7.224 0,3.005 -0.8213,5.385 -2.464,7.14 -1.624,1.736 -4.1627,2.604 -7.616,2.604 z m 2.352,-1.96 h 3.612 c 1.904,0 3.416,-0.308 4.536,-0.924 1.1387,-0.635 1.9507,-1.531 2.436,-2.688 0.4853,-1.176 0.728,-2.567 0.728,-4.172 0,-1.643 -0.2427,-3.052 -0.728,-4.228 -0.4853,-1.176 -1.2973,-2.081 -2.436,-2.716 -1.12,-0.635 -2.632,-0.952 -4.536,-0.952 h -3.612 z m 23.892,2.296 c -1.307,0 -2.483,-0.299 -3.528,-0.896 -1.045,-0.597 -1.876,-1.437 -2.492,-2.52 -0.597,-1.101 -0.896,-2.389 -0.896,-3.864 0,-1.475 0.308,-2.753 0.924,-3.836 0.616,-1.101 1.447,-1.951 2.492,-2.548 1.064,-0.597 2.249,-0.896 3.556,-0.896 1.307,0 2.483,0.299 3.528,0.896 1.045,0.597 1.867,1.447 2.464,2.548 0.616,1.083 0.924,2.361 0.924,3.836 0,1.475 -0.308,2.763 -0.924,3.864 -0.616,1.083 -1.456,1.923 -2.52,2.52 -1.045,0.597 -2.221,0.896 -3.528,0.896 z m 0,-2.016 c 0.803,0 1.549,-0.196 2.24,-0.588 0.691,-0.392 1.251,-0.98 1.68,-1.764 0.429,-0.784 0.644,-1.755 0.644,-2.912 0,-1.157 -0.215,-2.128 -0.644,-2.912 -0.411,-0.784 -0.961,-1.372 -1.652,-1.764 -0.691,-0.392 -1.428,-0.588 -2.212,-0.588 -0.803,0 -1.549,0.196 -2.24,0.588 -0.691,0.392 -1.251,0.98 -1.68,1.764 -0.429,0.784 -0.644,1.755 -0.644,2.912 0,1.157 0.215,2.128 0.644,2.912 0.429,0.784 0.98,1.372 1.652,1.764 0.691,0.392 1.428,0.588 2.212,0.588 z M 124.06,837 c -1.27,0 -2.268,-0.308 -2.996,-0.924 -0.728,-0.616 -1.092,-1.727 -1.092,-3.332 V 825.1 h -2.408 v -1.988 h 2.408 l 0.308,-3.332 h 2.044 v 3.332 h 4.088 v 1.988 h -4.088 v 7.644 c 0,0.877 0.177,1.475 0.532,1.792 0.354,0.299 0.98,0.448 1.876,0.448 h 1.456 V 837 Z m 12.778,0 7.224,-19.6 h 2.492 l 7.196,19.6 h -2.492 l -1.792,-5.04 h -8.344 l -1.82,5.04 z m 4.984,-6.944 h 6.944 l -3.472,-9.688 z M 157.084,837 v -13.888 h 2.128 l 0.196,2.66 c 0.429,-0.915 1.082,-1.643 1.96,-2.184 0.877,-0.541 1.96,-0.812 3.248,-0.812 v 2.464 h -0.644 c -0.822,0 -1.578,0.149 -2.268,0.448 -0.691,0.28 -1.242,0.765 -1.652,1.456 -0.411,0.691 -0.616,1.643 -0.616,2.856 v 7 z m 10.731,0 v -13.888 h 2.128 l 0.196,2.66 c 0.43,-0.915 1.083,-1.643 1.96,-2.184 0.878,-0.541 1.96,-0.812 3.248,-0.812 v 2.464 h -0.644 c -0.821,0 -1.577,0.149 -2.268,0.448 -0.69,0.28 -1.241,0.765 -1.652,1.456 -0.41,0.691 -0.616,1.643 -0.616,2.856 v 7 z m 16.541,0.336 c -1.307,0 -2.483,-0.299 -3.528,-0.896 -1.046,-0.597 -1.876,-1.437 -2.492,-2.52 -0.598,-1.101 -0.896,-2.389 -0.896,-3.864 0,-1.475 0.308,-2.753 0.924,-3.836 0.616,-1.101 1.446,-1.951 2.492,-2.548 1.064,-0.597 2.249,-0.896 3.556,-0.896 1.306,0 2.482,0.299 3.528,0.896 1.045,0.597 1.866,1.447 2.464,2.548 0.616,1.083 0.924,2.361 0.924,3.836 0,1.475 -0.308,2.763 -0.924,3.864 -0.616,1.083 -1.456,1.923 -2.52,2.52 -1.046,0.597 -2.222,0.896 -3.528,0.896 z m 0,-2.016 c 0.802,0 1.549,-0.196 2.24,-0.588 0.69,-0.392 1.25,-0.98 1.68,-1.764 0.429,-0.784 0.644,-1.755 0.644,-2.912 0,-1.157 -0.215,-2.128 -0.644,-2.912 -0.411,-0.784 -0.962,-1.372 -1.652,-1.764 -0.691,-0.392 -1.428,-0.588 -2.212,-0.588 -0.803,0 -1.55,0.196 -2.24,0.588 -0.691,0.392 -1.251,0.98 -1.68,1.764 -0.43,0.784 -0.644,1.755 -0.644,2.912 0,1.157 0.214,2.128 0.644,2.912 0.429,0.784 0.98,1.372 1.652,1.764 0.69,0.392 1.428,0.588 2.212,0.588 z m 13.083,1.68 -4.06,-13.888 h 2.352 l 2.94,10.892 3.248,-10.892 h 2.66 l 3.276,10.892 2.912,-10.892 h 2.38 L 209.087,837 h -2.408 L 203.263,825.548 199.847,837 Z"
       fill="#212065"
       id="path122" />
    <path
       d="m 87.668,412.336 c -1.9227,0 -3.584,-0.42 -4.984,-1.26 -1.3813,-0.859 -2.4547,-2.044 -3.22,-3.556 -0.7653,-1.531 -1.148,-3.304 -1.148,-5.32 0,-1.997 0.3827,-3.752 1.148,-5.264 0.7653,-1.531 1.8387,-2.725 3.22,-3.584 1.4,-0.859 3.0613,-1.288 4.984,-1.288 2.24,0 4.06,0.541 5.46,1.624 1.4187,1.064 2.324,2.557 2.716,4.48 H 93.24 c -0.2987,-1.213 -0.9147,-2.184 -1.848,-2.912 -0.9147,-0.747 -2.156,-1.12 -3.724,-1.12 -1.4,0 -2.6227,0.327 -3.668,0.98 -1.0453,0.635 -1.8573,1.559 -2.436,2.772 -0.56,1.195 -0.84,2.632 -0.84,4.312 0,1.68 0.28,3.127 0.84,4.34 0.5787,1.195 1.3907,2.119 2.436,2.772 1.0453,0.635 2.268,0.952 3.668,0.952 1.568,0 2.8093,-0.355 3.724,-1.064 0.9333,-0.728 1.5493,-1.689 1.848,-2.884 h 2.604 c -0.392,1.885 -1.2973,3.36 -2.716,4.424 -1.4,1.064 -3.22,1.596 -5.46,1.596 z m 18.304,0 c -1.306,0 -2.482,-0.299 -3.528,-0.896 -1.045,-0.597 -1.876,-1.437 -2.4917,-2.52 -0.5973,-1.101 -0.896,-2.389 -0.896,-3.864 0,-1.475 0.308,-2.753 0.924,-3.836 0.6157,-1.101 1.4467,-1.951 2.4917,-2.548 1.064,-0.597 2.25,-0.896 3.556,-0.896 1.307,0 2.483,0.299 3.528,0.896 1.046,0.597 1.867,1.447 2.464,2.548 0.616,1.083 0.924,2.361 0.924,3.836 0,1.475 -0.308,2.763 -0.924,3.864 -0.616,1.083 -1.456,1.923 -2.52,2.52 -1.045,0.597 -2.221,0.896 -3.528,0.896 z m 0,-2.016 c 0.803,0 1.55,-0.196 2.24,-0.588 0.691,-0.392 1.251,-0.98 1.68,-1.764 0.43,-0.784 0.644,-1.755 0.644,-2.912 0,-1.157 -0.214,-2.128 -0.644,-2.912 -0.41,-0.784 -0.961,-1.372 -1.652,-1.764 -0.69,-0.392 -1.428,-0.588 -2.212,-0.588 -0.802,0 -1.549,0.196 -2.24,0.588 -0.69,0.392 -1.25,0.98 -1.68,1.764 -0.429,0.784 -0.644,1.755 -0.644,2.912 0,1.157 0.215,2.128 0.644,2.912 0.43,0.784 0.98,1.372 1.652,1.764 0.691,0.392 1.428,0.588 2.212,0.588 z m 10.803,1.68 v -20.16 h 2.352 V 412 Z m 13.095,0.336 c -1.307,0 -2.483,-0.299 -3.528,-0.896 -1.046,-0.597 -1.876,-1.437 -2.492,-2.52 -0.598,-1.101 -0.896,-2.389 -0.896,-3.864 0,-1.475 0.308,-2.753 0.924,-3.836 0.616,-1.101 1.446,-1.951 2.492,-2.548 1.064,-0.597 2.249,-0.896 3.556,-0.896 1.306,0 2.482,0.299 3.528,0.896 1.045,0.597 1.866,1.447 2.464,2.548 0.616,1.083 0.924,2.361 0.924,3.836 0,1.475 -0.308,2.763 -0.924,3.864 -0.616,1.083 -1.456,1.923 -2.52,2.52 -1.046,0.597 -2.222,0.896 -3.528,0.896 z m 0,-2.016 c 0.802,0 1.549,-0.196 2.24,-0.588 0.69,-0.392 1.25,-0.98 1.68,-1.764 0.429,-0.784 0.644,-1.755 0.644,-2.912 0,-1.157 -0.215,-2.128 -0.644,-2.912 -0.411,-0.784 -0.962,-1.372 -1.652,-1.764 -0.691,-0.392 -1.428,-0.588 -2.212,-0.588 -0.803,0 -1.55,0.196 -2.24,0.588 -0.691,0.392 -1.251,0.98 -1.68,1.764 -0.43,0.784 -0.644,1.755 -0.644,2.912 0,1.157 0.214,2.128 0.644,2.912 0.429,0.784 0.98,1.372 1.652,1.764 0.69,0.392 1.428,0.588 2.212,0.588 z m 10.802,1.68 v -13.888 h 2.128 l 0.196,2.66 c 0.429,-0.915 1.083,-1.643 1.96,-2.184 0.877,-0.541 1.96,-0.812 3.248,-0.812 v 2.464 h -0.644 c -0.821,0 -1.577,0.149 -2.268,0.448 -0.691,0.28 -1.241,0.765 -1.652,1.456 -0.411,0.691 -0.616,1.643 -0.616,2.856 v 7 z"
       fill="#212065"
       id="path124" />
    <path
       d="m 82.072,1317 v -19.6 h 2.352 v 17.72 h 9.128 v 1.88 z m 16.5589,-16.97 c -0.4666,0 -0.8586,-0.15 -1.176,-0.45 -0.2986,-0.31 -0.448,-0.71 -0.448,-1.17 0,-0.45 0.1494,-0.82 0.448,-1.12 0.3174,-0.3 0.7094,-0.45 1.176,-0.45 0.448,0 0.8307,0.15 1.148,0.45 0.3171,0.3 0.4761,0.67 0.4761,1.12 0,0.46 -0.159,0.86 -0.4761,1.17 -0.3173,0.3 -0.7,0.45 -1.148,0.45 z m -1.176,16.97 v -13.89 h 2.352 V 1317 Z m 7.0071,0 v -13.89 h 2.128 l 0.14,2.49 c 0.448,-0.87 1.092,-1.56 1.932,-2.07 0.84,-0.5 1.792,-0.75 2.856,-0.75 1.643,0 2.949,0.5 3.92,1.51 0.989,0.99 1.484,2.52 1.484,4.59 v 8.12 h -2.352 v -7.87 c 0,-2.89 -1.195,-4.34 -3.584,-4.34 -1.195,0 -2.193,0.44 -2.996,1.32 -0.784,0.86 -1.176,2.09 -1.176,3.69 v 7.2 z m 22.828,0.34 c -1.326,0 -2.502,-0.3 -3.528,-0.9 -1.027,-0.62 -1.839,-1.47 -2.436,-2.55 -0.579,-1.08 -0.868,-2.36 -0.868,-3.83 0,-1.46 0.289,-2.73 0.868,-3.81 0.578,-1.1 1.381,-1.95 2.408,-2.55 1.045,-0.62 2.249,-0.92 3.612,-0.92 1.344,0 2.501,0.3 3.472,0.92 0.989,0.6 1.745,1.39 2.268,2.38 0.522,0.99 0.784,2.05 0.784,3.19 0,0.21 -0.01,0.41 -0.028,0.62 0,0.2 0,0.44 0,0.7 h -11.06 c 0.056,1.06 0.298,1.95 0.728,2.66 0.448,0.69 0.998,1.21 1.652,1.57 0.672,0.35 1.381,0.53 2.128,0.53 0.97,0 1.782,-0.23 2.436,-0.67 0.653,-0.45 1.129,-1.06 1.428,-1.82 h 2.324 c -0.374,1.28 -1.092,2.36 -2.156,3.22 -1.046,0.84 -2.39,1.26 -4.032,1.26 z m 0,-12.58 c -1.12,0 -2.119,0.35 -2.996,1.04 -0.859,0.67 -1.354,1.66 -1.484,2.97 h 8.736 c -0.056,-1.25 -0.486,-2.23 -1.288,-2.94 -0.803,-0.71 -1.792,-1.07 -2.968,-1.07 z"
       fill="#212065"
       id="path126" />
    <path
       d="m 89.926,333.504 c -2.156,0 -4.06,-0.364 -5.712,-1.092 -1.652,-0.756 -2.954,-1.82 -3.906,-3.192 -0.952,-1.4 -1.442,-3.094 -1.47,-5.082 h 5.67 c 0.056,1.372 0.546,2.534 1.47,3.486 0.952,0.924 2.254,1.386 3.906,1.386 1.428,0 2.562,-0.336 3.402,-1.008 0.84,-0.7 1.26,-1.624 1.26,-2.772 0,-1.204 -0.378,-2.142 -1.134,-2.814 -0.728,-0.672 -1.708,-1.218 -2.94,-1.638 -1.232,-0.42 -2.548,-0.868 -3.948,-1.344 -2.268,-0.784 -4.004,-1.792 -5.208,-3.024 -1.176,-1.232 -1.764,-2.87 -1.764,-4.914 -0.028,-1.736 0.378,-3.22 1.218,-4.452 0.868,-1.26 2.044,-2.226 3.528,-2.898 1.484,-0.7 3.192,-1.05 5.124,-1.05 1.96,0 3.682,0.35 5.166,1.05 1.512,0.7 2.688,1.68 3.528,2.94 0.868,1.26 1.33,2.758 1.386,4.494 h -5.754 c -0.028,-1.036 -0.434,-1.946 -1.218,-2.73 -0.756,-0.812 -1.82,-1.218 -3.192,-1.218 -1.176,-0.028 -2.17,0.266 -2.982,0.882 -0.784,0.588 -1.176,1.456 -1.176,2.604 0,0.98 0.308,1.764 0.924,2.352 0.616,0.56 1.456,1.036 2.52,1.428 1.064,0.392 2.282,0.812 3.654,1.26 1.456,0.504 2.786,1.092 3.99,1.764 1.204,0.672 2.17,1.568 2.898,2.688 0.728,1.092 1.092,2.506 1.092,4.242 0,1.54 -0.392,2.968 -1.176,4.284 -0.784,1.316 -1.946,2.38 -3.486,3.192 -1.54,0.784 -3.43,1.176 -5.67,1.176 z M 114.525,333 c -2.184,0 -3.934,-0.532 -5.25,-1.596 -1.316,-1.064 -1.974,-2.954 -1.974,-5.67 v -9.072 h -3.57 v -4.494 h 3.57 l 0.63,-5.586 h 4.746 v 5.586 h 5.628 v 4.494 h -5.628 v 9.114 c 0,1.008 0.21,1.708 0.63,2.1 0.448,0.364 1.204,0.546 2.268,0.546 h 2.604 V 333 Z m 11.419,9.24 4.83,-10.626 h -1.26 l -8.106,-19.446 h 5.838 l 5.838,14.658 6.09,-14.658 h 5.712 l -13.23,30.072 z M 148.821,333 v -30.24 h 5.376 V 333 Z m 21.411,0.504 c -2.1,0 -3.962,-0.448 -5.586,-1.344 -1.624,-0.896 -2.898,-2.156 -3.822,-3.78 -0.924,-1.624 -1.386,-3.5 -1.386,-5.628 0,-2.156 0.448,-4.074 1.344,-5.754 0.924,-1.68 2.184,-2.982 3.78,-3.906 1.624,-0.952 3.528,-1.428 5.712,-1.428 2.044,0 3.85,0.448 5.418,1.344 1.568,0.896 2.786,2.128 3.654,3.696 0.896,1.54 1.344,3.262 1.344,5.166 0,0.308 -0.014,0.63 -0.042,0.966 0,0.336 -0.014,0.686 -0.042,1.05 h -15.834 c 0.112,1.624 0.672,2.898 1.68,3.822 1.036,0.924 2.282,1.386 3.738,1.386 1.092,0 2.002,-0.238 2.73,-0.714 0.756,-0.504 1.316,-1.148 1.68,-1.932 h 5.46 c -0.392,1.316 -1.05,2.52 -1.974,3.612 -0.896,1.064 -2.016,1.904 -3.36,2.52 -1.316,0.616 -2.814,0.924 -4.494,0.924 z m 0.042,-17.472 c -1.316,0 -2.478,0.378 -3.486,1.134 -1.008,0.728 -1.652,1.848 -1.932,3.36 h 10.374 c -0.084,-1.372 -0.588,-2.464 -1.512,-3.276 -0.924,-0.812 -2.072,-1.218 -3.444,-1.218 z m 23.968,17.472 c -1.848,0 -3.472,-0.294 -4.872,-0.882 -1.4,-0.616 -2.52,-1.456 -3.36,-2.52 -0.84,-1.064 -1.344,-2.296 -1.512,-3.696 h 5.418 c 0.168,0.812 0.616,1.512 1.344,2.1 0.756,0.56 1.722,0.84 2.898,0.84 1.176,0 2.03,-0.238 2.562,-0.714 0.56,-0.476 0.84,-1.022 0.84,-1.638 0,-0.896 -0.392,-1.498 -1.176,-1.806 -0.784,-0.336 -1.876,-0.658 -3.276,-0.966 -0.896,-0.196 -1.806,-0.434 -2.73,-0.714 -0.924,-0.28 -1.778,-0.63 -2.562,-1.05 -0.756,-0.448 -1.372,-1.008 -1.848,-1.68 -0.476,-0.7 -0.714,-1.554 -0.714,-2.562 0,-1.848 0.728,-3.402 2.184,-4.662 1.484,-1.26 3.556,-1.89 6.216,-1.89 2.464,0 4.424,0.574 5.88,1.722 1.484,1.148 2.366,2.73 2.646,4.746 h -5.082 c -0.308,-1.54 -1.47,-2.31 -3.486,-2.31 -1.008,0 -1.792,0.196 -2.352,0.588 -0.532,0.392 -0.798,0.882 -0.798,1.47 0,0.616 0.406,1.106 1.218,1.47 0.812,0.364 1.89,0.7 3.234,1.008 1.456,0.336 2.786,0.714 3.99,1.134 1.232,0.392 2.212,0.994 2.94,1.806 0.728,0.784 1.092,1.918 1.092,3.402 0.028,1.288 -0.308,2.45 -1.008,3.486 -0.7,1.036 -1.708,1.848 -3.024,2.436 -1.316,0.588 -2.87,0.882 -4.662,0.882 z"
       fill="#212065"
       id="path128" />
    <rect
       x="0.5"
       y="1765.5"
       width="1439"
       height="159"
       fill="#ecf0f7"
       stroke="#e8e8f2"
       id="rect130" />
    <path
       fill-rule="evenodd"
       clip-rule="evenodd"
       d="m 164.924,1829.78 c 0,-1.53 1.244,-2.78 2.737,-2.78 1.555,0 2.798,1.25 2.798,2.78 0,1.53 -1.243,2.78 -2.798,2.78 -1.493,0 -2.737,-1.25 -2.737,-2.78 z m -41.387,20.29 h -4.726 v -15.54 h 4.508 v 1.79 c 0.778,-1.38 2.768,-2.26 4.447,-2.26 2.208,0 3.793,0.91 4.571,2.44 1.213,-1.75 2.705,-2.44 4.788,-2.44 2.923,0 5.722,1.72 5.722,5.94 v 10.07 h -4.571 v -9 c 0,-1.47 -0.777,-2.63 -2.456,-2.63 -1.68,0 -2.581,1.28 -2.581,2.66 v 8.97 h -4.665 v -9 c 0,-1.47 -0.777,-2.63 -2.487,-2.63 -1.648,0 -2.55,1.28 -2.55,2.69 z m 28.017,-8.91 v 8.91 h -4.727 v -15.54 h 4.571 v 1.79 c 0.84,-1.47 2.736,-2.19 4.322,-2.19 3.887,0 5.628,2.78 5.628,6.19 v 9.75 h -4.726 v -8.94 c 0,-1.53 -0.808,-2.69 -2.519,-2.69 -1.554,0 -2.549,1.16 -2.549,2.72 z m 13.775,8.91 h 4.726 v -15.54 h -4.726 z m 12.438,-7.75 c 0,-2.5 1.585,-3.88 3.544,-3.88 1.835,0 2.768,1.13 3.11,2.31 l 4.229,-1.28 c -0.684,-2.78 -3.172,-5.41 -7.432,-5.41 -4.54,0 -8.147,3.41 -8.147,8.26 0,4.81 3.701,8.22 8.303,8.22 4.135,0 6.685,-2.69 7.369,-5.41 l -4.167,-1.28 c -0.342,1.16 -1.368,2.31 -3.202,2.31 -1.959,0 -3.607,-1.37 -3.607,-3.84 z m 23.694,-7.79 v 4.69 c -0.529,-0.12 -1.026,-0.15 -1.493,-0.15 -1.896,0 -3.607,1.12 -3.607,4.22 v 6.78 h -4.726 v -15.54 h 4.571 v 2.1 c 0.808,-1.75 2.767,-2.25 4.011,-2.25 0.467,0 0.933,0.06 1.244,0.15 z m 12.469,5.91 h -6.188 c 0.094,-1.15 1.089,-2.62 3.079,-2.62 2.238,0 3.047,1.43 3.109,2.62 z m 0.342,4.03 3.949,1.13 c -0.746,2.69 -3.202,4.94 -7.12,4.94 -4.26,0 -8.054,-3.06 -8.054,-8.29 0,-5 3.7,-8.19 7.712,-8.19 4.788,0 7.742,2.97 7.742,7.98 0,0.65 -0.062,1.37 -0.093,1.47 h -10.759 c 0.093,1.75 1.679,3 3.514,3 1.71,0 2.674,-0.82 3.109,-2.04 z m 10.915,-3.37 c -2.55,0.37 -4.571,1.94 -4.571,4.69 0,2.47 1.959,4.72 5.348,4.72 2.052,0 3.545,-0.88 4.353,-2.19 0,1.06 0.125,1.63 0.156,1.75 h 4.26 c -0.031,-0.16 -0.187,-1.19 -0.187,-2.41 v -7.59 c 0,-3.19 -1.834,-6.01 -6.841,-6.01 -4.54,0 -6.592,2.94 -6.778,5.16 l 4.104,0.85 c 0.093,-1.16 0.995,-2.29 2.643,-2.29 1.493,0 2.27,0.79 2.27,1.69 0,0.53 -0.28,0.94 -1.119,1.07 z m 1.927,5.97 c 1.4,0 2.83,-0.69 2.83,-3.1 v -0.68 l -2.923,0.47 c -0.995,0.15 -1.741,0.62 -1.741,1.71 0,0.82 0.528,1.6 1.834,1.6 z m 17.071,-12.54 V 1830 h -4.229 v 2 c 0,1.44 -0.777,2.53 -2.394,2.53 h -0.777 v 4.16 h 2.736 v 6.66 c 0,3.09 1.959,5 5.162,5 1.492,0 2.27,-0.34 2.456,-0.44 v -3.94 c -0.279,0.07 -0.746,0.16 -1.243,0.16 -1.027,0 -1.711,-0.34 -1.711,-1.62 v -5.82 h 3.017 v -4.16 z m 10.946,15.54 h -4.726 v -15.54 h 4.726 z M 252.737,1827 c -1.493,0 -2.737,1.25 -2.737,2.78 0,1.53 1.244,2.78 2.737,2.78 1.554,0 2.798,-1.25 2.798,-2.78 0,-1.53 -1.244,-2.78 -2.798,-2.78 z m 21.735,7.53 -5.877,15.54 h -4.757 l -6.344,-15.54 h 5.131 l 3.576,9.66 3.296,-9.66 z m 12.966,7.76 c 0,2.62 -1.679,3.87 -3.482,3.87 -1.773,0 -3.483,-1.28 -3.483,-3.87 0,-2.63 1.71,-3.85 3.483,-3.85 1.803,0 3.482,1.22 3.482,3.85 z m -3.482,-8.23 c 4.633,0 8.209,3.41 8.209,8.23 0,4.81 -3.576,8.25 -8.209,8.25 -4.602,0 -8.209,-3.44 -8.209,-8.25 0,-4.82 3.607,-8.23 8.209,-8.23 z m 21.083,5.16 v -4.69 c -0.311,-0.09 -0.778,-0.15 -1.244,-0.15 -1.244,0 -3.203,0.5 -4.012,2.25 v -2.1 h -4.57 v 15.54 h 4.726 v -6.78 c 0,-3.1 1.71,-4.22 3.607,-4.22 0.466,0 0.964,0.03 1.493,0.15 z m 1.772,6.57 c 0,-2.75 2.021,-4.32 4.571,-4.69 l 3.638,-0.56 c 0.84,-0.13 1.12,-0.54 1.12,-1.07 0,-0.9 -0.778,-1.69 -2.27,-1.69 -1.648,0 -2.55,1.13 -2.643,2.29 l -4.105,-0.85 c 0.187,-2.22 2.239,-5.16 6.779,-5.16 5.006,0 6.841,2.82 6.841,6.01 v 7.59 c 0,1.22 0.155,2.25 0.186,2.41 h -4.26 c -0.031,-0.12 -0.155,-0.69 -0.155,-1.75 -0.809,1.31 -2.301,2.19 -4.354,2.19 -3.389,0 -5.348,-2.25 -5.348,-4.72 z m 9.328,-1.82 c 0,2.41 -1.43,3.1 -2.829,3.1 -1.306,0 -1.835,-0.78 -1.835,-1.6 0,-1.09 0.746,-1.56 1.741,-1.71 l 2.923,-0.47 z"
       fill="#5452f6"
       id="path132" />
    <path
       d="m 379.175,1851.29 c -1.152,0 -2.2,-0.23 -3.144,-0.67 -0.928,-0.47 -1.672,-1.18 -2.232,-2.14 -0.56,-0.96 -0.84,-2.18 -0.84,-3.67 v -10.61 h 2.016 v 10.63 c 0,1.63 0.392,2.82 1.176,3.55 0.784,0.74 1.808,1.11 3.072,1.11 1.264,0 2.28,-0.37 3.048,-1.11 0.768,-0.73 1.152,-1.92 1.152,-3.55 v -10.63 h 2.016 v 10.61 c 0,1.49 -0.28,2.71 -0.84,3.67 -0.56,0.96 -1.312,1.67 -2.256,2.14 -0.944,0.44 -2,0.67 -3.168,0.67 z m 14.598,0 c -1.424,0 -2.608,-0.36 -3.552,-1.08 -0.944,-0.72 -1.496,-1.7 -1.656,-2.93 h 2.064 c 0.128,0.62 0.456,1.17 0.984,1.63 0.544,0.45 1.272,0.67 2.184,0.67 0.848,0 1.472,-0.17 1.872,-0.52 0.4,-0.37 0.6,-0.8 0.6,-1.3 0,-0.72 -0.264,-1.2 -0.792,-1.44 -0.512,-0.24 -1.24,-0.46 -2.184,-0.65 -0.64,-0.13 -1.28,-0.31 -1.92,-0.55 -0.64,-0.24 -1.176,-0.58 -1.608,-1.01 -0.432,-0.45 -0.648,-1.03 -0.648,-1.75 0,-1.04 0.384,-1.89 1.152,-2.54 0.784,-0.68 1.84,-1.01 3.168,-1.01 1.264,0 2.296,0.32 3.096,0.96 0.816,0.62 1.288,1.52 1.416,2.69 h -1.992 c -0.08,-0.61 -0.344,-1.08 -0.792,-1.42 -0.432,-0.35 -1.016,-0.53 -1.752,-0.53 -0.72,0 -1.28,0.15 -1.68,0.46 -0.384,0.3 -0.576,0.7 -0.576,1.2 0,0.48 0.248,0.85 0.744,1.13 0.512,0.27 1.2,0.5 2.064,0.69 0.736,0.16 1.432,0.36 2.088,0.6 0.672,0.23 1.216,0.57 1.632,1.03 0.432,0.45 0.648,1.11 0.648,1.97 0.016,1.07 -0.392,1.96 -1.224,2.67 -0.816,0.68 -1.928,1.03 -3.336,1.03 z m 13.272,0 c -1.136,0 -2.144,-0.26 -3.024,-0.77 -0.88,-0.53 -1.576,-1.26 -2.088,-2.18 -0.496,-0.93 -0.744,-2.03 -0.744,-3.29 0,-1.25 0.248,-2.34 0.744,-3.27 0.496,-0.94 1.184,-1.67 2.064,-2.18 0.896,-0.53 1.928,-0.79 3.096,-0.79 1.152,0 2.144,0.26 2.976,0.79 0.848,0.51 1.496,1.19 1.944,2.04 0.448,0.85 0.672,1.76 0.672,2.74 0,0.17 -0.008,0.35 -0.024,0.52 0,0.18 0,0.38 0,0.6 h -9.48 c 0.048,0.92 0.256,1.68 0.624,2.28 0.384,0.6 0.856,1.04 1.416,1.35 0.576,0.3 1.184,0.45 1.824,0.45 0.832,0 1.528,-0.19 2.088,-0.57 0.56,-0.39 0.968,-0.91 1.224,-1.56 h 1.992 c -0.32,1.1 -0.936,2.02 -1.848,2.76 -0.896,0.72 -2.048,1.08 -3.456,1.08 z m 0,-10.78 c -0.96,0 -1.816,0.3 -2.568,0.89 -0.736,0.58 -1.16,1.42 -1.272,2.54 h 7.488 c -0.048,-1.07 -0.416,-1.91 -1.104,-2.52 -0.688,-0.6 -1.536,-0.91 -2.544,-0.91 z m 8.792,10.49 v -11.9 h 1.824 l 0.168,2.28 c 0.368,-0.79 0.928,-1.41 1.68,-1.88 0.752,-0.46 1.68,-0.69 2.784,-0.69 v 2.11 h -0.552 c -0.704,0 -1.352,0.13 -1.944,0.38 -0.592,0.24 -1.064,0.66 -1.416,1.25 -0.352,0.59 -0.528,1.41 -0.528,2.45 v 6 z m 16.15,0 v -16.8 h 2.016 v 7.42 h 8.712 v -7.42 h 2.016 v 16.8 h -2.016 v -7.73 h -8.712 v 7.73 z m 20.609,0.29 c -0.992,0 -1.816,-0.17 -2.472,-0.51 -0.656,-0.33 -1.144,-0.78 -1.464,-1.34 -0.32,-0.56 -0.48,-1.17 -0.48,-1.82 0,-1.22 0.464,-2.16 1.392,-2.81 0.928,-0.66 2.192,-0.99 3.792,-0.99 h 3.216 v -0.14 c 0,-1.04 -0.272,-1.82 -0.816,-2.35 -0.544,-0.55 -1.272,-0.82 -2.184,-0.82 -0.784,0 -1.464,0.2 -2.04,0.6 -0.56,0.39 -0.912,0.95 -1.056,1.71 h -2.064 c 0.08,-0.87 0.368,-1.6 0.864,-2.19 0.512,-0.59 1.144,-1.04 1.896,-1.34 0.752,-0.32 1.552,-0.48 2.4,-0.48 1.664,0 2.912,0.45 3.744,1.34 0.848,0.88 1.272,2.06 1.272,3.53 v 7.32 h -1.8 l -0.12,-2.14 c -0.336,0.68 -0.832,1.25 -1.488,1.73 -0.64,0.47 -1.504,0.7 -2.592,0.7 z m 0.312,-1.71 c 0.768,0 1.424,-0.2 1.968,-0.6 0.56,-0.4 0.984,-0.92 1.272,-1.56 0.288,-0.64 0.432,-1.31 0.432,-2.01 v -0.03 h -3.048 c -1.184,0 -2.024,0.21 -2.52,0.63 -0.48,0.4 -0.72,0.9 -0.72,1.51 0,0.62 0.224,1.13 0.672,1.51 0.464,0.37 1.112,0.55 1.944,0.55 z m 9.193,6.7 v -17.18 h 1.824 l 0.192,1.96 c 0.384,-0.57 0.928,-1.09 1.632,-1.56 0.72,-0.46 1.632,-0.69 2.736,-0.69 1.184,0 2.216,0.27 3.096,0.81 0.88,0.55 1.56,1.29 2.04,2.24 0.496,0.94 0.744,2.01 0.744,3.21 0,1.2 -0.248,2.27 -0.744,3.22 -0.48,0.93 -1.168,1.66 -2.064,2.21 -0.88,0.52 -1.912,0.79 -3.096,0.79 -0.976,0 -1.848,-0.2 -2.616,-0.6 -0.752,-0.4 -1.328,-0.96 -1.728,-1.68 v 7.27 z m 6.144,-6.74 c 0.8,0 1.504,-0.19 2.112,-0.56 0.608,-0.38 1.088,-0.91 1.44,-1.58 0.352,-0.67 0.528,-1.46 0.528,-2.35 0,-0.9 -0.176,-1.68 -0.528,-2.35 -0.352,-0.68 -0.832,-1.2 -1.44,-1.56 -0.608,-0.39 -1.312,-0.58 -2.112,-0.58 -0.8,0 -1.504,0.19 -2.112,0.58 -0.608,0.36 -1.088,0.88 -1.44,1.56 -0.352,0.67 -0.528,1.45 -0.528,2.35 0,0.89 0.176,1.68 0.528,2.35 0.352,0.67 0.832,1.2 1.44,1.58 0.608,0.37 1.312,0.56 2.112,0.56 z m 10.63,-13.08 c -0.4,0 -0.736,-0.13 -1.008,-0.39 -0.256,-0.27 -0.384,-0.61 -0.384,-1.01 0,-0.38 0.128,-0.7 0.384,-0.96 0.272,-0.25 0.608,-0.38 1.008,-0.38 0.384,0 0.712,0.13 0.984,0.38 0.272,0.26 0.408,0.58 0.408,0.96 0,0.4 -0.136,0.74 -0.408,1.01 -0.272,0.26 -0.6,0.39 -0.984,0.39 z m -1.008,14.54 v -11.9 h 2.016 v 11.9 z m 6.006,0 v -11.9 h 1.824 l 0.12,2.13 c 0.384,-0.75 0.936,-1.34 1.656,-1.77 0.72,-0.44 1.536,-0.65 2.448,-0.65 1.408,0 2.528,0.43 3.36,1.29 0.848,0.85 1.272,2.16 1.272,3.94 v 6.96 h -2.016 v -6.74 c 0,-2.48 -1.024,-3.72 -3.072,-3.72 -1.024,0 -1.88,0.37 -2.568,1.12 -0.672,0.74 -1.008,1.8 -1.008,3.17 v 6.17 z m 19.566,0.29 c -1.136,0 -2.144,-0.26 -3.024,-0.77 -0.88,-0.53 -1.576,-1.26 -2.088,-2.18 -0.496,-0.93 -0.744,-2.03 -0.744,-3.29 0,-1.25 0.248,-2.34 0.744,-3.27 0.496,-0.94 1.184,-1.67 2.064,-2.18 0.896,-0.53 1.928,-0.79 3.096,-0.79 1.152,0 2.144,0.26 2.976,0.79 0.848,0.51 1.496,1.19 1.944,2.04 0.448,0.85 0.672,1.76 0.672,2.74 0,0.17 -0.008,0.35 -0.024,0.52 0,0.18 0,0.38 0,0.6 h -9.48 c 0.048,0.92 0.256,1.68 0.624,2.28 0.384,0.6 0.856,1.04 1.416,1.35 0.576,0.3 1.184,0.45 1.824,0.45 0.832,0 1.528,-0.19 2.088,-0.57 0.56,-0.39 0.968,-0.91 1.224,-1.56 h 1.992 c -0.32,1.1 -0.936,2.02 -1.848,2.76 -0.896,0.72 -2.048,1.08 -3.456,1.08 z m 0,-10.78 c -0.96,0 -1.816,0.3 -2.568,0.89 -0.736,0.58 -1.16,1.42 -1.272,2.54 h 7.488 c -0.048,-1.07 -0.416,-1.91 -1.104,-2.52 -0.688,-0.6 -1.536,-0.91 -2.544,-0.91 z m 13.352,10.78 c -1.424,0 -2.608,-0.36 -3.552,-1.08 -0.944,-0.72 -1.496,-1.7 -1.656,-2.93 h 2.064 c 0.128,0.62 0.456,1.17 0.984,1.63 0.544,0.45 1.272,0.67 2.184,0.67 0.848,0 1.472,-0.17 1.872,-0.52 0.4,-0.37 0.6,-0.8 0.6,-1.3 0,-0.72 -0.264,-1.2 -0.792,-1.44 -0.512,-0.24 -1.24,-0.46 -2.184,-0.65 -0.64,-0.13 -1.28,-0.31 -1.92,-0.55 -0.64,-0.24 -1.176,-0.58 -1.608,-1.01 -0.432,-0.45 -0.648,-1.03 -0.648,-1.75 0,-1.04 0.384,-1.89 1.152,-2.54 0.784,-0.68 1.84,-1.01 3.168,-1.01 1.264,0 2.296,0.32 3.096,0.96 0.816,0.62 1.288,1.52 1.416,2.69 h -1.992 c -0.08,-0.61 -0.344,-1.08 -0.792,-1.42 -0.432,-0.35 -1.016,-0.53 -1.752,-0.53 -0.72,0 -1.28,0.15 -1.68,0.46 -0.384,0.3 -0.576,0.7 -0.576,1.2 0,0.48 0.248,0.85 0.744,1.13 0.512,0.27 1.2,0.5 2.064,0.69 0.736,0.16 1.432,0.36 2.088,0.6 0.672,0.23 1.216,0.57 1.632,1.03 0.432,0.45 0.648,1.11 0.648,1.97 0.016,1.07 -0.392,1.96 -1.224,2.67 -0.816,0.68 -1.928,1.03 -3.336,1.03 z m 12.48,0 c -1.424,0 -2.608,-0.36 -3.552,-1.08 -0.944,-0.72 -1.496,-1.7 -1.656,-2.93 h 2.064 c 0.128,0.62 0.456,1.17 0.984,1.63 0.544,0.45 1.272,0.67 2.184,0.67 0.848,0 1.472,-0.17 1.872,-0.52 0.4,-0.37 0.6,-0.8 0.6,-1.3 0,-0.72 -0.264,-1.2 -0.792,-1.44 -0.512,-0.24 -1.24,-0.46 -2.184,-0.65 -0.64,-0.13 -1.28,-0.31 -1.92,-0.55 -0.64,-0.24 -1.176,-0.58 -1.608,-1.01 -0.432,-0.45 -0.648,-1.03 -0.648,-1.75 0,-1.04 0.384,-1.89 1.152,-2.54 0.784,-0.68 1.84,-1.01 3.168,-1.01 1.264,0 2.296,0.32 3.096,0.96 0.816,0.62 1.288,1.52 1.416,2.69 h -1.992 c -0.08,-0.61 -0.344,-1.08 -0.792,-1.42 -0.432,-0.35 -1.016,-0.53 -1.752,-0.53 -0.72,0 -1.28,0.15 -1.68,0.46 -0.384,0.3 -0.576,0.7 -0.576,1.2 0,0.48 0.248,0.85 0.744,1.13 0.512,0.27 1.2,0.5 2.064,0.69 0.736,0.16 1.432,0.36 2.088,0.6 0.672,0.23 1.216,0.57 1.632,1.03 0.432,0.45 0.648,1.11 0.648,1.97 0.016,1.07 -0.392,1.96 -1.224,2.67 -0.816,0.68 -1.928,1.03 -3.336,1.03 z m 20.224,0 c -1.232,0 -2.304,-0.23 -3.216,-0.67 -0.912,-0.45 -1.616,-1.08 -2.112,-1.88 -0.496,-0.8 -0.744,-1.72 -0.744,-2.78 h 2.112 c 0,0.66 0.152,1.26 0.456,1.82 0.304,0.55 0.744,0.99 1.32,1.32 0.592,0.32 1.32,0.48 2.184,0.48 1.136,0 2.016,-0.27 2.64,-0.81 0.624,-0.55 0.936,-1.23 0.936,-2.04 0,-0.67 -0.144,-1.21 -0.432,-1.61 -0.288,-0.42 -0.68,-0.75 -1.176,-1.01 -0.48,-0.25 -1.04,-0.48 -1.68,-0.67 -0.624,-0.19 -1.28,-0.41 -1.968,-0.65 -1.296,-0.45 -2.256,-1 -2.88,-1.65 -0.624,-0.68 -0.936,-1.55 -0.936,-2.62 -0.016,-0.9 0.192,-1.69 0.624,-2.38 0.432,-0.7 1.04,-1.24 1.824,-1.63 0.8,-0.4 1.744,-0.6 2.832,-0.6 1.072,0 2,0.2 2.784,0.6 0.8,0.4 1.416,0.95 1.848,1.66 0.448,0.7 0.68,1.5 0.696,2.4 h -2.112 c 0,-0.47 -0.12,-0.92 -0.36,-1.37 -0.24,-0.46 -0.608,-0.84 -1.104,-1.13 -0.48,-0.29 -1.088,-0.43 -1.824,-0.43 -0.912,-0.02 -1.664,0.22 -2.256,0.7 -0.576,0.48 -0.864,1.14 -0.864,1.99 0,0.72 0.2,1.27 0.6,1.65 0.416,0.39 0.992,0.71 1.728,0.96 0.736,0.24 1.584,0.52 2.544,0.84 0.8,0.29 1.52,0.63 2.16,1.01 0.64,0.39 1.136,0.88 1.488,1.49 0.368,0.61 0.552,1.38 0.552,2.33 0,0.8 -0.208,1.56 -0.624,2.28 -0.416,0.7 -1.048,1.28 -1.896,1.73 -0.832,0.44 -1.88,0.67 -3.144,0.67 z m 13.587,-0.29 c -1.088,0 -1.944,-0.26 -2.568,-0.79 -0.624,-0.53 -0.936,-1.48 -0.936,-2.86 v -6.55 h -2.064 v -1.7 h 2.064 l 0.264,-2.86 h 1.752 v 2.86 h 3.504 v 1.7 h -3.504 v 6.55 c 0,0.75 0.152,1.27 0.456,1.54 0.304,0.25 0.84,0.38 1.608,0.38 h 1.248 v 1.73 z m 15.473,-11.9 v 11.9 h -1.824 l -0.12,-2.14 c -0.384,0.76 -0.936,1.35 -1.656,1.78 -0.72,0.43 -1.536,0.65 -2.448,0.65 -1.408,0 -2.536,-0.43 -3.384,-1.27 -0.832,-0.87 -1.248,-2.19 -1.248,-3.96 v -6.96 h 2.016 v 6.74 c 0,2.48 1.024,3.72 3.072,3.72 1.024,0 1.872,-0.37 2.544,-1.1 0.688,-0.76 1.032,-1.82 1.032,-3.2 v -6.16 z m 9.199,12.19 c -1.184,0 -2.224,-0.27 -3.12,-0.82 -0.88,-0.54 -1.568,-1.29 -2.064,-2.23 -0.48,-0.94 -0.72,-2.02 -0.72,-3.22 0,-1.2 0.248,-2.26 0.744,-3.19 0.496,-0.94 1.184,-1.68 2.064,-2.21 0.88,-0.54 1.92,-0.81 3.12,-0.81 0.976,0 1.84,0.2 2.592,0.6 0.752,0.4 1.336,0.96 1.752,1.68 v -7.37 h 2.016 V 1851 h -1.824 l -0.192,-1.97 c -0.384,0.58 -0.936,1.1 -1.656,1.56 -0.72,0.47 -1.624,0.7 -2.712,0.7 z m 0.216,-1.75 c 0.8,0 1.504,-0.19 2.112,-0.56 0.624,-0.38 1.104,-0.91 1.44,-1.58 0.352,-0.67 0.528,-1.46 0.528,-2.35 0,-0.9 -0.176,-1.68 -0.528,-2.35 -0.336,-0.68 -0.816,-1.2 -1.44,-1.56 -0.608,-0.39 -1.312,-0.58 -2.112,-0.58 -0.784,0 -1.488,0.19 -2.112,0.58 -0.608,0.36 -1.088,0.88 -1.44,1.56 -0.336,0.67 -0.504,1.45 -0.504,2.35 0,0.89 0.168,1.68 0.504,2.35 0.352,0.67 0.832,1.2 1.44,1.58 0.624,0.37 1.328,0.56 2.112,0.56 z m 11.158,-13.08 c -0.4,0 -0.736,-0.13 -1.008,-0.39 -0.256,-0.27 -0.384,-0.61 -0.384,-1.01 0,-0.38 0.128,-0.7 0.384,-0.96 0.272,-0.25 0.608,-0.38 1.008,-0.38 0.384,0 0.712,0.13 0.984,0.38 0.272,0.26 0.408,0.58 0.408,0.96 0,0.4 -0.136,0.74 -0.408,1.01 -0.272,0.26 -0.6,0.39 -0.984,0.39 z M 598.12,1851 v -11.9 h 2.016 v 11.9 z m 11.43,0.29 c -1.12,0 -2.128,-0.26 -3.024,-0.77 -0.896,-0.51 -1.608,-1.23 -2.136,-2.16 -0.512,-0.94 -0.768,-2.05 -0.768,-3.31 0,-1.27 0.264,-2.36 0.792,-3.29 0.528,-0.94 1.24,-1.67 2.136,-2.18 0.912,-0.52 1.928,-0.77 3.048,-0.77 1.12,0 2.128,0.25 3.024,0.77 0.896,0.51 1.6,1.24 2.112,2.18 0.528,0.93 0.792,2.02 0.792,3.29 0,1.26 -0.264,2.37 -0.792,3.31 -0.528,0.93 -1.248,1.65 -2.16,2.16 -0.896,0.51 -1.904,0.77 -3.024,0.77 z m 0,-1.73 c 0.688,0 1.328,-0.17 1.92,-0.5 0.592,-0.34 1.072,-0.84 1.44,-1.52 0.368,-0.67 0.552,-1.5 0.552,-2.49 0,-0.99 -0.184,-1.83 -0.552,-2.5 -0.352,-0.67 -0.824,-1.17 -1.416,-1.51 -0.592,-0.34 -1.224,-0.5 -1.896,-0.5 -0.688,0 -1.328,0.16 -1.92,0.5 -0.592,0.34 -1.072,0.84 -1.44,1.51 -0.368,0.67 -0.552,1.51 -0.552,2.5 0,0.99 0.184,1.82 0.552,2.49 0.368,0.68 0.84,1.18 1.416,1.52 0.592,0.33 1.224,0.5 1.896,0.5 z"
       fill="#5c5bb3"
       id="path136" />
    <rect
       x="80.5"
       y="101.5"
       width="1279"
       height="89"
       rx="19.5"
       fill="#eaf0f9"
       stroke="#e8e8f2"
       id="rect138" />
    <path
       d="m 1176.97,154 v -16.8 h 10.54 v 2.064 h -7.99 v 5.304 h 6.62 v 2.04 h -6.62 V 154 Z m 13.42,0 v -17.28 h 2.54 V 154 Z m 11.81,0.288 c -1.13,0 -2.16,-0.256 -3.07,-0.768 -0.9,-0.528 -1.61,-1.256 -2.14,-2.184 -0.52,-0.944 -0.79,-2.04 -0.79,-3.288 0,-1.248 0.27,-2.336 0.79,-3.264 0.55,-0.944 1.28,-1.672 2.19,-2.184 0.91,-0.528 1.93,-0.792 3.05,-0.792 1.13,0 2.15,0.264 3.04,0.792 0.92,0.512 1.64,1.24 2.16,2.184 0.55,0.928 0.82,2.016 0.82,3.264 0,1.248 -0.27,2.344 -0.82,3.288 -0.52,0.928 -1.24,1.656 -2.16,2.184 -0.91,0.512 -1.93,0.768 -3.07,0.768 z m 0,-2.184 c 0.61,0 1.17,-0.152 1.68,-0.456 0.53,-0.304 0.95,-0.752 1.27,-1.344 0.32,-0.608 0.48,-1.36 0.48,-2.256 0,-0.896 -0.16,-1.64 -0.48,-2.232 -0.3,-0.608 -0.72,-1.064 -1.24,-1.368 -0.52,-0.304 -1.08,-0.456 -1.68,-0.456 -0.61,0 -1.18,0.152 -1.71,0.456 -0.51,0.304 -0.93,0.76 -1.25,1.368 -0.32,0.592 -0.48,1.336 -0.48,2.232 0,0.896 0.16,1.648 0.48,2.256 0.32,0.592 0.74,1.04 1.25,1.344 0.51,0.304 1.07,0.456 1.68,0.456 z m 11.21,1.896 -3.5,-11.904 h 2.54 l 2.31,8.976 2.59,-8.976 h 2.83 l 2.59,8.976 2.31,-8.976 h 2.54 l -3.5,11.904 h -2.62 l -2.74,-9.36 -2.73,9.36 z m 21.98,0.288 c -1.17,0 -2.22,-0.264 -3.14,-0.792 -0.92,-0.528 -1.64,-1.256 -2.16,-2.184 -0.52,-0.944 -0.77,-2.032 -0.77,-3.264 0,-1.232 0.25,-2.312 0.77,-3.24 0.52,-0.944 1.24,-1.68 2.16,-2.208 0.92,-0.528 1.97,-0.792 3.14,-0.792 1.47,0 2.7,0.384 3.7,1.152 1,0.768 1.65,1.808 1.94,3.12 h -2.66 c -0.16,-0.656 -0.52,-1.168 -1.06,-1.536 -0.54,-0.368 -1.18,-0.552 -1.92,-0.552 -0.62,0 -1.2,0.16 -1.73,0.48 -0.53,0.304 -0.95,0.76 -1.27,1.368 -0.32,0.592 -0.48,1.328 -0.48,2.208 0,0.88 0.16,1.624 0.48,2.232 0.32,0.592 0.74,1.048 1.27,1.368 0.53,0.32 1.11,0.48 1.73,0.48 0.74,0 1.38,-0.184 1.92,-0.552 0.54,-0.368 0.9,-0.888 1.06,-1.56 h 2.66 c -0.27,1.28 -0.91,2.312 -1.92,3.096 -1.01,0.784 -2.25,1.176 -3.72,1.176 z m 8.88,-0.288 v -17.28 h 2.54 v 7.296 c 0.4,-0.688 0.95,-1.224 1.66,-1.608 0.72,-0.4 1.51,-0.6 2.37,-0.6 1.43,0 2.55,0.448 3.36,1.344 0.82,0.896 1.23,2.232 1.23,4.008 V 154 h -2.52 v -6.576 c 0,-2.304 -0.92,-3.456 -2.76,-3.456 -0.96,0 -1.76,0.336 -2.4,1.008 -0.63,0.672 -0.94,1.632 -0.94,2.88 V 154 Z m 18.67,0.288 c -1.01,0 -1.84,-0.168 -2.5,-0.504 -0.66,-0.336 -1.14,-0.776 -1.46,-1.32 -0.32,-0.56 -0.48,-1.168 -0.48,-1.824 0,-1.152 0.44,-2.064 1.34,-2.736 0.9,-0.672 2.18,-1.008 3.84,-1.008 h 3.12 v -0.216 c 0,-0.928 -0.26,-1.624 -0.77,-2.088 -0.49,-0.464 -1.14,-0.696 -1.94,-0.696 -0.71,0 -1.32,0.176 -1.85,0.528 -0.51,0.336 -0.82,0.84 -0.94,1.512 h -2.54 c 0.08,-0.864 0.37,-1.6 0.86,-2.208 0.52,-0.624 1.16,-1.096 1.92,-1.416 0.79,-0.336 1.64,-0.504 2.57,-0.504 1.67,0 2.95,0.44 3.87,1.32 0.91,0.864 1.36,2.048 1.36,3.552 V 154 h -2.2 l -0.22,-2.04 c -0.34,0.656 -0.82,1.208 -1.46,1.656 -0.64,0.448 -1.48,0.672 -2.52,0.672 z m 0.5,-2.064 c 0.69,0 1.26,-0.16 1.73,-0.48 0.48,-0.336 0.85,-0.776 1.1,-1.32 0.27,-0.544 0.44,-1.144 0.51,-1.8 h -2.84 c -1,0 -1.72,0.176 -2.16,0.528 -0.41,0.352 -0.62,0.792 -0.62,1.32 0,0.544 0.2,0.976 0.6,1.296 0.42,0.304 0.98,0.456 1.68,0.456 z m 9.35,1.776 v -11.904 h 2.28 l 0.22,2.256 c 0.41,-0.784 0.99,-1.4 1.73,-1.848 0.75,-0.464 1.65,-0.696 2.71,-0.696 v 2.664 h -0.7 c -0.7,0 -1.33,0.12 -1.89,0.36 -0.55,0.224 -0.99,0.616 -1.32,1.176 -0.32,0.544 -0.48,1.304 -0.48,2.28 V 154 Z m 14.59,0 c -1.17,0 -2.1,-0.28 -2.78,-0.84 -0.69,-0.576 -1.04,-1.592 -1.04,-3.048 v -5.88 h -2.04 v -2.136 h 2.04 l 0.32,-3.024 h 2.23 v 3.024 h 3.36 v 2.136 h -3.36 v 5.88 c 0,0.656 0.13,1.112 0.41,1.368 0.28,0.24 0.77,0.36 1.46,0.36 h 1.37 V 154 Z m 12.19,0 v -16.8 h 2.02 v 7.608 l 7.01,-7.608 h 2.54 l -6.24,6.696 6.34,10.104 h -2.45 l -5.33,-8.544 -1.87,1.992 V 154 Z m 14.45,0 v -16.8 h 2.02 V 154 Z m 9.99,0 V 138.856 H 1319 V 137.2 h 12.05 v 1.656 h -5.02 V 154 Z"
       fill="#5452f6"
       id="path140" />
    <path
       d="m 244.167,135.944 h -4.175 v 16.702 h 4.242 v -9.698 c 0,-2.357 1.549,-3.502 3.704,-3.502 h 2.492 v -3.569 h -1.751 c -2.121,0 -3.535,0.64 -4.175,2.424 h -0.337 z"
       fill="#101057"
       id="path154" />
    <path
       fill-rule="evenodd"
       clip-rule="evenodd"
       d="m 80.0056,1842.57 c 0.1579,-5.83 3.8177,-12.66 7.9258,-15.1 1.5494,-0.92 3.5773,-0.45 4.5294,1.05 0.9521,1.49 0.4679,3.46 -1.0815,4.38 -0.851,0.5 -2.04,1.9 -3.004,3.7 -1.0789,2.02 -1.7346,4.23 -1.7862,6.13 -0.0514,1.9 0.4753,3.32 1.5684,4.27 1.4209,1.23 3.98,1.91 7.8944,1.75 3.9131,-0.16 6.5441,-1.14 8.0671,-2.65 1.219,-1.21 1.78,-2.86 1.673,-4.81 -0.105,-1.92 -0.86,-3.95 -2.029,-5.53 -1.039,-1.41 -2.221,-2.22 -3.102,-2.32 -1.8072,-0.19 -3.108,-1.77 -2.9054,-3.51 0.2027,-1.75 1.832,-3.01 3.6394,-2.81 5.778,0.62 10.609,7.18 10.973,13.83 0.199,3.64 -0.952,7.03 -3.525,9.59 -2.799,2.78 -7.025,4.34 -12.506,4.57 -5.4994,0.23 -9.7259,-0.9 -12.5805,-3.38 -2.6524,-2.3 -3.8495,-5.53 -3.7509,-9.16 z m 18.2429,18.39 c 0,2.19 -2.0304,3.96 -4.5349,3.96 -2.5046,0 -4.535,-1.77 -4.535,-3.96 0,-2.19 2.0304,-3.97 4.535,-3.97 2.5045,0 4.5349,1.78 4.5349,3.97 z"
       fill="#5452f6"
       id="path134" />
    <path
       d="m 108,144.295 c 0,5.455 3.771,8.823 8.755,8.823 4.984,0 8.755,-3.368 8.755,-8.823 0,-5.455 -3.771,-8.822 -8.755,-8.822 -4.984,0 -8.755,3.367 -8.755,8.822 z m 4.243,0 c 0,-3.232 1.886,-5.118 4.512,-5.118 2.627,0 4.512,1.886 4.512,5.118 0,3.233 -1.885,5.119 -4.512,5.119 -2.626,0 -4.512,-1.886 -4.512,-5.119 z"
       fill="#101057"
       id="path142" />
    <path
       d="m 152.571,135.944 v 16.702 h 4.243 v -8.62 c 0,-3.098 1.516,-4.917 4.109,-4.917 2.289,0 3.569,1.246 3.569,3.772 v 9.765 h 4.243 v -9.967 c 0,-4.142 -2.593,-7.004 -6.499,-7.004 -3.065,0 -4.479,1.347 -5.152,2.761 h -0.337 v -2.492 z"
       fill="#101057"
       id="path144" />
    <path
       d="m 177.218,135.944 h -4.242 v 16.702 h 4.242 z"
       fill="#101057"
       id="path146" />
    <path
       d="m 180.663,144.295 c 0,5.186 3.838,8.823 8.687,8.823 4.681,0 7.409,-2.728 8.352,-6.398 l -4.109,-0.977 c -0.37,2.155 -1.616,3.671 -4.175,3.671 -2.559,0 -4.512,-1.886 -4.512,-5.119 0,-3.232 1.953,-5.118 4.512,-5.118 2.559,0 3.805,1.616 4.041,3.637 l 4.108,-0.876 c -0.741,-3.738 -3.57,-6.465 -8.217,-6.465 -4.849,0 -8.687,3.636 -8.687,8.822 z"
       fill="#101057"
       id="path148" />
    <path
       d="m 200.992,129.075 v 23.571 h 4.243 v -8.62 c 0,-3.098 1.515,-4.917 4.108,-4.917 2.29,0 3.569,1.246 3.569,3.772 v 9.765 h 4.243 v -9.967 c 0,-4.142 -2.593,-7.004 -6.499,-7.004 -3.064,0 -4.445,1.347 -5.085,2.626 h -0.336 v -9.226 z"
       fill="#101057"
       id="path150" />
    <path
       d="m 221.194,140.187 3.906,1.313 c 0.303,-1.515 1.313,-2.66 3.435,-2.66 2.155,0 3.098,1.212 3.098,2.761 v 0.943 h -4.58 c -3.771,0 -6.465,1.785 -6.465,5.22 0,3.434 2.694,5.354 6.128,5.354 3.098,0 4.21,-1.684 4.513,-2.425 h 0.471 v 1.953 h 4.041 v -10.742 c 0,-4.175 -2.761,-6.431 -7.139,-6.431 -4.344,0 -6.6,2.189 -7.408,4.714 z m 3.637,7.476 c 0,-1.145 0.943,-1.953 2.525,-1.953 h 4.277 v 0.269 c 0,2.222 -1.684,3.704 -4.041,3.704 -1.818,0 -2.761,-0.842 -2.761,-2.02 z"
       fill="#101057"
       id="path152" />
    <path
       d="m 252.002,139.379 h 4.176 v 9.496 c 0,2.29 1.481,3.771 3.704,3.771 h 4.714 v -3.434 h -3.233 c -0.606,0 -0.943,-0.337 -0.943,-1.011 v -8.822 H 265 v -3.435 h -4.58 v -5.186 h -4.242 v 5.186 h -4.176 z"
       fill="#101057"
       id="path156" />
    <path
       d="m 128.406,153.053 v -16.837 h 4.009 v 6.789 10.048 z"
       fill="#5452f6"
       id="path158" />
    <path
       d="m 136.424,153.053 v -12.027 h 4.008 v 4.85 7.177 z"
       fill="#5452f6"
       id="path160" />
    <path
       d="m 132.415,141.026 v -4.81 h 4.009 v 1.94 2.87 z"
       fill="#5452f6"
       id="path162" />
    <path
       d="m 140.432,141.026 v -4.81 h 4.009 v 1.94 2.87 z"
       fill="#65bf73"
       id="path164" />
    <path
       d="M 172.903,133.41 V 129 h 4.33 v 4.41 z"
       fill="#5452f6"
       id="path166" />
    <path
       d="m 144.441,153.053 v -12.027 h 4.009 v 4.85 7.177 z"
       fill="#2097f6"
       id="path168" />
  </g>
  <g
     inkscape:groupmode="layer"
     id="layer2"
     inkscape:label="other"
     style="display:none">
    <path
       d="m 865,914.974 10,9.257 -10,8.769"
       stroke="#de1306"
       stroke-width="2"
       stroke-linecap="round"
       stroke-linejoin="round"
       id="path4" />
    <path
       d="m 1201.25,923.033 -7.55,-7.373 c -0.63,-0.619 -1.7,-0.17 -1.7,0.715 v 14.341 c 0,0.872 1.04,1.326 1.68,0.735 l 7.55,-6.968 c 0.42,-0.388 0.43,-1.05 0.02,-1.45 z"
       fill="#de1306"
       id="path6" />
    <circle
       cx="237.5"
       cy="923.5"
       r="5.5"
       stroke="#de1306"
       stroke-width="2"
       id="circle8" />
    <circle
       cx="543.5"
       cy="923.5"
       r="5.5"
       fill="#de1306"
       id="circle10" />
    <path
       d="m 865,974.974 10,9.257 -10,8.769"
       stroke="#de1306"
       stroke-width="2"
       stroke-linecap="round"
       stroke-linejoin="round"
       id="path12" />
    <path
       d="m 1201.25,983.033 -7.55,-7.373 c -0.63,-0.619 -1.7,-0.17 -1.7,0.715 v 14.341 c 0,0.872 1.04,1.326 1.68,0.735 l 7.55,-6.968 c 0.42,-0.388 0.43,-1.05 0.02,-1.45 z"
       fill="#de1306"
       id="path14" />
    <circle
       cx="237.5"
       cy="983.5"
       r="5.5"
       stroke="#de1306"
       stroke-width="2"
       id="circle16" />
    <circle
       cx="543.5"
       cy="983.5"
       r="5.5"
       fill="#de1306"
       id="circle18" />
    <path
       d="m 865,1030.97 10,9.26 -10,8.77"
       stroke="#2097f7"
       stroke-width="2"
       stroke-linecap="round"
       stroke-linejoin="round"
       id="path20" />
    <path
       d="m 1201.25,1039.03 -7.55,-7.37 c -0.63,-0.62 -1.7,-0.17 -1.7,0.71 v 14.35 c 0,0.87 1.04,1.32 1.68,0.73 l 7.55,-6.97 c 0.42,-0.38 0.43,-1.05 0.02,-1.45 z"
       fill="#2097f6"
       id="path22" />
    <circle
       cx="237.5"
       cy="1039.5"
       r="5.5"
       stroke="#2097f7"
       stroke-width="2"
       id="circle24" />
    <circle
       cx="543.5"
       cy="1039.5"
       r="5.5"
       fill="#2097f6"
       id="circle26" />
    <path
       d="m 865,1086.97 10,9.26 -10,8.77"
       stroke="#5452f6"
       stroke-width="2"
       stroke-linecap="round"
       stroke-linejoin="round"
       id="path28" />
    <path
       d="m 1201.25,1095.03 -7.55,-7.37 c -0.63,-0.62 -1.7,-0.17 -1.7,0.71 v 14.35 c 0,0.87 1.04,1.32 1.68,0.73 l 7.55,-6.97 c 0.42,-0.38 0.43,-1.05 0.02,-1.45 z"
       fill="#5452f6"
       id="path30" />
    <circle
       cx="237.5"
       cy="1095.5"
       r="5.5"
       stroke="#5452f6"
       stroke-width="2"
       id="circle32" />
    <circle
       cx="543.5"
       cy="1095.5"
       r="5.5"
       fill="#5452f6"
       id="circle34" />
    <path
       d="m 865,1142.97 10,9.26 -10,8.77"
       stroke="#65bf73"
       stroke-width="2"
       stroke-linecap="round"
       stroke-linejoin="round"
       id="path36" />
    <path
       d="m 1201.25,1151.03 -7.55,-7.37 c -0.63,-0.62 -1.7,-0.17 -1.7,0.71 v 14.35 c 0,0.87 1.04,1.32 1.68,0.73 l 7.55,-6.97 c 0.42,-0.38 0.43,-1.05 0.02,-1.45 z"
       fill="#65bf73"
       id="path38" />
    <circle
       cx="237.5"
       cy="1151.5"
       r="5.5"
       stroke="#65bf73"
       stroke-width="2"
       id="circle40" />
    <circle
       cx="543.5"
       cy="1151.5"
       r="5.5"
       fill="#65bf73"
       id="circle42" />
    <path
       d="m 152,1413 v 95 c 0,22.09 17.909,40 40,40 h 52.5"
       stroke="#de1306"
       stroke-width="2"
       id="path52" />
    <path
       d="m 172,1393 v 95 c 0,22.09 17.909,40 40,40 h 52.5"
       stroke="#de1306"
       stroke-width="2"
       stroke-linecap="round"
       stroke-linejoin="round"
       stroke-dasharray="5, 8"
       id="path54" />
    <path
       d="m 406,1413 v 95 c 0,22.09 17.909,40 40,40 h 52.5"
       stroke="#ff5a43"
       stroke-width="2"
       id="path56" />
    <path
       d="m 430,1393 v 95 c 0,22.09 17.909,40 40,40 h 52.5"
       stroke="#ff5a43"
       stroke-width="2"
       stroke-linecap="round"
       stroke-linejoin="round"
       stroke-dasharray="5, 8"
       id="path58" />
    <path
       d="m 665,1413 v 95 c 0,22.09 17.909,40 40,40 h 52.5"
       stroke="#2097f7"
       stroke-width="2"
       id="path60" />
    <path
       d="m 683,1393 v 95 c 0,22.09 17.909,40 40,40 h 52.5"
       stroke="#2097f6"
       stroke-width="2"
       stroke-linecap="round"
       stroke-linejoin="round"
       stroke-dasharray="5, 8"
       id="path62" />
    <path
       d="m 920,1413 v 95 c 0,22.09 17.909,40 40,40 h 52.5"
       stroke="#5452f6"
       stroke-width="2"
       id="path64" />
    <path
       d="m 939,1393 v 95 c 0,22.09 17.909,40 40,40 h 52.5"
       stroke="#5452f6"
       stroke-width="2"
       stroke-linecap="round"
       stroke-linejoin="round"
       stroke-dasharray="5, 8"
       id="path66" />
    <path
       d="m 1176,1413 v 95 c 0,22.09 17.91,40 40,40 h 52.5"
       stroke="#65bf73"
       stroke-width="2"
       id="path68" />
    <path
       d="m 1196,1393 v 95 c 0,22.09 17.91,40 40,40 h 52.5"
       stroke="#65bf73"
       stroke-width="2"
       stroke-linecap="round"
       stroke-linejoin="round"
       stroke-dasharray="5, 8"
       id="path70" />
    <rect
       x="134"
       y="488"
       width="148"
       height="45"
       rx="10"
       fill="#de1306"
       id="rect92" />
    <rect
       x="390"
       y="488"
       width="148"
       height="45"
       rx="10"
       fill="#ff5a43"
       id="rect94" />
    <rect
       x="646"
       y="488"
       width="148"
       height="45"
       rx="10"
       fill="#2097f6"
       id="rect96" />
    <rect
       x="902"
       y="488"
       width="148"
       height="45"
       rx="10"
       fill="#5452f6"
       id="rect98" />
    <rect
       x="1158"
       y="488"
       width="148"
       height="45"
       rx="10"
       fill="#65bf73"
       id="rect100" />
    <rect
       x="134"
       y="626"
       width="148"
       height="45"
       rx="10"
       fill="#feebea"
       id="rect102" />
    <rect
       x="390"
       y="626"
       width="148"
       height="45"
       rx="10"
       fill="#ffecea"
       id="rect104" />
    <rect
       x="646"
       y="626"
       width="148"
       height="45"
       rx="10"
       fill="#e7f4ff"
       id="rect106" />
    <rect
       x="902"
       y="626"
       width="148"
       height="45"
       rx="10"
       fill="#eeeeff"
       id="rect108" />
    <rect
       x="1158"
       y="626"
       width="148"
       height="45"
       rx="10"
       fill="#e5fde8"
       id="rect110" />
    <rect
       x="134"
       y="557"
       width="148"
       height="45"
       rx="10"
       fill="#f3a39e"
       id="rect112" />
    <rect
       x="390"
       y="557"
       width="148"
       height="45"
       rx="10"
       fill="#f1988c"
       id="rect114" />
    <rect
       x="646"
       y="557"
       width="148"
       height="45"
       rx="10"
       fill="#83c4f8"
       id="rect116" />
    <rect
       x="902"
       y="557"
       width="148"
       height="45"
       rx="10"
       fill="#aca9f1"
       id="rect118" />
    <rect
       x="1158"
       y="557"
       width="148"
       height="45"
       rx="10"
       fill="#93c69b"
       id="rect120" />
  </g>
  <g
     inkscape:label="New_Layer_1653410654.1152923"
     inkscape:groupmode="layer"
     id="New_Layer_1653410654.1152923"
     style="display:inline">
    <path
       d="m 865,914.974 10,9.257 -10,8.769"
       stroke="#de1306"
       stroke-width="2"
       stroke-linecap="round"
       stroke-linejoin="round"
       id="path7359" />
  </g>
  <g
     inkscape:label="New_Layer_1653410654.1167636"
     inkscape:groupmode="layer"
     id="New_Layer_1653410654.1167636">
    <path
       d="m 1201.25,923.033 -7.55,-7.373 c -0.63,-0.619 -1.7,-0.17 -1.7,0.715 v 14.341 c 0,0.872 1.04,1.326 1.68,0.735 l 7.55,-6.968 c 0.42,-0.388 0.43,-1.05 0.02,-1.45 z"
       fill="#de1306"
       id="path8846" />
  </g>
  <g
     inkscape:label="New_Layer_1653410654.1171365"
     inkscape:groupmode="layer"
     id="New_Layer_1653410654.1171365">
    <circle
       cx="237.5"
       cy="923.5"
       r="5.5"
       stroke="#de1306"
       stroke-width="2"
       id="circle122" />
  </g>
  <g
     inkscape:label="New_Layer_1653410654.117513"
     inkscape:groupmode="layer"
     id="New_Layer_1653410654.117513">
    <circle
       cx="543.5"
       cy="923.5"
       r="5.5"
       fill="#de1306"
       id="circle8296" />
  </g>
  <g
     inkscape:label="New_Layer_1653410654.1178916"
     inkscape:groupmode="layer"
     id="New_Layer_1653410654.1178916">
    <path
       d="m 865,974.974 10,9.257 -10,8.769"
       stroke="#de1306"
       stroke-width="2"
       stroke-linecap="round"
       stroke-linejoin="round"
       id="path1260" />
  </g>
  <g
     inkscape:label="New_Layer_1653410654.118259"
     inkscape:groupmode="layer"
     id="New_Layer_1653410654.118259"
     style="display:inline">
    <path
       d="m 1201.25,983.033 -7.55,-7.373 c -0.63,-0.619 -1.7,-0.17 -1.7,0.715 v 14.341 c 0,0.872 1.04,1.326 1.68,0.735 l 7.55,-6.968 c 0.42,-0.388 0.43,-1.05 0.02,-1.45 z"
       fill="#de1306"
       id="path2256" />
  </g>
  <g
     inkscape:label="New_Layer_1653410654.1186223"
     inkscape:groupmode="layer"
     id="New_Layer_1653410654.1186223">
    <circle
       cx="237.5"
       cy="983.5"
       r="5.5"
       stroke="#de1306"
       stroke-width="2"
       id="circle5440" />
  </g>
  <g
     inkscape:label="New_Layer_1653410654.1189964"
     inkscape:groupmode="layer"
     id="New_Layer_1653410654.1189964">
    <circle
       cx="543.5"
       cy="983.5"
       r="5.5"
       fill="#de1306"
       id="circle5980" />
  </g>
  <g
     inkscape:label="New_Layer_1653410654.1193626"
     inkscape:groupmode="layer"
     id="New_Layer_1653410654.1193626">
    <path
       d="m 865,1030.97 10,9.26 -10,8.77"
       stroke="#2097f7"
       stroke-width="2"
       stroke-linecap="round"
       stroke-linejoin="round"
       id="path4448" />
  </g>
  <g
     inkscape:label="New_Layer_1653410654.11974"
     inkscape:groupmode="layer"
     id="New_Layer_1653410654.11974">
    <path
       d="m 1201.25,1039.03 -7.55,-7.37 c -0.63,-0.62 -1.7,-0.17 -1.7,0.71 v 14.35 c 0,0.87 1.04,1.32 1.68,0.73 l 7.55,-6.97 c 0.42,-0.38 0.43,-1.05 0.02,-1.45 z"
       fill="#2097f6"
       id="path820" />
  </g>
  <g
     inkscape:label="New_Layer_1653410654.120102"
     inkscape:groupmode="layer"
     id="New_Layer_1653410654.120102">
    <circle
       cx="237.5"
       cy="1039.5"
       r="5.5"
       stroke="#2097f7"
       stroke-width="2"
       id="circle806" />
  </g>
  <g
     inkscape:label="New_Layer_1653410654.1204672"
     inkscape:groupmode="layer"
     id="New_Layer_1653410654.1204672">
    <circle
       cx="543.5"
       cy="1039.5"
       r="5.5"
       fill="#2097f6"
       id="circle760" />
  </g>
  <g
     inkscape:label="New_Layer_1653410654.120843"
     inkscape:groupmode="layer"
     id="New_Layer_1653410654.120843">
    <path
       d="m 865,1086.97 10,9.26 -10,8.77"
       stroke="#5452f6"
       stroke-width="2"
       stroke-linecap="round"
       stroke-linejoin="round"
       id="path9936" />
  </g>
  <g
     inkscape:label="New_Layer_1653410654.1212091"
     inkscape:groupmode="layer"
     id="New_Layer_1653410654.1212091">
    <path
       d="m 1201.25,1095.03 -7.55,-7.37 c -0.63,-0.62 -1.7,-0.17 -1.7,0.71 v 14.35 c 0,0.87 1.04,1.32 1.68,0.73 l 7.55,-6.97 c 0.42,-0.38 0.43,-1.05 0.02,-1.45 z"
       fill="#5452f6"
       id="path259" />
  </g>
  <g
     inkscape:label="New_Layer_1653410654.121573"
     inkscape:groupmode="layer"
     id="New_Layer_1653410654.121573">
    <circle
       cx="237.5"
       cy="1095.5"
       r="5.5"
       stroke="#5452f6"
       stroke-width="2"
       id="circle9786" />
  </g>
  <g
     inkscape:label="New_Layer_1653410654.1219501"
     inkscape:groupmode="layer"
     id="New_Layer_1653410654.1219501">
    <circle
       cx="543.5"
       cy="1095.5"
       r="5.5"
       fill="#5452f6"
       id="circle6624" />
  </g>
  <g
     inkscape:label="New_Layer_1653410654.1223161"
     inkscape:groupmode="layer"
     id="New_Layer_1653410654.1223161">
    <path
       d="m 865,1142.97 10,9.26 -10,8.77"
       stroke="#65bf73"
       stroke-width="2"
       stroke-linecap="round"
       stroke-linejoin="round"
       id="path9022" />
  </g>
  <g
     inkscape:label="New_Layer_1653410654.1226947"
     inkscape:groupmode="layer"
     id="New_Layer_1653410654.1226947">
    <path
       d="m 1201.25,1151.03 -7.55,-7.37 c -0.63,-0.62 -1.7,-0.17 -1.7,0.71 v 14.35 c 0,0.87 1.04,1.32 1.68,0.73 l 7.55,-6.97 c 0.42,-0.38 0.43,-1.05 0.02,-1.45 z"
       fill="#65bf73"
       id="path6405" />
  </g>
  <g
     inkscape:label="New_Layer_1653410654.123058"
     inkscape:groupmode="layer"
     id="New_Layer_1653410654.123058">
    <circle
       cx="237.5"
       cy="1151.5"
       r="5.5"
       stroke="#65bf73"
       stroke-width="2"
       id="circle7322" />
  </g>
  <g
     inkscape:label="New_Layer_1653410654.1234233"
     inkscape:groupmode="layer"
     id="New_Layer_1653410654.1234233">
    <circle
       cx="543.5"
       cy="1151.5"
       r="5.5"
       fill="#65bf73"
       id="circle6524" />
  </g>
  <g
     inkscape:label="New_Layer_1653410654.123799"
     inkscape:groupmode="layer"
     id="New_Layer_1653410654.123799">
    <path
       d="m 152,1413 v 95 c 0,22.09 17.909,40 40,40 h 52.5"
       stroke="#de1306"
       stroke-width="2"
       id="path3693" />
  </g>
  <g
     inkscape:label="New_Layer_1653410654.1241615"
     inkscape:groupmode="layer"
     id="New_Layer_1653410654.1241615">
    <path
       d="m 172,1393 v 95 c 0,22.09 17.909,40 40,40 h 52.5"
       stroke="#de1306"
       stroke-width="2"
       stroke-linecap="round"
       stroke-linejoin="round"
       stroke-dasharray="5, 8"
       id="path7653" />
  </g>
  <g
     inkscape:label="New_Layer_1653410654.1245248"
     inkscape:groupmode="layer"
     id="New_Layer_1653410654.1245248">
    <path
       d="m 406,1413 v 95 c 0,22.09 17.909,40 40,40 h 52.5"
       stroke="#ff5a43"
       stroke-width="2"
       id="path616" />
  </g>
  <g
     inkscape:label="New_Layer_1653410654.1248991"
     inkscape:groupmode="layer"
     id="New_Layer_1653410654.1248991">
    <path
       d="m 430,1393 v 95 c 0,22.09 17.909,40 40,40 h 52.5"
       stroke="#ff5a43"
       stroke-width="2"
       stroke-linecap="round"
       stroke-linejoin="round"
       stroke-dasharray="5, 8"
       id="path5071" />
  </g>
  <g
     inkscape:label="New_Layer_1653410654.1252644"
     inkscape:groupmode="layer"
     id="New_Layer_1653410654.1252644">
    <path
       d="m 665,1413 v 95 c 0,22.09 17.909,40 40,40 h 52.5"
       stroke="#2097f7"
       stroke-width="2"
       id="path1401" />
  </g>
  <g
     inkscape:label="New_Layer_1653410654.1256292"
     inkscape:groupmode="layer"
     id="New_Layer_1653410654.1256292">
    <path
       d="m 683,1393 v 95 c 0,22.09 17.909,40 40,40 h 52.5"
       stroke="#2097f6"
       stroke-width="2"
       stroke-linecap="round"
       stroke-linejoin="round"
       stroke-dasharray="5, 8"
       id="path6910" />
  </g>
  <g
     inkscape:label="New_Layer_1653410654.1260042"
     inkscape:groupmode="layer"
     id="New_Layer_1653410654.1260042">
    <path
       d="m 920,1413 v 95 c 0,22.09 17.909,40 40,40 h 52.5"
       stroke="#5452f6"
       stroke-width="2"
       id="path4623" />
  </g>
  <g
     inkscape:label="New_Layer_1653410654.1263652"
     inkscape:groupmode="layer"
     id="New_Layer_1653410654.1263652"
     style="display:inline">
    <path
       d="m 939,1393 v 95 c 0,22.09 17.909,40 40,40 h 52.5"
       stroke="#5452f6"
       stroke-width="2"
       stroke-linecap="round"
       stroke-linejoin="round"
       stroke-dasharray="5, 8"
       id="path6618"
       style="display:inline" />
  </g>
  <g
     inkscape:label="New_Layer_1653410654.1267517"
     inkscape:groupmode="layer"
     id="New_Layer_1653410654.1267517">
    <path
       d="m 1176,1413 v 95 c 0,22.09 17.91,40 40,40 h 52.5"
       stroke="#65bf73"
       stroke-width="2"
       id="path9532" />
  </g>
  <g
     inkscape:label="New_Layer_1653410654.1271162"
     inkscape:groupmode="layer"
     id="New_Layer_1653410654.1271162">
    <path
       d="m 1196,1393 v 95 c 0,22.09 17.91,40 40,40 h 52.5"
       stroke="#65bf73"
       stroke-width="2"
       stroke-linecap="round"
       stroke-linejoin="round"
       stroke-dasharray="5, 8"
       id="path7894" />
  </g>
  <g
     inkscape:label="New_Layer_1653410654.1274831"
     inkscape:groupmode="layer"
     id="New_Layer_1653410654.1274831">
    <rect
       x="134"
       y="488"
       width="148"
       height="45"
       rx="10"
       fill="#de1306"
       id="rect9465" />
  </g>
  <g
     inkscape:label="New_Layer_1653410654.127868"
     inkscape:groupmode="layer"
     id="New_Layer_1653410654.127868">
    <rect
       x="390"
       y="488"
       width="148"
       height="45"
       rx="10"
       fill="#ff5a43"
       id="rect6663" />
  </g>
  <g
     inkscape:label="New_Layer_1653410654.128235"
     inkscape:groupmode="layer"
     id="New_Layer_1653410654.128235">
    <rect
       x="646"
       y="488"
       width="148"
       height="45"
       rx="10"
       fill="#2097f6"
       id="rect3354" />
  </g>
  <g
     inkscape:label="New_Layer_1653410654.1286016"
     inkscape:groupmode="layer"
     id="New_Layer_1653410654.1286016">
    <rect
       x="902"
       y="488"
       width="148"
       height="45"
       rx="10"
       fill="#5452f6"
       id="rect8222" />
  </g>
  <g
     inkscape:label="New_Layer_1653410654.1289804"
     inkscape:groupmode="layer"
     id="New_Layer_1653410654.1289804">
    <rect
       x="1158"
       y="488"
       width="148"
       height="45"
       rx="10"
       fill="#65bf73"
       id="rect4220" />
  </g>
  <g
     inkscape:label="New_Layer_1653410654.1293468"
     inkscape:groupmode="layer"
     id="New_Layer_1653410654.1293468">
    <rect
       x="134"
       y="626"
       width="148"
       height="45"
       rx="10"
       fill="#feebea"
       id="rect8538" />
  </g>
  <g
     inkscape:label="New_Layer_1653410654.1297243"
     inkscape:groupmode="layer"
     id="New_Layer_1653410654.1297243">
    <rect
       x="390"
       y="626"
       width="148"
       height="45"
       rx="10"
       fill="#ffecea"
       id="rect6832" />
  </g>
  <g
     inkscape:label="New_Layer_1653410654.130091"
     inkscape:groupmode="layer"
     id="New_Layer_1653410654.130091">
    <rect
       x="646"
       y="626"
       width="148"
       height="45"
       rx="10"
       fill="#e7f4ff"
       id="rect3368" />
  </g>
  <g
     inkscape:label="New_Layer_1653410654.1304576"
     inkscape:groupmode="layer"
     id="New_Layer_1653410654.1304576">
    <rect
       x="902"
       y="626"
       width="148"
       height="45"
       rx="10"
       fill="#eeeeff"
       id="rect4212" />
  </g>
  <g
     inkscape:label="New_Layer_1653410654.1308331"
     inkscape:groupmode="layer"
     id="New_Layer_1653410654.1308331">
    <rect
       x="1158"
       y="626"
       width="148"
       height="45"
       rx="10"
       fill="#e5fde8"
       id="rect8288" />
  </g>
  <g
     inkscape:label="New_Layer_1653410654.1312022"
     inkscape:groupmode="layer"
     id="New_Layer_1653410654.1312022">
    <rect
       x="134"
       y="557"
       width="148"
       height="45"
       rx="10"
       fill="#f3a39e"
       id="rect7230" />
  </g>
  <g
     inkscape:label="New_Layer_1653410654.1315691"
     inkscape:groupmode="layer"
     id="New_Layer_1653410654.1315691">
    <rect
       x="390"
       y="557"
       width="148"
       height="45"
       rx="10"
       fill="#f1988c"
       id="rect4100" />
  </g>
  <g
     inkscape:label="New_Layer_1653410654.131948"
     inkscape:groupmode="layer"
     id="New_Layer_1653410654.131948">
    <rect
       x="646"
       y="557"
       width="148"
       height="45"
       rx="10"
       fill="#83c4f8"
       id="rect5440" />
  </g>
  <g
     inkscape:label="New_Layer_1653410654.132313"
     inkscape:groupmode="layer"
     id="New_Layer_1653410654.132313">
    <rect
       x="902"
       y="557"
       width="148"
       height="45"
       rx="10"
       fill="#aca9f1"
       id="rect7071" />
  </g>
  <g
     inkscape:label="New_Layer_1653410654.132691"
     inkscape:groupmode="layer"
     id="New_Layer_1653410654.132691"
     style="display:inline">
    <rect
       x="1158"
       y="557"
       width="148"
       height="45"
       rx="10"
       fill="#93c69b"
       id="rect7877" />
  </g>
</svg>
