<?xml version="1.0" encoding="UTF-8" standalone="no"?>
<svg
   width="136"
   height="67"
   viewBox="0 0 136 67"
   fill="none"
   version="1.1"
   id="svg1449"
   xmlns="http://www.w3.org/2000/svg"
   xmlns:svg="http://www.w3.org/2000/svg">
  <defs
     id="defs1447">
    <filter
       id="filter28_d_0_1"
       x="398"
       y="494.621"
       width="136"
       height="67"
       filterUnits="userSpaceOnUse"
       color-interpolation-filters="sRGB">
      <feFlood
         flood-opacity="0"
         result="BackgroundImageFix"
         id="feFlood1070" />
      <feColorMatrix
         in="SourceAlpha"
         type="matrix"
         values="0 0 0 0 0 0 0 0 0 0 0 0 0 0 0 0 0 0 127 0"
         result="hardAlpha"
         id="feColorMatrix1072" />
      <feOffset
         dx="4"
         dy="4"
         id="feOffset1074" />
      <feColorMatrix
         type="matrix"
         values="0 0 0 0 0.9875 0 0 0 0 0.738327 0 0 0 0 0.703594 0 0 0 1 0"
         id="feColorMatrix1076" />
      <feBlend
         mode="normal"
         in2="BackgroundImageFix"
         result="effect1_dropShadow_0_1"
         id="feBlend1078" />
      <feBlend
         mode="normal"
         in="SourceGraphic"
         in2="effect1_dropShadow_0_1"
         result="shape"
         id="feBlend1080" />
    </filter>
  </defs>
  <g
     id="New_Layer_1653412033.8356764"
     style="display:inline"
     transform="translate(-398,-494.621)">
    <g
       filter="url(#filter28_d_0_1)"
       id="g8286">
      <path
         d="m 398,502.621 c 0,-4.418 3.582,-8 8,-8 h 116 c 4.418,0 8,3.582 8,8 v 47 c 0,4.418 -3.582,8 -8,8 H 406 c -4.418,0 -8,-3.582 -8,-8 z"
         fill="#ffecea"
         id="path5531" />
      <text
         fill="#ff5a43"
         xml:space="preserve"
         style="white-space:pre"
         font-family="Roboto"
         font-size="16px"
         letter-spacing="0em"
         id="text5535"
         x="444.26599"
         y="531.59003"><tspan
           x="444.26599"
           y="531.59003"
           id="tspan5533">Block</tspan></text>
      <path
         d="m 406,495.621 h 116 v -2 H 406 Z m 123,7 v 47 h 2 v -47 z m -7,54 H 406 v 2 h 116 z m -123,-7 v -47 h -2 v 47 z m 7,7 c -3.866,0 -7,-3.134 -7,-7 h -2 c 0,4.971 4.029,9 9,9 z m 123,-7 c 0,3.866 -3.134,7 -7,7 v 2 c 4.971,0 9,-4.029 9,-9 z m -7,-54 c 3.866,0 7,3.134 7,7 h 2 c 0,-4.97 -4.029,-9 -9,-9 z m -116,-2 c -4.971,0 -9,4.03 -9,9 h 2 c 0,-3.866 3.134,-7 7,-7 z"
         fill="#ff5a43"
         id="path5537" />
    </g>
  </g>
</svg>
