<?xml version="1.0" encoding="UTF-8" standalone="no"?>
<svg
   width="136"
   height="67"
   viewBox="0 0 136 67"
   fill="none"
   version="1.1"
   id="svg1449"
   xmlns="http://www.w3.org/2000/svg"
   xmlns:svg="http://www.w3.org/2000/svg">
  <defs
     id="defs1447">
    <filter
       id="filter30_d_0_1"
       x="910"
       y="497.599"
       width="136"
       height="67"
       filterUnits="userSpaceOnUse"
       color-interpolation-filters="sRGB">
      <feFlood
         flood-opacity="0"
         result="BackgroundImageFix"
         id="feFlood1096" />
      <feColorMatrix
         in="SourceAlpha"
         type="matrix"
         values="0 0 0 0 0 0 0 0 0 0 0 0 0 0 0 0 0 0 127 0"
         result="hardAlpha"
         id="feColorMatrix1098" />
      <feOffset
         dx="4"
         dy="4"
         id="feOffset1100" />
      <feColorMatrix
         type="matrix"
         values="0 0 0 0 0.674908 0 0 0 0 0.662083 0 0 0 0 0.945833 0 0 0 1 0"
         id="feColorMatrix1102" />
      <feBlend
         mode="normal"
         in2="BackgroundImageFix"
         result="effect1_dropShadow_0_1"
         id="feBlend1104" />
      <feBlend
         mode="normal"
         in="SourceGraphic"
         in2="effect1_dropShadow_0_1"
         result="shape"
         id="feBlend1106" />
    </filter>
  </defs>
  <g
     id="New_Layer_1653412033.8364568"
     style="display:inline"
     transform="translate(-910,-497.599)">
    <g
       filter="url(#filter30_d_0_1)"
       id="g5873">
      <path
         d="m 910,505.599 c 0,-4.419 3.582,-8 8,-8 h 116 c 4.42,0 8,3.581 8,8 v 47 c 0,4.418 -3.58,8 -8,8 H 918 c -4.418,0 -8,-3.582 -8,-8 z"
         fill="#eeeeff"
         id="path5551" />
      <text
         fill="#5452f6"
         xml:space="preserve"
         style="white-space:pre"
         font-family="Roboto"
         font-size="16px"
         letter-spacing="0em"
         id="text5555"
         x="956.26599"
         y="534.56702"><tspan
           x="956.26599"
           y="534.56702"
           id="tspan5553">Block</tspan></text>
      <path
         d="m 918,498.599 h 116 v -2 H 918 Z m 123,7 v 47 h 2 v -47 z m -7,54 H 918 v 2 h 116 z m -123,-7 v -47 h -2 v 47 z m 7,7 c -3.866,0 -7,-3.134 -7,-7 h -2 c 0,4.97 4.029,9 9,9 z m 123,-7 c 0,3.866 -3.13,7 -7,7 v 2 c 4.97,0 9,-4.03 9,-9 z m -7,-54 c 3.87,0 7,3.134 7,7 h 2 c 0,-4.971 -4.03,-9 -9,-9 z m -116,-2 c -4.971,0 -9,4.029 -9,9 h 2 c 0,-3.866 3.134,-7 7,-7 z"
         fill="#5452f6"
         id="path5557" />
    </g>
  </g>
</svg>
