<?xml version="1.0" encoding="UTF-8" standalone="no"?>
<svg
   width="146.373"
   height="142.373"
   viewBox="0 0 146.373 142.373"
   fill="none"
   version="1.1"
   id="svg1449"
   xmlns="http://www.w3.org/2000/svg"
   xmlns:svg="http://www.w3.org/2000/svg">
  <defs
     id="defs1447">
    <filter
       id="filter37_d_0_1"
       x="137.314"
       y="1524.3101"
       width="146.373"
       height="142.373"
       filterUnits="userSpaceOnUse"
       color-interpolation-filters="sRGB">
      <feFlood
         flood-opacity="0"
         result="BackgroundImageFix"
         id="feFlood1187" />
      <feColorMatrix
         in="SourceAlpha"
         type="matrix"
         values="0 0 0 0 0 0 0 0 0 0 0 0 0 0 0 0 0 0 127 0"
         result="hardAlpha"
         id="feColorMatrix1189" />
      <feOffset
         dx="6"
         dy="2"
         id="feOffset1191" />
      <feColorMatrix
         type="matrix"
         values="0 0 0 0 0.952941 0 0 0 0 0.639216 0 0 0 0 0.619608 0 0 0 1 0"
         id="feColorMatrix1193" />
      <feBlend
         mode="normal"
         in2="BackgroundImageFix"
         result="effect1_dropShadow_0_1"
         id="feBlend1195" />
      <feBlend
         mode="normal"
         in="SourceGraphic"
         in2="effect1_dropShadow_0_1"
         result="shape"
         id="feBlend1197" />
    </filter>
  </defs>
  <g
     id="New_Layer_1653412033.8392434"
     style="display:inline"
     transform="translate(-137.314,-1524.3101)">
    <g
       id="g9087">
      <g
         filter="url(#filter37_d_0_1)"
         id="g5625">
        <path
           d="m 201.843,1526.66 c 3.124,-3.13 8.19,-3.13 11.314,0 l 62.186,62.18 c 3.124,3.13 3.124,8.19 0,11.32 l -62.186,62.18 c -3.124,3.13 -8.19,3.13 -11.314,0 l -62.186,-62.18 c -3.124,-3.13 -3.124,-8.19 0,-11.32 z"
           fill="#feebea"
           id="path5621" />
        <path
           d="m 202.197,1527.01 c 2.929,-2.93 7.677,-2.93 10.606,0 l 62.187,62.19 c 2.929,2.93 2.929,7.67 0,10.6 l -62.187,62.19 c -2.929,2.93 -7.677,2.93 -10.606,0 L 140.01,1599.8 c -2.929,-2.93 -2.929,-7.67 0,-10.6 z"
           stroke="#de1306"
           id="path5623" />
      </g>
      <text
         fill="#de1306"
         xml:space="preserve"
         style="white-space:pre"
         font-family="Roboto"
         font-size="16px"
         letter-spacing="0em"
         id="text5629"
         x="179.84399"
         y="1599.97"><tspan
           x="179.84399"
           y="1599.97"
           id="tspan5627">Options</tspan></text>
    </g>
  </g>
</svg>
