<?xml version="1.0" encoding="UTF-8" standalone="no"?>
<svg
   width="144.373"
   height="144.373"
   viewBox="0 0 144.373 144.373"
   fill="none"
   version="1.1"
   id="svg1449"
   xmlns="http://www.w3.org/2000/svg"
   xmlns:svg="http://www.w3.org/2000/svg">
  <defs
     id="defs1447">
    <filter
       id="filter38_d_0_1"
       x="137.314"
       y="1724.3101"
       width="144.373"
       height="144.373"
       filterUnits="userSpaceOnUse"
       color-interpolation-filters="sRGB">
      <feFlood
         flood-opacity="0"
         result="BackgroundImageFix"
         id="feFlood1200" />
      <feColorMatrix
         in="SourceAlpha"
         type="matrix"
         values="0 0 0 0 0 0 0 0 0 0 0 0 0 0 0 0 0 0 127 0"
         result="hardAlpha"
         id="feColorMatrix1202" />
      <feOffset
         dx="4"
         dy="4"
         id="feOffset1204" />
      <feColorMatrix
         type="matrix"
         values="0 0 0 0 0.952941 0 0 0 0 0.639216 0 0 0 0 0.619608 0 0 0 1 0"
         id="feColorMatrix1206" />
      <feBlend
         mode="normal"
         in2="BackgroundImageFix"
         result="effect1_dropShadow_0_1"
         id="feBlend1208" />
      <feBlend
         mode="normal"
         in="SourceGraphic"
         in2="effect1_dropShadow_0_1"
         result="shape"
         id="feBlend1210" />
    </filter>
  </defs>
  <g
     id="New_Layer_1653412033.839644"
     style="display:inline"
     transform="translate(-137.314,-1724.3101)">
    <g
       id="g3461">
      <g
         filter="url(#filter38_d_0_1)"
         id="g5637">
        <path
           d="m 201.843,1726.66 c 3.124,-3.13 8.19,-3.13 11.314,0 l 62.186,62.18 c 3.124,3.13 3.124,8.19 0,11.32 l -62.186,62.18 c -3.124,3.13 -8.19,3.13 -11.314,0 l -62.186,-62.18 c -3.124,-3.13 -3.124,-8.19 0,-11.32 z"
           fill="#ffffff"
           id="path5633" />
        <path
           d="m 204.014,1725.67 c 0.24,-0.13 0.335,-0.42 0.217,-0.66 2.075,-0.93 4.463,-0.93 6.538,0 -0.118,0.24 -0.023,0.53 0.217,0.66 0.653,0.34 1.267,0.79 1.817,1.34 l 1.709,1.71 c 0.195,0.19 0.512,0.19 0.707,0 l 4.76,4.76 c -0.196,0.19 -0.196,0.51 0,0.71 l 3.416,3.41 c 0.196,0.2 0.512,0.2 0.708,0 l 4.759,4.76 c -0.195,0.2 -0.195,0.51 0,0.71 l 3.417,3.42 c 0.195,0.19 0.512,0.19 0.707,0 l 4.76,4.76 c -0.195,0.19 -0.195,0.51 0,0.7 l 3.417,3.42 c 0.195,0.2 0.512,0.2 0.707,0 l 4.76,4.76 c -0.195,0.2 -0.195,0.51 0,0.71 l 3.417,3.41 c 0.195,0.2 0.512,0.2 0.707,0 l 4.76,4.76 c -0.196,0.2 -0.196,0.52 0,0.71 l 3.417,3.42 c 0.195,0.19 0.511,0.19 0.707,0 l 4.759,4.76 c -0.195,0.19 -0.195,0.51 0,0.7 l 3.417,3.42 c 0.196,0.2 0.512,0.2 0.707,0 l 4.76,4.76 c -0.195,0.2 -0.195,0.51 0,0.71 l 1.709,1.71 c 0.55,0.55 0.996,1.16 1.339,1.81 0.126,0.24 0.419,0.34 0.661,0.22 0.928,2.08 0.928,4.46 0,6.54 -0.242,-0.12 -0.535,-0.02 -0.661,0.22 -0.343,0.65 -0.789,1.26 -1.339,1.81 l -1.709,1.71 c -0.195,0.2 -0.195,0.51 0,0.71 l -4.76,4.76 c -0.195,-0.2 -0.511,-0.2 -0.707,0 l -3.417,3.42 c -0.195,0.19 -0.195,0.51 0,0.7 l -4.759,4.76 c -0.196,-0.19 -0.512,-0.19 -0.707,0 l -3.417,3.42 c -0.196,0.19 -0.196,0.51 0,0.71 l -4.76,4.76 c -0.195,-0.2 -0.512,-0.2 -0.707,0 l -3.417,3.41 c -0.195,0.2 -0.195,0.51 0,0.71 l -4.76,4.76 c -0.195,-0.2 -0.512,-0.2 -0.707,0 l -3.417,3.42 c -0.195,0.19 -0.195,0.51 0,0.7 l -4.76,4.76 c -0.195,-0.19 -0.512,-0.19 -0.707,0 l -3.417,3.42 c -0.195,0.2 -0.195,0.51 0,0.71 l -4.759,4.76 c -0.196,-0.2 -0.512,-0.2 -0.708,0 l -3.416,3.41 c -0.196,0.2 -0.196,0.52 0,0.71 l -4.76,4.76 c -0.195,-0.19 -0.512,-0.19 -0.707,0 l -1.709,1.71 c -0.55,0.55 -1.164,1 -1.817,1.34 -0.24,0.13 -0.335,0.42 -0.217,0.66 -2.075,0.93 -4.463,0.93 -6.538,0 0.118,-0.24 0.023,-0.53 -0.217,-0.66 -0.653,-0.34 -1.267,-0.79 -1.817,-1.34 l -1.709,-1.71 c -0.195,-0.19 -0.512,-0.19 -0.707,0 l -4.76,-4.76 c 0.196,-0.19 0.196,-0.51 0,-0.71 l -3.416,-3.41 c -0.196,-0.2 -0.512,-0.2 -0.708,0 l -4.759,-4.76 c 0.195,-0.2 0.195,-0.51 0,-0.71 l -3.417,-3.42 c -0.195,-0.19 -0.512,-0.19 -0.707,0 l -4.76,-4.76 c 0.195,-0.19 0.195,-0.51 0,-0.7 l -3.417,-3.42 c -0.195,-0.2 -0.512,-0.2 -0.707,0 l -4.76,-4.76 c 0.195,-0.2 0.195,-0.51 0,-0.71 l -3.417,-3.41 c -0.195,-0.2 -0.512,-0.2 -0.707,0 l -4.76,-4.76 c 0.196,-0.2 0.196,-0.52 0,-0.71 l -3.417,-3.42 c -0.195,-0.19 -0.511,-0.19 -0.707,0 l -4.759,-4.76 c 0.195,-0.19 0.195,-0.51 0,-0.7 l -3.417,-3.42 c -0.196,-0.2 -0.512,-0.2 -0.707,0 l -4.76,-4.76 c 0.195,-0.2 0.195,-0.51 0,-0.71 l -1.709,-1.71 c -0.55,-0.55 -0.996,-1.16 -1.339,-1.81 -0.126,-0.24 -0.419,-0.34 -0.661,-0.22 -0.928,-2.08 -0.928,-4.46 0,-6.54 0.242,0.12 0.535,0.02 0.661,-0.22 0.343,-0.65 0.789,-1.26 1.339,-1.81 l 1.709,-1.71 c 0.195,-0.2 0.195,-0.51 0,-0.71 l 4.76,-4.76 c 0.195,0.2 0.511,0.2 0.707,0 l 3.417,-3.42 c 0.195,-0.19 0.195,-0.51 0,-0.7 l 4.759,-4.76 c 0.196,0.19 0.512,0.19 0.708,0 l 3.416,-3.42 c 0.196,-0.19 0.196,-0.51 0,-0.71 l 4.76,-4.76 c 0.195,0.2 0.512,0.2 0.707,0 l 3.417,-3.41 c 0.195,-0.2 0.195,-0.51 0,-0.71 l 4.76,-4.76 c 0.195,0.2 0.512,0.2 0.707,0 l 3.417,-3.42 c 0.195,-0.19 0.195,-0.51 0,-0.7 l 4.76,-4.76 c 0.195,0.19 0.512,0.19 0.707,0 l 3.417,-3.42 c 0.195,-0.2 0.195,-0.51 0,-0.71 l 4.759,-4.76 c 0.196,0.2 0.512,0.2 0.708,0 l 3.416,-3.41 c 0.196,-0.2 0.196,-0.52 0,-0.71 l 4.76,-4.76 c 0.195,0.19 0.512,0.19 0.707,0 l 1.709,-1.71 c 0.55,-0.55 1.164,-1 1.817,-1.34 z"
           stroke="#de1306"
           stroke-linecap="round"
           stroke-linejoin="round"
           stroke-dasharray="5, 8"
           id="path5635" />
      </g>
      <text
         fill="#de1306"
         xml:space="preserve"
         style="white-space:pre"
         font-family="Roboto"
         font-size="16px"
         letter-spacing="0em"
         id="text5641"
         x="179.517"
         y="1800.1899"><tspan
           x="179.517"
           y="1800.1899"
           id="tspan5639">Options</tspan></text>
    </g>
  </g>
</svg>
