<?xml version="1.0" encoding="UTF-8" standalone="no"?>
<svg
   width="144.373"
   height="144.373"
   viewBox="0 0 144.373 144.373"
   fill="none"
   version="1.1"
   id="svg1449"
   xmlns="http://www.w3.org/2000/svg"
   xmlns:svg="http://www.w3.org/2000/svg">
  <defs
     id="defs1447">
    <filter
       id="filter41_d_0_1"
       x="650.31403"
       y="1524.3101"
       width="144.373"
       height="144.373"
       filterUnits="userSpaceOnUse"
       color-interpolation-filters="sRGB">
      <feFlood
         flood-opacity="0"
         result="BackgroundImageFix"
         id="feFlood1239" />
      <feColorMatrix
         in="SourceAlpha"
         type="matrix"
         values="0 0 0 0 0 0 0 0 0 0 0 0 0 0 0 0 0 0 127 0"
         result="hardAlpha"
         id="feColorMatrix1241" />
      <feOffset
         dx="4"
         dy="4"
         id="feOffset1243" />
      <feColorMatrix
         type="matrix"
         values="0 0 0 0 0.513733 0 0 0 0 0.767915 0 0 0 0 0.970833 0 0 0 1 0"
         id="feColorMatrix1245" />
      <feBlend
         mode="normal"
         in2="BackgroundImageFix"
         result="effect1_dropShadow_0_1"
         id="feBlend1247" />
      <feBlend
         mode="normal"
         in="SourceGraphic"
         in2="effect1_dropShadow_0_1"
         result="shape"
         id="feBlend1249" />
    </filter>
  </defs>
  <g
     id="New_Layer_1653412033.8408651"
     style="display:inline"
     transform="translate(-650.31403,-1524.3101)">
    <g
       id="g7197">
      <g
         filter="url(#filter41_d_0_1)"
         id="g5674">
        <path
           d="m 714.843,1526.66 c 3.124,-3.13 8.19,-3.13 11.314,0 l 62.186,62.18 c 3.124,3.13 3.124,8.19 0,11.32 l -62.186,62.18 c -3.124,3.13 -8.19,3.13 -11.314,0 l -62.186,-62.18 c -3.124,-3.13 -3.124,-8.19 0,-11.32 z"
           fill="#e7f4ff"
           id="path5670" />
        <path
           d="m 715.197,1527.01 c 2.929,-2.93 7.677,-2.93 10.606,0 l 62.187,62.19 c 2.929,2.93 2.929,7.67 0,10.6 l -62.187,62.19 c -2.929,2.93 -7.677,2.93 -10.606,0 L 653.01,1599.8 c -2.929,-2.93 -2.929,-7.67 0,-10.6 z"
           stroke="#2097f6"
           id="path5672" />
      </g>
      <text
         fill="#2097f6"
         xml:space="preserve"
         style="white-space:pre"
         font-family="Roboto"
         font-size="16px"
         letter-spacing="0em"
         id="text5678"
         x="692.51703"
         y="1600.1899"><tspan
           x="692.51703"
           y="1600.1899"
           id="tspan5676">Options</tspan></text>
    </g>
  </g>
</svg>
