<?xml version="1.0" encoding="UTF-8" standalone="no"?>
<svg
   width="144.373"
   height="144.373"
   viewBox="0 0 144.373 144.373"
   fill="none"
   version="1.1"
   id="svg1449"
   xmlns="http://www.w3.org/2000/svg"
   xmlns:svg="http://www.w3.org/2000/svg">
  <defs
     id="defs1447">
    <filter
       id="filter43_d_0_1"
       x="906.31403"
       y="1527.3101"
       width="144.373"
       height="144.373"
       filterUnits="userSpaceOnUse"
       color-interpolation-filters="sRGB">
      <feFlood
         flood-opacity="0"
         result="BackgroundImageFix"
         id="feFlood1265" />
      <feColorMatrix
         in="SourceAlpha"
         type="matrix"
         values="0 0 0 0 0 0 0 0 0 0 0 0 0 0 0 0 0 0 127 0"
         result="hardAlpha"
         id="feColorMatrix1267" />
      <feOffset
         dx="4"
         dy="4"
         id="feOffset1269" />
      <feColorMatrix
         type="matrix"
         values="0 0 0 0 0.674908 0 0 0 0 0.662083 0 0 0 0 0.945833 0 0 0 1 0"
         id="feColorMatrix1271" />
      <feBlend
         mode="normal"
         in2="BackgroundImageFix"
         result="effect1_dropShadow_0_1"
         id="feBlend1273" />
      <feBlend
         mode="normal"
         in="SourceGraphic"
         in2="effect1_dropShadow_0_1"
         result="shape"
         id="feBlend1275" />
    </filter>
  </defs>
  <g
     id="New_Layer_1653412033.8416631"
     style="display:inline"
     transform="translate(-906.31403,-1527.3101)">
    <g
       id="g1237">
      <g
         filter="url(#filter43_d_0_1)"
         id="g5698">
        <path
           d="m 970.843,1529.66 c 3.124,-3.13 8.19,-3.13 11.314,0 l 62.183,62.18 c 3.13,3.13 3.13,8.19 0,11.32 l -62.183,62.18 c -3.124,3.13 -8.19,3.13 -11.314,0 l -62.186,-62.18 c -3.124,-3.13 -3.124,-8.19 0,-11.32 z"
           fill="#eeeeff"
           id="path5694" />
        <path
           d="m 971.197,1530.01 c 2.929,-2.93 7.677,-2.93 10.606,0 l 62.187,62.19 c 2.93,2.93 2.93,7.67 0,10.6 l -62.187,62.19 c -2.929,2.93 -7.677,2.93 -10.606,0 L 909.01,1602.8 c -2.929,-2.93 -2.929,-7.67 0,-10.6 z"
           stroke="#5452f6"
           id="path5696" />
      </g>
      <text
         fill="#5452f6"
         xml:space="preserve"
         style="white-space:pre"
         font-family="Roboto"
         font-size="16px"
         letter-spacing="0em"
         id="text5702"
         x="948.51703"
         y="1603.1899"><tspan
           x="948.51703"
           y="1603.1899"
           id="tspan5700">Options</tspan></text>
    </g>
  </g>
</svg>
