<?xml version="1.0" encoding="UTF-8" standalone="no"?>
<svg
   width="144.373"
   height="144.373"
   viewBox="0 0 144.373 144.373"
   fill="none"
   version="1.1"
   id="svg1449"
   xmlns="http://www.w3.org/2000/svg"
   xmlns:svg="http://www.w3.org/2000/svg">
  <defs
     id="defs1447">
    <filter
       id="filter44_d_0_1"
       x="906.31403"
       y="1727.3101"
       width="144.373"
       height="144.373"
       filterUnits="userSpaceOnUse"
       color-interpolation-filters="sRGB">
      <feFlood
         flood-opacity="0"
         result="BackgroundImageFix"
         id="feFlood1278" />
      <feColorMatrix
         in="SourceAlpha"
         type="matrix"
         values="0 0 0 0 0 0 0 0 0 0 0 0 0 0 0 0 0 0 127 0"
         result="hardAlpha"
         id="feColorMatrix1280" />
      <feOffset
         dx="4"
         dy="4"
         id="feOffset1282" />
      <feColorMatrix
         type="matrix"
         values="0 0 0 0 0.674908 0 0 0 0 0.662083 0 0 0 0 0.945833 0 0 0 1 0"
         id="feColorMatrix1284" />
      <feBlend
         mode="normal"
         in2="BackgroundImageFix"
         result="effect1_dropShadow_0_1"
         id="feBlend1286" />
      <feBlend
         mode="normal"
         in="SourceGraphic"
         in2="effect1_dropShadow_0_1"
         result="shape"
         id="feBlend1288" />
    </filter>
  </defs>
  <g
     id="New_Layer_1653412033.8420546"
     style="display:inline"
     transform="translate(-906.31403,-1727.3101)">
    <g
       id="g455">
      <g
         filter="url(#filter44_d_0_1)"
         id="g5710">
        <path
           d="m 970.843,1729.66 c 3.124,-3.13 8.19,-3.13 11.314,0 l 62.183,62.18 c 3.13,3.13 3.13,8.19 0,11.32 l -62.183,62.18 c -3.124,3.13 -8.19,3.13 -11.314,0 l -62.186,-62.18 c -3.124,-3.13 -3.124,-8.19 0,-11.32 z"
           fill="#ffffff"
           id="path5706" />
        <path
           d="m 973.014,1728.67 c 0.24,-0.13 0.335,-0.42 0.217,-0.66 2.075,-0.93 4.463,-0.93 6.538,0 -0.118,0.24 -0.023,0.53 0.217,0.66 0.653,0.34 1.267,0.79 1.817,1.34 l 1.709,1.71 c 0.195,0.19 0.512,0.19 0.707,0 l 4.76,4.76 c -0.196,0.19 -0.196,0.51 0,0.71 l 3.416,3.41 c 0.196,0.2 0.512,0.2 0.708,0 l 4.759,4.76 c -0.195,0.2 -0.195,0.51 0,0.71 l 3.418,3.42 c 0.19,0.19 0.51,0.19 0.71,0 l 4.76,4.76 c -0.2,0.19 -0.2,0.51 0,0.7 l 3.41,3.42 c 0.2,0.2 0.51,0.2 0.71,0 l 4.76,4.76 c -0.2,0.2 -0.2,0.51 0,0.71 l 3.42,3.41 c 0.19,0.2 0.51,0.2 0.7,0 l 4.76,4.76 c -0.19,0.2 -0.19,0.52 0,0.71 l 3.42,3.42 c 0.2,0.19 0.51,0.19 0.71,0 l 4.76,4.76 c -0.2,0.19 -0.2,0.51 0,0.7 l 3.41,3.42 c 0.2,0.2 0.52,0.2 0.71,0 l 4.76,4.76 c -0.19,0.2 -0.19,0.51 0,0.71 l 1.71,1.71 c 0.55,0.55 1,1.16 1.34,1.81 0.13,0.24 0.42,0.34 0.66,0.22 0.93,2.08 0.93,4.46 0,6.54 -0.24,-0.12 -0.53,-0.02 -0.66,0.22 -0.34,0.65 -0.79,1.26 -1.34,1.81 l -1.71,1.71 c -0.19,0.2 -0.19,0.51 0,0.71 l -4.76,4.76 c -0.19,-0.2 -0.51,-0.2 -0.71,0 l -3.41,3.42 c -0.2,0.19 -0.2,0.51 0,0.7 l -4.76,4.76 c -0.2,-0.19 -0.51,-0.19 -0.71,0 l -3.42,3.42 c -0.19,0.19 -0.19,0.51 0,0.71 l -4.76,4.76 c -0.19,-0.2 -0.51,-0.2 -0.7,0 l -3.42,3.41 c -0.2,0.2 -0.2,0.51 0,0.71 l -4.76,4.76 c -0.2,-0.2 -0.51,-0.2 -0.71,0 l -3.41,3.42 c -0.2,0.19 -0.2,0.51 0,0.7 l -4.76,4.76 c -0.2,-0.19 -0.52,-0.19 -0.71,0 l -3.418,3.42 c -0.195,0.2 -0.195,0.51 0,0.71 l -4.759,4.76 c -0.196,-0.2 -0.512,-0.2 -0.708,0 l -3.416,3.41 c -0.196,0.2 -0.196,0.52 0,0.71 l -4.76,4.76 c -0.195,-0.19 -0.512,-0.19 -0.707,0 l -1.709,1.71 c -0.55,0.55 -1.164,1 -1.817,1.34 -0.24,0.13 -0.335,0.42 -0.217,0.66 -2.075,0.93 -4.463,0.93 -6.538,0 0.118,-0.24 0.023,-0.53 -0.217,-0.66 -0.653,-0.34 -1.267,-0.79 -1.817,-1.34 l -1.709,-1.71 c -0.195,-0.19 -0.512,-0.19 -0.707,0 l -4.76,-4.76 c 0.196,-0.19 0.196,-0.51 0,-0.71 l -3.416,-3.41 c -0.196,-0.2 -0.512,-0.2 -0.708,0 l -4.759,-4.76 c 0.195,-0.2 0.195,-0.51 0,-0.71 l -3.417,-3.42 c -0.195,-0.19 -0.512,-0.19 -0.707,0 l -4.76,-4.76 c 0.195,-0.19 0.195,-0.51 0,-0.7 l -3.417,-3.42 c -0.195,-0.2 -0.512,-0.2 -0.707,0 l -4.76,-4.76 c 0.195,-0.2 0.195,-0.51 0,-0.71 l -3.417,-3.41 c -0.195,-0.2 -0.512,-0.2 -0.707,0 l -4.76,-4.76 c 0.196,-0.2 0.196,-0.52 0,-0.71 l -3.417,-3.42 c -0.195,-0.19 -0.511,-0.19 -0.707,0 l -4.759,-4.76 c 0.195,-0.19 0.195,-0.51 0,-0.7 l -3.417,-3.42 c -0.196,-0.2 -0.512,-0.2 -0.707,0 l -4.76,-4.76 c 0.195,-0.2 0.195,-0.51 0,-0.71 l -1.709,-1.71 c -0.55,-0.55 -0.996,-1.16 -1.339,-1.81 -0.126,-0.24 -0.419,-0.34 -0.661,-0.22 -0.928,-2.08 -0.928,-4.46 0,-6.54 0.242,0.12 0.535,0.02 0.661,-0.22 0.343,-0.65 0.789,-1.26 1.339,-1.81 l 1.709,-1.71 c 0.195,-0.2 0.195,-0.51 0,-0.71 l 4.76,-4.76 c 0.195,0.2 0.511,0.2 0.707,0 l 3.417,-3.42 c 0.195,-0.19 0.195,-0.51 0,-0.7 l 4.759,-4.76 c 0.196,0.19 0.512,0.19 0.708,0 l 3.416,-3.42 c 0.196,-0.19 0.196,-0.51 0,-0.71 l 4.76,-4.76 c 0.195,0.2 0.512,0.2 0.707,0 l 3.417,-3.41 c 0.195,-0.2 0.195,-0.51 0,-0.71 l 4.76,-4.76 c 0.195,0.2 0.512,0.2 0.707,0 l 3.417,-3.42 c 0.195,-0.19 0.195,-0.51 0,-0.7 l 4.76,-4.76 c 0.195,0.19 0.512,0.19 0.707,0 l 3.417,-3.42 c 0.195,-0.2 0.195,-0.51 0,-0.71 l 4.759,-4.76 c 0.196,0.2 0.512,0.2 0.708,0 l 3.416,-3.41 c 0.196,-0.2 0.196,-0.52 0,-0.71 l 4.76,-4.76 c 0.195,0.19 0.512,0.19 0.707,0 l 1.709,-1.71 c 0.55,-0.55 1.164,-1 1.817,-1.34 z"
           stroke="#5452f6"
           stroke-linecap="round"
           stroke-linejoin="round"
           stroke-dasharray="5, 8"
           id="path5708" />
      </g>
      <text
         fill="#5452f6"
         xml:space="preserve"
         style="white-space:pre"
         font-family="Roboto"
         font-size="16px"
         letter-spacing="0em"
         id="text5714"
         x="948.51703"
         y="1803.1899"><tspan
           x="948.51703"
           y="1803.1899"
           id="tspan5712">Options</tspan></text>
    </g>
  </g>
</svg>
