<?xml version="1.0" encoding="UTF-8" standalone="no"?>
<svg
   width="144.373"
   height="144.373"
   viewBox="0 0 144.373 144.373"
   fill="none"
   version="1.1"
   id="svg1449"
   xmlns="http://www.w3.org/2000/svg"
   xmlns:svg="http://www.w3.org/2000/svg">
  <defs
     id="defs1447">
    <filter
       id="filter46_d_0_1"
       x="1162.3101"
       y="1727.3101"
       width="144.373"
       height="144.373"
       filterUnits="userSpaceOnUse"
       color-interpolation-filters="sRGB">
      <feFlood
         flood-opacity="0"
         result="BackgroundImageFix"
         id="feFlood1304" />
      <feColorMatrix
         in="SourceAlpha"
         type="matrix"
         values="0 0 0 0 0 0 0 0 0 0 0 0 0 0 0 0 0 0 127 0"
         result="hardAlpha"
         id="feColorMatrix1306" />
      <feOffset
         dx="4"
         dy="4"
         id="feOffset1308" />
      <feColorMatrix
         type="matrix"
         values="0 0 0 0 0.578021 0 0 0 0 0.775 0 0 0 0 0.608662 0 0 0 1 0"
         id="feColorMatrix1310" />
      <feBlend
         mode="normal"
         in2="BackgroundImageFix"
         result="effect1_dropShadow_0_1"
         id="feBlend1312" />
      <feBlend
         mode="normal"
         in="SourceGraphic"
         in2="effect1_dropShadow_0_1"
         result="shape"
         id="feBlend1314" />
    </filter>
  </defs>
  <g
     id="New_Layer_1653412033.8428571"
     style="display:inline"
     transform="translate(-1162.3101,-1727.3101)">
    <g
       id="g2602">
      <g
         filter="url(#filter46_d_0_1)"
         id="g5734">
        <path
           d="m 1226.84,1729.66 c 3.13,-3.13 8.19,-3.13 11.32,0 l 62.18,62.18 c 3.13,3.13 3.13,8.19 0,11.32 l -62.18,62.18 c -3.13,3.13 -8.19,3.13 -11.32,0 l -62.18,-62.18 c -3.13,-3.13 -3.13,-8.19 0,-11.32 z"
           fill="#ffffff"
           id="path5730" />
        <path
           d="m 1229.01,1728.67 c 0.24,-0.13 0.34,-0.42 0.22,-0.66 2.08,-0.93 4.46,-0.93 6.54,0 -0.12,0.24 -0.02,0.53 0.22,0.66 0.65,0.34 1.26,0.79 1.81,1.34 l 1.71,1.71 c 0.2,0.19 0.51,0.19 0.71,0 l 4.76,4.76 c -0.2,0.19 -0.2,0.51 0,0.71 l 3.42,3.41 c 0.19,0.2 0.51,0.2 0.7,0 l 4.76,4.76 c -0.19,0.2 -0.19,0.51 0,0.71 l 3.42,3.42 c 0.19,0.19 0.51,0.19 0.71,0 l 4.76,4.76 c -0.2,0.19 -0.2,0.51 0,0.7 l 3.41,3.42 c 0.2,0.2 0.51,0.2 0.71,0 l 4.76,4.76 c -0.2,0.2 -0.2,0.51 0,0.71 l 3.42,3.41 c 0.19,0.2 0.51,0.2 0.7,0 l 4.76,4.76 c -0.19,0.2 -0.19,0.52 0,0.71 l 3.42,3.42 c 0.2,0.19 0.51,0.19 0.71,0 l 4.76,4.76 c -0.2,0.19 -0.2,0.51 0,0.7 l 3.41,3.42 c 0.2,0.2 0.52,0.2 0.71,0 l 4.76,4.76 c -0.19,0.2 -0.19,0.51 0,0.71 l 1.71,1.71 c 0.55,0.55 1,1.16 1.34,1.81 0.13,0.24 0.42,0.34 0.66,0.22 0.93,2.08 0.93,4.46 0,6.54 -0.24,-0.12 -0.53,-0.02 -0.66,0.22 -0.34,0.65 -0.79,1.26 -1.34,1.81 l -1.71,1.71 c -0.19,0.2 -0.19,0.51 0,0.71 l -4.76,4.76 c -0.19,-0.2 -0.51,-0.2 -0.71,0 l -3.41,3.42 c -0.2,0.19 -0.2,0.51 0,0.7 l -4.76,4.76 c -0.2,-0.19 -0.51,-0.19 -0.71,0 l -3.42,3.42 c -0.19,0.19 -0.19,0.51 0,0.71 l -4.76,4.76 c -0.19,-0.2 -0.51,-0.2 -0.7,0 l -3.42,3.41 c -0.2,0.2 -0.2,0.51 0,0.71 l -4.76,4.76 c -0.2,-0.2 -0.51,-0.2 -0.71,0 l -3.41,3.42 c -0.2,0.19 -0.2,0.51 0,0.7 l -4.76,4.76 c -0.2,-0.19 -0.52,-0.19 -0.71,0 l -3.42,3.42 c -0.19,0.2 -0.19,0.51 0,0.71 l -4.76,4.76 c -0.19,-0.2 -0.51,-0.2 -0.7,0 l -3.42,3.41 c -0.2,0.2 -0.2,0.52 0,0.71 l -4.76,4.76 c -0.2,-0.19 -0.51,-0.19 -0.71,0 l -1.71,1.71 c -0.55,0.55 -1.16,1 -1.81,1.34 -0.24,0.13 -0.34,0.42 -0.22,0.66 -2.08,0.93 -4.46,0.93 -6.54,0 0.12,-0.24 0.02,-0.53 -0.22,-0.66 -0.65,-0.34 -1.26,-0.79 -1.81,-1.34 l -1.71,-1.71 c -0.2,-0.19 -0.51,-0.19 -0.71,0 l -4.76,-4.76 c 0.2,-0.19 0.2,-0.51 0,-0.71 l -3.42,-3.41 c -0.19,-0.2 -0.51,-0.2 -0.7,0 l -4.76,-4.76 c 0.19,-0.2 0.19,-0.51 0,-0.71 l -3.42,-3.42 c -0.19,-0.19 -0.51,-0.19 -0.71,0 l -4.76,-4.76 c 0.2,-0.19 0.2,-0.51 0,-0.7 l -3.41,-3.42 c -0.2,-0.2 -0.51,-0.2 -0.71,0 l -4.76,-4.76 c 0.2,-0.2 0.2,-0.51 0,-0.71 l -3.42,-3.41 c -0.19,-0.2 -0.51,-0.2 -0.7,0 l -4.76,-4.76 c 0.19,-0.2 0.19,-0.52 0,-0.71 l -3.42,-3.42 c -0.2,-0.19 -0.51,-0.19 -0.71,0 l -4.76,-4.76 c 0.2,-0.19 0.2,-0.51 0,-0.7 l -3.41,-3.42 c -0.2,-0.2 -0.52,-0.2 -0.71,0 l -4.76,-4.76 c 0.19,-0.2 0.19,-0.51 0,-0.71 l -1.71,-1.71 c -0.55,-0.55 -1,-1.16 -1.34,-1.81 -0.13,-0.24 -0.42,-0.34 -0.66,-0.22 -0.93,-2.08 -0.93,-4.46 0,-6.54 0.24,0.12 0.53,0.02 0.66,-0.22 0.34,-0.65 0.79,-1.26 1.34,-1.81 l 1.71,-1.71 c 0.19,-0.2 0.19,-0.51 0,-0.71 l 4.76,-4.76 c 0.19,0.2 0.51,0.2 0.71,0 l 3.41,-3.42 c 0.2,-0.19 0.2,-0.51 0,-0.7 l 4.76,-4.76 c 0.2,0.19 0.51,0.19 0.71,0 l 3.42,-3.42 c 0.19,-0.19 0.19,-0.51 0,-0.71 l 4.76,-4.76 c 0.19,0.2 0.51,0.2 0.7,0 l 3.42,-3.41 c 0.2,-0.2 0.2,-0.51 0,-0.71 l 4.76,-4.76 c 0.2,0.2 0.51,0.2 0.71,0 l 3.41,-3.42 c 0.2,-0.19 0.2,-0.51 0,-0.7 l 4.76,-4.76 c 0.2,0.19 0.52,0.19 0.71,0 l 3.42,-3.42 c 0.19,-0.2 0.19,-0.51 0,-0.71 l 4.76,-4.76 c 0.19,0.2 0.51,0.2 0.7,0 l 3.42,-3.41 c 0.2,-0.2 0.2,-0.52 0,-0.71 l 4.76,-4.76 c 0.2,0.19 0.51,0.19 0.71,0 l 1.71,-1.71 c 0.55,-0.55 1.16,-1 1.81,-1.34 z"
           stroke="#65bf73"
           stroke-linecap="round"
           stroke-linejoin="round"
           stroke-dasharray="5, 8"
           id="path5732" />
      </g>
      <text
         fill="#65bf73"
         xml:space="preserve"
         style="white-space:pre"
         font-family="Roboto"
         font-size="16px"
         letter-spacing="0em"
         id="text5738"
         x="1204.52"
         y="1803.1899"><tspan
           x="1204.52"
           y="1803.1899"
           id="tspan5736">Options</tspan></text>
    </g>
  </g>
</svg>
