<?xml version="1.0" encoding="UTF-8" standalone="no"?>
<svg
   width="107"
   height="44"
   viewBox="0 0 107 44"
   fill="none"
   version="1.1"
   id="svg1449"
   xmlns="http://www.w3.org/2000/svg"
   xmlns:svg="http://www.w3.org/2000/svg">
  <defs
     id="defs1447">
    <filter
       id="filter52_d_0_1"
       x="669"
       y="2147"
       width="107"
       height="44"
       filterUnits="userSpaceOnUse"
       color-interpolation-filters="sRGB">
      <feFlood
         flood-opacity="0"
         result="BackgroundImageFix"
         id="feFlood1382" />
      <feColorMatrix
         in="SourceAlpha"
         type="matrix"
         values="0 0 0 0 0 0 0 0 0 0 0 0 0 0 0 0 0 0 127 0"
         result="hardAlpha"
         id="feColorMatrix1384" />
      <feOffset
         dx="4"
         dy="4"
         id="feOffset1386" />
      <feColorMatrix
         type="matrix"
         values="0 0 0 0 0.513733 0 0 0 0 0.767915 0 0 0 0 0.970833 0 0 0 1 0"
         id="feColorMatrix1388" />
      <feBlend
         mode="normal"
         in2="BackgroundImageFix"
         result="effect1_dropShadow_0_1"
         id="feBlend1390" />
      <feBlend
         mode="normal"
         in="SourceGraphic"
         in2="effect1_dropShadow_0_1"
         result="shape"
         id="feBlend1392" />
    </filter>
  </defs>
  <g
     id="New_Layer_1653412033.8452756"
     style="display:inline"
     transform="translate(-669,-2147)">
    <g
       filter="url(#filter52_d_0_1)"
       id="g1776">
      <path
         d="m 669,2167 c 0,-11.05 8.954,-20 20,-20 h 63 c 11.046,0 20,8.95 20,20 0,11.05 -8.954,20 -20,20 h -63 c -11.046,0 -20,-8.95 -20,-20 z"
         fill="#ffffff"
         id="path5792" />
      <text
         fill="#2097f6"
         xml:space="preserve"
         style="white-space:pre"
         font-family="Roboto"
         font-size="14px"
         font-weight="500"
         letter-spacing="0em"
         id="text5796"
         x="703.43103"
         y="2171.79"><tspan
           x="703.43103"
           y="2171.79"
           id="tspan5794">Label</tspan></text>
      <path
         d="m 669.5,2167 c 0,-0.28 -0.224,-0.5 -0.5,-0.5 -0.276,0 -0.5,0.22 -0.5,0.5 z m 103,0 c 0,-0.28 -0.224,-0.5 -0.5,-0.5 -0.276,0 -0.5,0.22 -0.5,0.5 z m -1,0 c 0,0.28 0.224,0.5 0.5,0.5 0.276,0 0.5,-0.22 0.5,-0.5 z m -103,0 c 0,0.28 0.224,0.5 0.5,0.5 0.276,0 0.5,-0.22 0.5,-0.5 z m 17.564,19.28 c -0.273,-0.04 -0.527,0.15 -0.569,0.42 -0.041,0.27 0.147,0.53 0.42,0.57 z m -9.214,-2.77 c 0.222,0.17 0.535,0.12 0.699,-0.1 0.164,-0.23 0.116,-0.54 -0.106,-0.7 z m -3.558,-4.95 c -0.164,-0.23 -0.477,-0.27 -0.699,-0.11 -0.222,0.17 -0.27,0.48 -0.106,0.7 z m -4.561,-8.48 c 0.041,0.28 0.296,0.47 0.569,0.42 0.273,-0.04 0.461,-0.29 0.419,-0.56 z m 0.988,-6.02 c 0.042,-0.27 -0.146,-0.52 -0.419,-0.56 -0.273,-0.05 -0.528,0.14 -0.569,0.42 z m 2.768,-9.21 c -0.164,0.22 -0.116,0.53 0.106,0.7 0.222,0.16 0.535,0.12 0.699,-0.11 z m 4.956,-3.56 c 0.222,-0.16 0.27,-0.47 0.106,-0.7 -0.164,-0.22 -0.477,-0.27 -0.699,-0.1 z m 8.472,-4.56 c -0.273,0.04 -0.461,0.3 -0.42,0.57 0.042,0.27 0.296,0.46 0.569,0.42 z m 5.508,0.77 c 0.276,0 0.5,-0.22 0.5,-0.5 0,-0.28 -0.224,-0.5 -0.5,-0.5 z m 7.754,-1 c -0.276,0 -0.5,0.22 -0.5,0.5 0,0.28 0.224,0.5 0.5,0.5 z m 4.846,1 c 0.276,0 0.5,-0.22 0.5,-0.5 0,-0.28 -0.224,-0.5 -0.5,-0.5 z m 7.754,-1 c -0.276,0 -0.5,0.22 -0.5,0.5 0,0.28 0.224,0.5 0.5,0.5 z m 4.846,1 c 0.276,0 0.5,-0.22 0.5,-0.5 0,-0.28 -0.224,-0.5 -0.5,-0.5 z m 7.754,-1 c -0.276,0 -0.5,0.22 -0.5,0.5 0,0.28 0.224,0.5 0.5,0.5 z m 4.846,1 c 0.276,0 0.5,-0.22 0.5,-0.5 0,-0.28 -0.224,-0.5 -0.5,-0.5 z m 7.754,-1 c -0.276,0 -0.5,0.22 -0.5,0.5 0,0.28 0.224,0.5 0.5,0.5 z m 4.846,1 c 0.276,0 0.5,-0.22 0.5,-0.5 0,-0.28 -0.224,-0.5 -0.5,-0.5 z m 7.754,-1 c -0.276,0 -0.5,0.22 -0.5,0.5 0,0.28 0.224,0.5 0.5,0.5 z m 5.359,1.22 c 0.273,0.04 0.527,-0.15 0.569,-0.42 0.041,-0.27 -0.147,-0.53 -0.42,-0.57 z m 9.214,2.77 c -0.222,-0.17 -0.535,-0.12 -0.699,0.1 -0.164,0.23 -0.116,0.54 0.106,0.7 z m 3.558,4.95 c 0.164,0.23 0.477,0.27 0.699,0.11 0.222,-0.17 0.27,-0.48 0.106,-0.7 z m 4.561,8.48 c -0.041,-0.28 -0.296,-0.47 -0.569,-0.42 -0.273,0.04 -0.461,0.29 -0.419,0.56 z m -0.988,6.02 c -0.042,0.27 0.146,0.52 0.419,0.56 0.273,0.05 0.528,-0.14 0.569,-0.42 z m -2.768,9.21 c 0.164,-0.22 0.116,-0.53 -0.106,-0.7 -0.222,-0.16 -0.535,-0.12 -0.699,0.11 z m -4.956,3.56 c -0.222,0.16 -0.27,0.47 -0.106,0.7 0.164,0.22 0.477,0.27 0.699,0.1 z m -8.472,4.56 c 0.273,-0.04 0.461,-0.3 0.42,-0.57 -0.042,-0.27 -0.296,-0.46 -0.569,-0.42 z m -5.508,-0.77 c -0.276,0 -0.5,0.22 -0.5,0.5 0,0.28 0.224,0.5 0.5,0.5 z m -7.754,1 c 0.276,0 0.5,-0.22 0.5,-0.5 0,-0.28 -0.224,-0.5 -0.5,-0.5 z m -4.846,-1 c -0.276,0 -0.5,0.22 -0.5,0.5 0,0.28 0.224,0.5 0.5,0.5 z m -7.754,1 c 0.276,0 0.5,-0.22 0.5,-0.5 0,-0.28 -0.224,-0.5 -0.5,-0.5 z m -4.846,-1 c -0.276,0 -0.5,0.22 -0.5,0.5 0,0.28 0.224,0.5 0.5,0.5 z m -7.754,1 c 0.276,0 0.5,-0.22 0.5,-0.5 0,-0.28 -0.224,-0.5 -0.5,-0.5 z m -4.846,-1 c -0.276,0 -0.5,0.22 -0.5,0.5 0,0.28 0.224,0.5 0.5,0.5 z m -7.754,1 c 0.276,0 0.5,-0.22 0.5,-0.5 0,-0.28 -0.224,-0.5 -0.5,-0.5 z m -4.846,-1 c -0.276,0 -0.5,0.22 -0.5,0.5 0,0.28 0.224,0.5 0.5,0.5 z m -7.754,1 c 0.276,0 0.5,-0.22 0.5,-0.5 0,-0.28 -0.224,-0.5 -0.5,-0.5 z m -2.423,-1 c -0.998,0 -1.978,-0.07 -2.936,-0.22 l -0.149,0.99 c 1.007,0.15 2.037,0.23 3.085,0.23 z m -11.557,-3.79 c -1.583,-1.17 -2.984,-2.57 -4.151,-4.15 l -0.805,0.59 c 1.227,1.66 2.699,3.14 4.363,4.36 z m -7.724,-12.77 C 669.575,2168.98 669.5,2168 669.5,2167 h -1 c 0,1.05 0.079,2.08 0.231,3.08 z M 669.5,2167 c 0,-1 0.075,-1.98 0.219,-2.94 l -0.988,-0.14 c -0.152,1 -0.231,2.03 -0.231,3.08 z m 3.792,-11.56 c 1.167,-1.58 2.568,-2.98 4.151,-4.15 l -0.593,-0.8 c -1.664,1.22 -3.136,2.7 -4.363,4.36 z m 12.772,-7.72 c 0.958,-0.15 1.938,-0.22 2.936,-0.22 v -1 c -1.048,0 -2.078,0.08 -3.085,0.23 z M 689,2147.5 h 2.423 v -1 H 689 Z m 10.177,0 h 4.846 v -1 h -4.846 z m 12.6,0 h 4.846 v -1 h -4.846 z m 12.6,0 h 4.846 v -1 h -4.846 z m 12.6,0 h 4.846 v -1 h -4.846 z m 12.6,0 H 752 v -1 h -2.423 z m 2.423,0 c 0.998,0 1.978,0.07 2.936,0.22 l 0.149,-0.99 c -1.007,-0.15 -2.037,-0.23 -3.085,-0.23 z m 11.557,3.79 c 1.583,1.17 2.984,2.57 4.151,4.15 l 0.805,-0.59 c -1.227,-1.66 -2.699,-3.14 -4.363,-4.36 z m 7.724,12.77 c 0.144,0.96 0.219,1.94 0.219,2.94 h 1 c 0,-1.05 -0.079,-2.08 -0.231,-3.08 z m 0.219,2.94 c 0,1 -0.075,1.98 -0.219,2.94 l 0.988,0.14 c 0.152,-1 0.231,-2.03 0.231,-3.08 z m -3.792,11.56 c -1.167,1.58 -2.568,2.98 -4.151,4.15 l 0.593,0.8 c 1.664,-1.22 3.136,-2.7 4.363,-4.36 z m -12.772,7.72 c -0.958,0.15 -1.938,0.22 -2.936,0.22 v 1 c 1.048,0 2.078,-0.08 3.085,-0.23 z M 752,2186.5 h -2.423 v 1 H 752 Z m -10.177,0 h -4.846 v 1 h 4.846 z m -12.6,0 h -4.846 v 1 h 4.846 z m -12.6,0 h -4.846 v 1 h 4.846 z m -12.6,0 h -4.846 v 1 h 4.846 z m -12.6,0 H 689 v 1 h 2.423 z M 670,2167 c 0,-0.55 -0.448,-1 -1,-1 -0.552,0 -1,0.45 -1,1 z m 103,0 c 0,-0.55 -0.448,-1 -1,-1 -0.552,0 -1,0.45 -1,1 z m -2,0 c 0,0.55 0.448,1 1,1 0.552,0 1,-0.45 1,-1 z m -103,0 c 0,0.55 0.448,1 1,1 0.552,0 1,-0.45 1,-1 z m 18.139,18.79 c -0.546,-0.09 -1.055,0.29 -1.138,0.84 -0.082,0.54 0.294,1.05 0.84,1.13 z m -9.586,-1.87 c 0.444,0.32 1.07,0.23 1.398,-0.22 0.328,-0.44 0.233,-1.07 -0.212,-1.39 z m -2.858,-5.66 c -0.328,-0.44 -0.954,-0.54 -1.399,-0.21 -0.444,0.33 -0.539,0.95 -0.211,1.4 z m -5.459,-8.1 c 0.083,0.55 0.592,0.92 1.138,0.84 0.546,-0.08 0.922,-0.59 0.84,-1.14 z m 1.978,-6.02 c 0.082,-0.55 -0.294,-1.06 -0.84,-1.14 -0.546,-0.08 -1.055,0.29 -1.138,0.84 z m 1.871,-9.59 c -0.328,0.45 -0.233,1.07 0.211,1.4 0.445,0.33 1.071,0.23 1.399,-0.21 z m 5.654,-2.86 c 0.445,-0.32 0.54,-0.95 0.212,-1.39 -0.328,-0.45 -0.954,-0.54 -1.398,-0.22 z m 8.102,-5.45 c -0.546,0.08 -0.922,0.59 -0.84,1.13 0.083,0.55 0.592,0.93 1.138,0.84 z m 5.582,1.76 c 0.552,0 1,-0.45 1,-1 0,-0.55 -0.448,-1 -1,-1 z m 7.754,-2 c -0.552,0 -1,0.45 -1,1 0,0.55 0.448,1 1,1 z m 4.846,2 c 0.552,0 1,-0.45 1,-1 0,-0.55 -0.448,-1 -1,-1 z m 7.754,-2 c -0.552,0 -1,0.45 -1,1 0,0.55 0.448,1 1,1 z m 4.846,2 c 0.552,0 1,-0.45 1,-1 0,-0.55 -0.448,-1 -1,-1 z m 7.754,-2 c -0.552,0 -1,0.45 -1,1 0,0.55 0.448,1 1,1 z m 4.846,2 c 0.552,0 1,-0.45 1,-1 0,-0.55 -0.448,-1 -1,-1 z m 7.754,-2 c -0.552,0 -1,0.45 -1,1 0,0.55 0.448,1 1,1 z m 4.846,2 c 0.552,0 1,-0.45 1,-1 0,-0.55 -0.448,-1 -1,-1 z m 7.754,-2 c -0.552,0 -1,0.45 -1,1 0,0.55 0.448,1 1,1 z m 5.284,2.21 c 0.546,0.09 1.055,-0.29 1.138,-0.84 0.082,-0.54 -0.294,-1.05 -0.84,-1.13 z m 9.586,1.87 c -0.444,-0.32 -1.07,-0.23 -1.398,0.22 -0.328,0.44 -0.233,1.07 0.212,1.39 z m 2.858,5.66 c 0.328,0.44 0.954,0.54 1.399,0.21 0.444,-0.33 0.539,-0.95 0.211,-1.4 z m 5.459,8.1 c -0.083,-0.55 -0.592,-0.92 -1.138,-0.84 -0.546,0.08 -0.922,0.59 -0.84,1.14 z m -1.978,6.02 c -0.082,0.55 0.294,1.06 0.84,1.14 0.546,0.08 1.055,-0.29 1.138,-0.84 z m -1.871,9.59 c 0.328,-0.45 0.233,-1.07 -0.211,-1.4 -0.445,-0.33 -1.071,-0.23 -1.399,0.21 z m -5.654,2.86 c -0.445,0.32 -0.54,0.95 -0.212,1.39 0.328,0.45 0.954,0.54 1.398,0.22 z m -8.102,5.45 c 0.546,-0.08 0.922,-0.59 0.84,-1.13 -0.083,-0.55 -0.592,-0.93 -1.138,-0.84 z m -5.582,-1.76 c -0.552,0 -1,0.45 -1,1 0,0.55 0.448,1 1,1 z m -7.754,2 c 0.552,0 1,-0.45 1,-1 0,-0.55 -0.448,-1 -1,-1 z m -4.846,-2 c -0.552,0 -1,0.45 -1,1 0,0.55 0.448,1 1,1 z m -7.754,2 c 0.552,0 1,-0.45 1,-1 0,-0.55 -0.448,-1 -1,-1 z m -4.846,-2 c -0.552,0 -1,0.45 -1,1 0,0.55 0.448,1 1,1 z m -7.754,2 c 0.552,0 1,-0.45 1,-1 0,-0.55 -0.448,-1 -1,-1 z m -4.846,-2 c -0.552,0 -1,0.45 -1,1 0,0.55 0.448,1 1,1 z m -7.754,2 c 0.552,0 1,-0.45 1,-1 0,-0.55 -0.448,-1 -1,-1 z m -4.846,-2 c -0.552,0 -1,0.45 -1,1 0,0.55 0.448,1 1,1 z m -7.754,2 c 0.552,0 1,-0.45 1,-1 0,-0.55 -0.448,-1 -1,-1 z M 689,2186 c -0.973,0 -1.928,-0.07 -2.861,-0.21 l -0.298,1.97 c 1.031,0.16 2.086,0.24 3.159,0.24 z m -11.261,-3.69 c -1.542,-1.14 -2.907,-2.51 -4.044,-4.05 l -1.61,1.19 c 1.256,1.7 2.764,3.21 4.468,4.47 z m -7.525,-12.45 C 670.073,2168.93 670,2167.97 670,2167 h -2 c 0,1.07 0.081,2.13 0.236,3.16 z M 670,2167 c 0,-0.97 0.073,-1.93 0.214,-2.86 l -1.978,-0.3 c -0.155,1.03 -0.236,2.09 -0.236,3.16 z m 3.695,-11.26 c 1.137,-1.54 2.502,-2.91 4.044,-4.05 l -1.186,-1.61 c -1.704,1.26 -3.212,2.77 -4.468,4.47 z m 12.444,-7.53 c 0.933,-0.14 1.888,-0.21 2.861,-0.21 v -2 c -1.073,0 -2.128,0.08 -3.159,0.24 z M 689,2148 h 2.423 v -2 H 689 Z m 10.177,0 h 4.846 v -2 h -4.846 z m 12.6,0 h 4.846 v -2 h -4.846 z m 12.6,0 h 4.846 v -2 h -4.846 z m 12.6,0 h 4.846 v -2 h -4.846 z m 12.6,0 H 752 v -2 h -2.423 z m 2.423,0 c 0.973,0 1.928,0.07 2.861,0.21 l 0.298,-1.97 C 754.128,2146.08 753.073,2146 752,2146 Z m 11.261,3.69 c 1.542,1.14 2.907,2.51 4.044,4.05 l 1.61,-1.19 c -1.256,-1.7 -2.764,-3.21 -4.468,-4.47 z m 7.525,12.45 c 0.141,0.93 0.214,1.89 0.214,2.86 h 2 c 0,-1.07 -0.081,-2.13 -0.236,-3.16 z M 771,2167 c 0,0.97 -0.073,1.93 -0.214,2.86 l 1.978,0.3 c 0.155,-1.03 0.236,-2.09 0.236,-3.16 z m -3.695,11.26 c -1.137,1.54 -2.502,2.91 -4.044,4.05 l 1.186,1.61 c 1.704,-1.26 3.212,-2.77 4.468,-4.47 z m -12.444,7.53 c -0.933,0.14 -1.888,0.21 -2.861,0.21 v 2 c 1.073,0 2.128,-0.08 3.159,-0.24 z M 752,2186 h -2.423 v 2 H 752 Z m -10.177,0 h -4.846 v 2 h 4.846 z m -12.6,0 h -4.846 v 2 h 4.846 z m -12.6,0 h -4.846 v 2 h 4.846 z m -12.6,0 h -4.846 v 2 h 4.846 z m -12.6,0 H 689 v 2 h 2.423 z"
         fill="#2097f6"
         id="path5798" />
    </g>
  </g>
</svg>
