<?xml version="1.0" encoding="UTF-8" standalone="no"?>
<svg
   width="107"
   height="44"
   viewBox="0 0 107 44"
   fill="none"
   version="1.1"
   id="svg1449"
   xmlns="http://www.w3.org/2000/svg"
   xmlns:svg="http://www.w3.org/2000/svg">
  <defs
     id="defs1447">
    <filter
       id="filter53_d_0_1"
       x="925"
       y="2075"
       width="107"
       height="44"
       filterUnits="userSpaceOnUse"
       color-interpolation-filters="sRGB">
      <feFlood
         flood-opacity="0"
         result="BackgroundImageFix"
         id="feFlood1395" />
      <feColorMatrix
         in="SourceAlpha"
         type="matrix"
         values="0 0 0 0 0 0 0 0 0 0 0 0 0 0 0 0 0 0 127 0"
         result="hardAlpha"
         id="feColorMatrix1397" />
      <feOffset
         dx="4"
         dy="4"
         id="feOffset1399" />
      <feColorMatrix
         type="matrix"
         values="0 0 0 0 0.674908 0 0 0 0 0.662083 0 0 0 0 0.945833 0 0 0 1 0"
         id="feColorMatrix1401" />
      <feBlend
         mode="normal"
         in2="BackgroundImageFix"
         result="effect1_dropShadow_0_1"
         id="feBlend1403" />
      <feBlend
         mode="normal"
         in="SourceGraphic"
         in2="effect1_dropShadow_0_1"
         result="shape"
         id="feBlend1405" />
    </filter>
  </defs>
  <g
     id="New_Layer_1653412033.8456903"
     style="display:inline"
     transform="translate(-925,-2075)">
    <g
       filter="url(#filter53_d_0_1)"
       id="g6787">
      <path
         d="m 925,2095 c 0,-11.05 8.954,-20 20,-20 h 63 c 11.05,0 20,8.95 20,20 0,11.05 -8.95,20 -20,20 h -63 c -11.046,0 -20,-8.95 -20,-20 z"
         fill="#eeeeff"
         id="path5802" />
      <text
         fill="#5452f6"
         xml:space="preserve"
         style="white-space:pre"
         font-family="Roboto"
         font-size="14px"
         font-weight="500"
         letter-spacing="0em"
         id="text5806"
         x="959.43103"
         y="2099.79"><tspan
           x="959.43103"
           y="2099.79"
           id="tspan5804">Label</tspan></text>
      <path
         d="m 945,2076 h 63 v -2 h -63 z m 63,38 h -63 v 2 h 63 z m -63,0 c -10.493,0 -19,-8.51 -19,-19 h -2 c 0,11.6 9.402,21 21,21 z m 82,-19 c 0,10.49 -8.51,19 -19,19 v 2 c 11.6,0 21,-9.4 21,-21 z m -19,-19 c 10.49,0 19,8.51 19,19 h 2 c 0,-11.6 -9.4,-21 -21,-21 z m -63,-2 c -11.598,0 -21,9.4 -21,21 h 2 c 0,-10.49 8.507,-19 19,-19 z"
         fill="#5452f6"
         id="path5808" />
    </g>
  </g>
</svg>
