<?xml version="1.0" encoding="UTF-8" standalone="no"?>
<svg
   width="107"
   height="44"
   viewBox="0 0 107 44"
   fill="none"
   version="1.1"
   id="svg1449"
   xmlns="http://www.w3.org/2000/svg"
   xmlns:svg="http://www.w3.org/2000/svg">
  <defs
     id="defs1447">
    <filter
       id="filter56_d_0_1"
       x="1181"
       y="2150"
       width="107"
       height="44"
       filterUnits="userSpaceOnUse"
       color-interpolation-filters="sRGB">
      <feFlood
         flood-opacity="0"
         result="BackgroundImageFix"
         id="feFlood1434" />
      <feColorMatrix
         in="SourceAlpha"
         type="matrix"
         values="0 0 0 0 0 0 0 0 0 0 0 0 0 0 0 0 0 0 127 0"
         result="hardAlpha"
         id="feColorMatrix1436" />
      <feOffset
         dx="4"
         dy="4"
         id="feOffset1438" />
      <feColorMatrix
         type="matrix"
         values="0 0 0 0 0.578021 0 0 0 0 0.775 0 0 0 0 0.608662 0 0 0 1 0"
         id="feColorMatrix1440" />
      <feBlend
         mode="normal"
         in2="BackgroundImageFix"
         result="effect1_dropShadow_0_1"
         id="feBlend1442" />
      <feBlend
         mode="normal"
         in="SourceGraphic"
         in2="effect1_dropShadow_0_1"
         result="shape"
         id="feBlend1444" />
    </filter>
  </defs>
  <g
     id="New_Layer_1653412033.8469286"
     style="display:inline"
     transform="translate(-1181,-2150)">
    <g
       filter="url(#filter56_d_0_1)"
       id="g1452">
      <path
         d="m 1181,2170 c 0,-11.05 8.95,-20 20,-20 h 63 c 11.05,0 20,8.95 20,20 0,11.05 -8.95,20 -20,20 h -63 c -11.05,0 -20,-8.95 -20,-20 z"
         fill="#ffffff"
         id="path5832" />
      <text
         fill="#65bf73"
         xml:space="preserve"
         style="white-space:pre"
         font-family="Roboto"
         font-size="14px"
         font-weight="500"
         letter-spacing="0em"
         id="text5836"
         x="1215.4301"
         y="2174.79"><tspan
           x="1215.4301"
           y="2174.79"
           id="tspan5834">Label</tspan></text>
      <path
         d="m 1181.5,2170 c 0,-0.28 -0.22,-0.5 -0.5,-0.5 -0.28,0 -0.5,0.22 -0.5,0.5 z m 103,0 c 0,-0.28 -0.22,-0.5 -0.5,-0.5 -0.28,0 -0.5,0.22 -0.5,0.5 z m -1,0 c 0,0.28 0.22,0.5 0.5,0.5 0.28,0 0.5,-0.22 0.5,-0.5 z m -103,0 c 0,0.28 0.22,0.5 0.5,0.5 0.28,0 0.5,-0.22 0.5,-0.5 z m 17.56,19.28 c -0.27,-0.04 -0.52,0.15 -0.56,0.42 -0.05,0.27 0.14,0.53 0.42,0.57 z m -9.21,-2.77 c 0.22,0.17 0.53,0.12 0.7,-0.1 0.16,-0.23 0.12,-0.54 -0.11,-0.7 z m -3.56,-4.95 c -0.16,-0.23 -0.47,-0.27 -0.7,-0.11 -0.22,0.17 -0.27,0.48 -0.1,0.7 z m -4.56,-8.48 c 0.04,0.28 0.3,0.47 0.57,0.42 0.27,-0.04 0.46,-0.29 0.42,-0.56 z m 0.99,-6.02 c 0.04,-0.27 -0.15,-0.52 -0.42,-0.56 -0.27,-0.05 -0.53,0.14 -0.57,0.42 z m 2.77,-9.21 c -0.17,0.22 -0.12,0.53 0.1,0.7 0.23,0.16 0.54,0.12 0.7,-0.11 z m 4.95,-3.56 c 0.23,-0.16 0.27,-0.47 0.11,-0.7 -0.17,-0.22 -0.48,-0.27 -0.7,-0.1 z m 8.48,-4.56 c -0.28,0.04 -0.47,0.3 -0.42,0.57 0.04,0.27 0.29,0.46 0.56,0.42 z m 5.5,0.77 c 0.28,0 0.5,-0.22 0.5,-0.5 0,-0.28 -0.22,-0.5 -0.5,-0.5 z m 7.76,-1 c -0.28,0 -0.5,0.22 -0.5,0.5 0,0.28 0.22,0.5 0.5,0.5 z m 4.84,1 c 0.28,0 0.5,-0.22 0.5,-0.5 0,-0.28 -0.22,-0.5 -0.5,-0.5 z m 7.76,-1 c -0.28,0 -0.5,0.22 -0.5,0.5 0,0.28 0.22,0.5 0.5,0.5 z m 4.84,1 c 0.28,0 0.5,-0.22 0.5,-0.5 0,-0.28 -0.22,-0.5 -0.5,-0.5 z m 7.76,-1 c -0.28,0 -0.5,0.22 -0.5,0.5 0,0.28 0.22,0.5 0.5,0.5 z m 4.84,1 c 0.28,0 0.5,-0.22 0.5,-0.5 0,-0.28 -0.22,-0.5 -0.5,-0.5 z m 7.76,-1 c -0.28,0 -0.5,0.22 -0.5,0.5 0,0.28 0.22,0.5 0.5,0.5 z m 4.84,1 c 0.28,0 0.5,-0.22 0.5,-0.5 0,-0.28 -0.22,-0.5 -0.5,-0.5 z m 7.76,-1 c -0.28,0 -0.5,0.22 -0.5,0.5 0,0.28 0.22,0.5 0.5,0.5 z m 5.36,1.22 c 0.27,0.04 0.52,-0.15 0.56,-0.42 0.05,-0.27 -0.14,-0.53 -0.42,-0.57 z m 9.21,2.77 c -0.22,-0.17 -0.53,-0.12 -0.7,0.1 -0.16,0.23 -0.12,0.54 0.11,0.7 z m 3.56,4.95 c 0.16,0.23 0.47,0.27 0.7,0.11 0.22,-0.17 0.27,-0.48 0.1,-0.7 z m 4.56,8.48 c -0.04,-0.28 -0.3,-0.47 -0.57,-0.42 -0.27,0.04 -0.46,0.29 -0.42,0.56 z m -0.99,6.02 c -0.04,0.27 0.15,0.52 0.42,0.56 0.27,0.05 0.53,-0.14 0.57,-0.42 z m -2.77,9.21 c 0.17,-0.22 0.12,-0.53 -0.1,-0.7 -0.23,-0.16 -0.54,-0.12 -0.7,0.11 z m -4.95,3.56 c -0.23,0.16 -0.27,0.47 -0.11,0.7 0.17,0.22 0.48,0.27 0.7,0.1 z m -8.48,4.56 c 0.28,-0.04 0.47,-0.3 0.42,-0.57 -0.04,-0.27 -0.29,-0.46 -0.56,-0.42 z m -5.5,-0.77 c -0.28,0 -0.5,0.22 -0.5,0.5 0,0.28 0.22,0.5 0.5,0.5 z m -7.76,1 c 0.28,0 0.5,-0.22 0.5,-0.5 0,-0.28 -0.22,-0.5 -0.5,-0.5 z m -4.84,-1 c -0.28,0 -0.5,0.22 -0.5,0.5 0,0.28 0.22,0.5 0.5,0.5 z m -7.76,1 c 0.28,0 0.5,-0.22 0.5,-0.5 0,-0.28 -0.22,-0.5 -0.5,-0.5 z m -4.84,-1 c -0.28,0 -0.5,0.22 -0.5,0.5 0,0.28 0.22,0.5 0.5,0.5 z m -7.76,1 c 0.28,0 0.5,-0.22 0.5,-0.5 0,-0.28 -0.22,-0.5 -0.5,-0.5 z m -4.84,-1 c -0.28,0 -0.5,0.22 -0.5,0.5 0,0.28 0.22,0.5 0.5,0.5 z m -7.76,1 c 0.28,0 0.5,-0.22 0.5,-0.5 0,-0.28 -0.22,-0.5 -0.5,-0.5 z m -4.84,-1 c -0.28,0 -0.5,0.22 -0.5,0.5 0,0.28 0.22,0.5 0.5,0.5 z m -7.76,1 c 0.28,0 0.5,-0.22 0.5,-0.5 0,-0.28 -0.22,-0.5 -0.5,-0.5 z m -2.42,-1 c -1,0 -1.98,-0.07 -2.94,-0.22 l -0.14,0.99 c 1,0.15 2.03,0.23 3.08,0.23 z m -11.56,-3.79 c -1.58,-1.17 -2.98,-2.57 -4.15,-4.15 l -0.8,0.59 c 1.22,1.66 2.7,3.14 4.36,4.36 z m -7.72,-12.77 c -0.15,-0.96 -0.22,-1.94 -0.22,-2.94 h -1 c 0,1.05 0.08,2.08 0.23,3.08 z m -0.22,-2.94 c 0,-1 0.07,-1.98 0.22,-2.94 l -0.99,-0.14 c -0.15,1 -0.23,2.03 -0.23,3.08 z m 3.79,-11.56 c 1.17,-1.58 2.57,-2.98 4.15,-4.15 l -0.59,-0.8 c -1.66,1.22 -3.14,2.7 -4.36,4.36 z m 12.77,-7.72 c 0.96,-0.15 1.94,-0.22 2.94,-0.22 v -1 c -1.05,0 -2.08,0.08 -3.08,0.23 z m 2.94,-0.22 h 2.42 v -1 H 1201 Z m 10.18,0 h 4.84 v -1 h -4.84 z m 12.6,0 h 4.84 v -1 h -4.84 z m 12.6,0 h 4.84 v -1 h -4.84 z m 12.6,0 h 4.84 v -1 h -4.84 z m 12.6,0 h 2.42 v -1 h -2.42 z m 2.42,0 c 1,0 1.98,0.07 2.94,0.22 l 0.14,-0.99 c -1,-0.15 -2.03,-0.23 -3.08,-0.23 z m 11.56,3.79 c 1.58,1.17 2.98,2.57 4.15,4.15 l 0.8,-0.59 c -1.22,-1.66 -2.7,-3.14 -4.36,-4.36 z m 7.72,12.77 c 0.15,0.96 0.22,1.94 0.22,2.94 h 1 c 0,-1.05 -0.08,-2.08 -0.23,-3.08 z m 0.22,2.94 c 0,1 -0.07,1.98 -0.22,2.94 l 0.99,0.14 c 0.15,-1 0.23,-2.03 0.23,-3.08 z m -3.79,11.56 c -1.17,1.58 -2.57,2.98 -4.15,4.15 l 0.59,0.8 c 1.66,-1.22 3.14,-2.7 4.36,-4.36 z m -12.77,7.72 c -0.96,0.15 -1.94,0.22 -2.94,0.22 v 1 c 1.05,0 2.08,-0.08 3.08,-0.23 z m -2.94,0.22 h -2.42 v 1 h 2.42 z m -10.18,0 h -4.84 v 1 h 4.84 z m -12.6,0 h -4.84 v 1 h 4.84 z m -12.6,0 h -4.84 v 1 h 4.84 z m -12.6,0 h -4.84 v 1 h 4.84 z m -12.6,0 H 1201 v 1 h 2.42 z M 1182,2170 c 0,-0.55 -0.45,-1 -1,-1 -0.55,0 -1,0.45 -1,1 z m 103,0 c 0,-0.55 -0.45,-1 -1,-1 -0.55,0 -1,0.45 -1,1 z m -2,0 c 0,0.55 0.45,1 1,1 0.55,0 1,-0.45 1,-1 z m -103,0 c 0,0.55 0.45,1 1,1 0.55,0 1,-0.45 1,-1 z m 18.14,18.79 c -0.55,-0.09 -1.06,0.29 -1.14,0.84 -0.08,0.54 0.29,1.05 0.84,1.13 z m -9.59,-1.87 c 0.45,0.32 1.07,0.23 1.4,-0.22 0.33,-0.44 0.23,-1.07 -0.21,-1.39 z m -2.86,-5.66 c -0.32,-0.44 -0.95,-0.54 -1.39,-0.21 -0.45,0.33 -0.54,0.95 -0.22,1.4 z m -5.45,-8.1 c 0.08,0.55 0.59,0.92 1.13,0.84 0.55,-0.08 0.93,-0.59 0.84,-1.14 z m 1.97,-6.02 c 0.09,-0.55 -0.29,-1.06 -0.84,-1.14 -0.54,-0.08 -1.05,0.29 -1.13,0.84 z m 1.87,-9.59 c -0.32,0.45 -0.23,1.07 0.22,1.4 0.44,0.33 1.07,0.23 1.39,-0.21 z m 5.66,-2.86 c 0.44,-0.32 0.54,-0.95 0.21,-1.39 -0.33,-0.45 -0.95,-0.54 -1.4,-0.22 z m 8.1,-5.45 c -0.55,0.08 -0.92,0.59 -0.84,1.13 0.08,0.55 0.59,0.93 1.14,0.84 z m 5.58,1.76 c 0.56,0 1,-0.45 1,-1 0,-0.55 -0.44,-1 -1,-1 z m 7.76,-2 c -0.56,0 -1,0.45 -1,1 0,0.55 0.44,1 1,1 z m 4.84,2 c 0.56,0 1,-0.45 1,-1 0,-0.55 -0.44,-1 -1,-1 z m 7.76,-2 c -0.56,0 -1,0.45 -1,1 0,0.55 0.44,1 1,1 z m 4.84,2 c 0.56,0 1,-0.45 1,-1 0,-0.55 -0.44,-1 -1,-1 z m 7.76,-2 c -0.56,0 -1,0.45 -1,1 0,0.55 0.44,1 1,1 z m 4.84,2 c 0.56,0 1,-0.45 1,-1 0,-0.55 -0.44,-1 -1,-1 z m 7.76,-2 c -0.56,0 -1,0.45 -1,1 0,0.55 0.44,1 1,1 z m 4.84,2 c 0.56,0 1,-0.45 1,-1 0,-0.55 -0.44,-1 -1,-1 z m 7.76,-2 c -0.56,0 -1,0.45 -1,1 0,0.55 0.44,1 1,1 z m 5.28,2.21 c 0.55,0.09 1.06,-0.29 1.14,-0.84 0.08,-0.54 -0.29,-1.05 -0.84,-1.13 z m 9.59,1.87 c -0.45,-0.32 -1.07,-0.23 -1.4,0.22 -0.33,0.44 -0.23,1.07 0.21,1.39 z m 2.86,5.66 c 0.32,0.44 0.95,0.54 1.39,0.21 0.45,-0.33 0.54,-0.95 0.22,-1.4 z m 5.45,8.1 c -0.08,-0.55 -0.59,-0.92 -1.13,-0.84 -0.55,0.08 -0.93,0.59 -0.84,1.14 z m -1.97,6.02 c -0.09,0.55 0.29,1.06 0.84,1.14 0.54,0.08 1.05,-0.29 1.13,-0.84 z m -1.87,9.59 c 0.32,-0.45 0.23,-1.07 -0.22,-1.4 -0.44,-0.33 -1.07,-0.23 -1.39,0.21 z m -5.66,2.86 c -0.44,0.32 -0.54,0.95 -0.21,1.39 0.33,0.45 0.95,0.54 1.4,0.22 z m -8.1,5.45 c 0.55,-0.08 0.92,-0.59 0.84,-1.13 -0.08,-0.55 -0.59,-0.93 -1.14,-0.84 z m -5.58,-1.76 c -0.56,0 -1,0.45 -1,1 0,0.55 0.44,1 1,1 z m -7.76,2 c 0.56,0 1,-0.45 1,-1 0,-0.55 -0.44,-1 -1,-1 z m -4.84,-2 c -0.56,0 -1,0.45 -1,1 0,0.55 0.44,1 1,1 z m -7.76,2 c 0.56,0 1,-0.45 1,-1 0,-0.55 -0.44,-1 -1,-1 z m -4.84,-2 c -0.56,0 -1,0.45 -1,1 0,0.55 0.44,1 1,1 z m -7.76,2 c 0.56,0 1,-0.45 1,-1 0,-0.55 -0.44,-1 -1,-1 z m -4.84,-2 c -0.56,0 -1,0.45 -1,1 0,0.55 0.44,1 1,1 z m -7.76,2 c 0.56,0 1,-0.45 1,-1 0,-0.55 -0.44,-1 -1,-1 z m -4.84,-2 c -0.56,0 -1,0.45 -1,1 0,0.55 0.44,1 1,1 z m -7.76,2 c 0.56,0 1,-0.45 1,-1 0,-0.55 -0.44,-1 -1,-1 z m -2.42,-2 c -0.97,0 -1.93,-0.07 -2.86,-0.21 l -0.3,1.97 c 1.03,0.16 2.09,0.24 3.16,0.24 z m -11.26,-3.69 c -1.54,-1.14 -2.91,-2.51 -4.05,-4.05 l -1.61,1.19 c 1.26,1.7 2.77,3.21 4.47,4.47 z m -7.53,-12.45 c -0.14,-0.93 -0.21,-1.89 -0.21,-2.86 h -2 c 0,1.07 0.08,2.13 0.24,3.16 z M 1182,2170 c 0,-0.97 0.07,-1.93 0.21,-2.86 l -1.97,-0.3 c -0.16,1.03 -0.24,2.09 -0.24,3.16 z m 3.69,-11.26 c 1.14,-1.54 2.51,-2.91 4.05,-4.05 l -1.19,-1.61 c -1.7,1.26 -3.21,2.77 -4.47,4.47 z m 12.45,-7.53 c 0.93,-0.14 1.89,-0.21 2.86,-0.21 v -2 c -1.07,0 -2.13,0.08 -3.16,0.24 z M 1201,2151 h 2.42 v -2 H 1201 Z m 10.18,0 h 4.84 v -2 h -4.84 z m 12.6,0 h 4.84 v -2 h -4.84 z m 12.6,0 h 4.84 v -2 h -4.84 z m 12.6,0 h 4.84 v -2 h -4.84 z m 12.6,0 h 2.42 v -2 h -2.42 z m 2.42,0 c 0.97,0 1.93,0.07 2.86,0.21 l 0.3,-1.97 c -1.03,-0.16 -2.09,-0.24 -3.16,-0.24 z m 11.26,3.69 c 1.54,1.14 2.91,2.51 4.05,4.05 l 1.61,-1.19 c -1.26,-1.7 -2.77,-3.21 -4.47,-4.47 z m 7.53,12.45 c 0.14,0.93 0.21,1.89 0.21,2.86 h 2 c 0,-1.07 -0.08,-2.13 -0.24,-3.16 z m 0.21,2.86 c 0,0.97 -0.07,1.93 -0.21,2.86 l 1.97,0.3 c 0.16,-1.03 0.24,-2.09 0.24,-3.16 z m -3.69,11.26 c -1.14,1.54 -2.51,2.91 -4.05,4.05 l 1.19,1.61 c 1.7,-1.26 3.21,-2.77 4.47,-4.47 z m -12.45,7.53 c -0.93,0.14 -1.89,0.21 -2.86,0.21 v 2 c 1.07,0 2.13,-0.08 3.16,-0.24 z M 1264,2189 h -2.42 v 2 h 2.42 z m -10.18,0 h -4.84 v 2 h 4.84 z m -12.6,0 h -4.84 v 2 h 4.84 z m -12.6,0 h -4.84 v 2 h 4.84 z m -12.6,0 h -4.84 v 2 h 4.84 z m -12.6,0 H 1201 v 2 h 2.42 z"
         fill="#65bf73"
         id="path5838" />
    </g>
  </g>
</svg>
