<?xml version="1.0" encoding="UTF-8" standalone="no"?>
<svg
   width="1443.604"
   height="4927"
   viewBox="0 0 1443.604 4927"
   fill="none"
   version="1.1"
   id="svg1157"
   xmlns="http://www.w3.org/2000/svg"
   xmlns:svg="http://www.w3.org/2000/svg">
  <defs
     id="defs1155" />
  <g
     id="layer1"
     style="display:inline"
     transform="translate(3.6040068)">
    <rect
       width="1440"
       height="4927"
       fill="#e5e5e5"
       id="rect2"
       x="0"
       y="0" />
    <rect
       width="1440"
       height="4927"
       fill="#fafbfe"
       id="rect4"
       x="0"
       y="0" />
    <text
       fill="#212065"
       xml:space="preserve"
       style="white-space:pre"
       font-family="'DM Sans'"
       font-size="28px"
       letter-spacing="0.02em"
       id="text8"
       x="371.327"
       y="1962.6801"><tspan
         x="80"
         y="3294.55"
         id="tspan6">Tag</tspan></text>
    <rect
       x="80.5"
       y="1821.5"
       width="423"
       height="1395"
       stroke="#e8e8f2"
       id="rect10" />
    <path
       d="M 504,1821 H 937 V 3217 H 504"
       stroke="#e8e8f2"
       id="path12" />
    <path
       d="m 937,1821 h 423 V 3217 H 937"
       stroke="#e8e8f2"
       id="path14" />
    <rect
       x="80.5"
       y="3321.5"
       width="423"
       height="1462"
       stroke="#e8e8f2"
       id="rect216" />
    <path
       d="M 504,3321 H 937 V 4784 H 504"
       stroke="#e8e8f2"
       id="path218" />
    <path
       d="m 937,3321 h 423 V 4784 H 937"
       stroke="#e8e8f2"
       id="path220" />
    <rect
       x="80.5"
       y="1173.5"
       width="319"
       height="219"
       stroke="#e8e8f2"
       id="rect692" />
    <path
       d="m 400,1173 h 320 v 220 H 400"
       stroke="#e8e8f2"
       id="path694" />
    <path
       d="m 720,1173 h 320 v 220 H 720"
       stroke="#e8e8f2"
       id="path696" />
    <path
       d="m 1040,1173 h 320 v 220 h -320"
       stroke="#e8e8f2"
       id="path698" />
    <rect
       x="80.5"
       y="1497.5"
       width="319"
       height="219"
       stroke="#e8e8f2"
       id="rect760" />
    <path
       d="m 400,1497 h 320 v 220 H 400"
       stroke="#e8e8f2"
       id="path762" />
    <path
       d="m 720,1497 h 320 v 220 H 720"
       stroke="#e8e8f2"
       id="path764" />
    <path
       d="m 1040,1497 h 320 v 220 h -320"
       stroke="#e8e8f2"
       id="path766" />
    <rect
       x="80.5"
       y="435.5"
       width="255"
       height="275"
       stroke="#e8e8f2"
       id="rect848" />
    <path
       d="M 336,435 H 592 V 711 H 336"
       stroke="#e8e8f2"
       id="path850" />
    <path
       d="m 592.5,435.5 h 255 v 275 h -255 z"
       stroke="#e8e8f2"
       id="path852" />
    <path
       d="m 848.5,435.5 h 255 v 275 h -255 z"
       stroke="#e8e8f2"
       id="path854" />
    <path
       d="m 1104,435 h 256 v 276 h -256"
       stroke="#e8e8f2"
       id="path856" />
    <rect
       x="80.5"
       y="815.5"
       width="255"
       height="253"
       stroke="#e8e8f2"
       id="rect918" />
    <path
       d="m 336,815 h 256 v 254 H 336"
       stroke="#e8e8f2"
       id="path920" />
    <path
       d="m 592.5,815.5 h 255 v 253 h -255 z"
       stroke="#e8e8f2"
       id="path922" />
    <path
       d="m 848.5,815.5 h 255 v 253 h -255 z"
       stroke="#e8e8f2"
       id="path924" />
    <path
       d="m 1104,815 h 256 v 254 h -256"
       stroke="#e8e8f2"
       id="path926" />
    <text
       fill="#212065"
       xml:space="preserve"
       style="white-space:pre"
       font-family="'DM Sans'"
       font-size="42px"
       font-weight="bold"
       letter-spacing="0.01em"
       id="text990"
       x="371.327"
       y="1962.6801"><tspan
         x="80.264503"
         y="332.82199"
         id="tspan988">Arrow</tspan></text>
    <text
       fill="#212065"
       xml:space="preserve"
       style="white-space:pre"
       font-family="'DM Sans'"
       font-size="28px"
       letter-spacing="0.02em"
       id="text994"
       x="371.327"
       y="1962.6801"><tspan
         x="80"
         y="408.548"
         id="tspan992">S</tspan></text>
    <text
       fill="#212065"
       xml:space="preserve"
       style="white-space:pre"
       font-family="'DM Sans'"
       font-size="28px"
       letter-spacing="0.02em"
       id="text998"
       x="371.327"
       y="1962.6801"><tspan
         x="80"
         y="788.54797"
         id="tspan996">L</tspan></text>
    <text
       fill="#212065"
       xml:space="preserve"
       style="white-space:pre"
       font-family="'DM Sans'"
       font-size="28px"
       letter-spacing="0.02em"
       id="text1002"
       x="371.327"
       y="1962.6801"><tspan
         x="80"
         y="1146.55"
         id="tspan1000">Circle outline arrow</tspan></text>
    <text
       fill="#212065"
       xml:space="preserve"
       style="white-space:pre"
       font-family="'DM Sans'"
       font-size="28px"
       letter-spacing="0.02em"
       id="text1006"
       x="371.327"
       y="1962.6801"><tspan
         x="80"
         y="1470.55"
         id="tspan1004">Circle fill arrow</tspan></text>
    <text
       fill="#212065"
       xml:space="preserve"
       style="white-space:pre"
       font-family="'DM Sans'"
       font-size="28px"
       letter-spacing="0.02em"
       id="text1010"
       x="371.327"
       y="1962.6801"><tspan
         x="80"
         y="1794.55"
         id="tspan1008">Branch</tspan></text>
    <rect
       x="80.5"
       y="101.5"
       width="1279"
       height="89"
       rx="19.5"
       fill="#eaf0f9"
       stroke="#e8e8f2"
       id="rect1012" />
    <text
       fill="#5452f6"
       xml:space="preserve"
       style="white-space:pre"
       font-family="'DM Sans'"
       font-size="24px"
       letter-spacing="0.02em"
       id="text1016"
       x="371.327"
       y="1962.6801"><tspan
         x="1290.96"
         y="153.68401"
         id="tspan1014"> KIT</tspan></text>
    <text
       fill="#5452f6"
       xml:space="preserve"
       style="white-space:pre"
       font-family="'DM Sans'"
       font-size="24px"
       font-weight="500"
       letter-spacing="0.02em"
       id="text1020"
       x="371.327"
       y="1962.6801"><tspan
         x="1175.27"
         y="153.68401"
         id="tspan1018">Flowchart</tspan></text>
    <path
       d="m 108,144.295 c 0,5.455 3.771,8.823 8.755,8.823 4.984,0 8.755,-3.368 8.755,-8.823 0,-5.455 -3.771,-8.822 -8.755,-8.822 -4.984,0 -8.755,3.367 -8.755,8.822 z m 4.243,0 c 0,-3.232 1.886,-5.118 4.512,-5.118 2.627,0 4.512,1.886 4.512,5.118 0,3.233 -1.885,5.119 -4.512,5.119 -2.626,0 -4.512,-1.886 -4.512,-5.119 z"
       fill="#101057"
       id="path1022" />
    <path
       d="m 152.571,135.944 v 16.702 h 4.243 v -8.62 c 0,-3.098 1.516,-4.917 4.109,-4.917 2.289,0 3.569,1.246 3.569,3.772 v 9.765 h 4.243 v -9.967 c 0,-4.142 -2.593,-7.004 -6.499,-7.004 -3.065,0 -4.479,1.347 -5.152,2.761 h -0.337 v -2.492 z"
       fill="#101057"
       id="path1024" />
    <path
       d="m 177.218,135.944 h -4.242 v 16.702 h 4.242 z"
       fill="#101057"
       id="path1026" />
    <path
       d="m 180.663,144.295 c 0,5.186 3.838,8.823 8.687,8.823 4.681,0 7.409,-2.728 8.352,-6.398 l -4.109,-0.977 c -0.37,2.155 -1.616,3.671 -4.175,3.671 -2.559,0 -4.512,-1.886 -4.512,-5.119 0,-3.232 1.953,-5.118 4.512,-5.118 2.559,0 3.805,1.616 4.041,3.637 l 4.108,-0.876 c -0.741,-3.738 -3.57,-6.465 -8.217,-6.465 -4.849,0 -8.687,3.636 -8.687,8.822 z"
       fill="#101057"
       id="path1028" />
    <path
       d="m 200.992,129.075 v 23.571 h 4.243 v -8.62 c 0,-3.098 1.515,-4.917 4.108,-4.917 2.29,0 3.569,1.246 3.569,3.772 v 9.765 h 4.243 v -9.967 c 0,-4.142 -2.593,-7.004 -6.499,-7.004 -3.064,0 -4.445,1.347 -5.085,2.626 h -0.336 v -9.226 z"
       fill="#101057"
       id="path1030" />
    <path
       d="m 221.194,140.187 3.906,1.313 c 0.303,-1.515 1.313,-2.66 3.435,-2.66 2.155,0 3.098,1.212 3.098,2.761 v 0.943 h -4.58 c -3.771,0 -6.465,1.785 -6.465,5.22 0,3.434 2.694,5.354 6.128,5.354 3.098,0 4.21,-1.684 4.513,-2.425 h 0.471 v 1.953 h 4.041 v -10.742 c 0,-4.175 -2.761,-6.431 -7.139,-6.431 -4.344,0 -6.6,2.189 -7.408,4.714 z m 3.637,7.476 c 0,-1.145 0.943,-1.953 2.525,-1.953 h 4.277 v 0.269 c 0,2.222 -1.684,3.704 -4.041,3.704 -1.818,0 -2.761,-0.842 -2.761,-2.02 z"
       fill="#101057"
       id="path1032" />
    <path
       d="m 244.167,135.944 h -4.175 v 16.702 h 4.242 v -9.698 c 0,-2.357 1.549,-3.502 3.704,-3.502 h 2.492 v -3.569 h -1.751 c -2.121,0 -3.535,0.64 -4.175,2.424 h -0.337 z"
       fill="#101057"
       id="path1034" />
    <path
       d="m 252.002,139.379 h 4.176 v 9.496 c 0,2.29 1.481,3.771 3.704,3.771 h 4.714 v -3.434 h -3.233 c -0.606,0 -0.943,-0.337 -0.943,-1.011 v -8.822 H 265 v -3.435 h -4.58 v -5.186 h -4.242 v 5.186 h -4.176 z"
       fill="#101057"
       id="path1036" />
    <path
       d="m 128.406,153.053 v -16.837 h 4.009 v 6.789 10.048 z"
       fill="#5452f6"
       id="path1038" />
    <path
       d="m 136.424,153.053 v -12.027 h 4.008 v 4.85 7.177 z"
       fill="#5452f6"
       id="path1040" />
    <path
       d="m 132.415,141.026 v -4.81 h 4.009 v 1.94 2.87 z"
       fill="#5452f6"
       id="path1042" />
    <path
       d="m 140.432,141.026 v -4.81 h 4.009 v 1.94 2.87 z"
       fill="#65bf73"
       id="path1044" />
    <path
       d="M 172.903,133.41 V 129 h 4.33 v 4.41 z"
       fill="#5452f6"
       id="path1046" />
    <path
       d="m 144.441,153.053 v -12.027 h 4.009 v 4.85 7.177 z"
       fill="#2097f6"
       id="path1048" />
    <g
       id="g10222"
       transform="translate(-3.6040068,2888.217)">
      <rect
         x="0.5"
         y="1877.5"
         width="1439"
         height="159"
         fill="#ecf0f7"
         stroke="#e8e8f2"
         id="rect654"
         style="display:inline" />
      <path
         fill-rule="evenodd"
         clip-rule="evenodd"
         d="m 164.924,1941.78 c 0,-1.53 1.244,-2.78 2.737,-2.78 1.555,0 2.798,1.25 2.798,2.78 0,1.53 -1.243,2.78 -2.798,2.78 -1.493,0 -2.737,-1.25 -2.737,-2.78 z m -41.387,20.29 h -4.726 v -15.54 h 4.508 v 1.79 c 0.778,-1.38 2.768,-2.26 4.447,-2.26 2.208,0 3.793,0.91 4.571,2.44 1.213,-1.75 2.705,-2.44 4.788,-2.44 2.923,0 5.722,1.72 5.722,5.94 v 10.07 h -4.571 v -9 c 0,-1.47 -0.777,-2.63 -2.456,-2.63 -1.68,0 -2.581,1.28 -2.581,2.66 v 8.97 h -4.665 v -9 c 0,-1.47 -0.777,-2.63 -2.487,-2.63 -1.648,0 -2.55,1.28 -2.55,2.69 z m 28.017,-8.91 v 8.91 h -4.727 v -15.54 h 4.571 v 1.79 c 0.84,-1.47 2.736,-2.19 4.322,-2.19 3.887,0 5.628,2.78 5.628,6.19 v 9.75 h -4.726 v -8.94 c 0,-1.53 -0.808,-2.69 -2.519,-2.69 -1.554,0 -2.549,1.16 -2.549,2.72 z m 13.775,8.91 h 4.726 v -15.54 h -4.726 z m 12.438,-7.75 c 0,-2.5 1.585,-3.88 3.544,-3.88 1.835,0 2.768,1.13 3.11,2.31 l 4.229,-1.28 c -0.684,-2.78 -3.172,-5.41 -7.432,-5.41 -4.54,0 -8.147,3.41 -8.147,8.26 0,4.81 3.701,8.22 8.303,8.22 4.135,0 6.685,-2.69 7.369,-5.41 l -4.167,-1.28 c -0.342,1.16 -1.368,2.31 -3.202,2.31 -1.959,0 -3.607,-1.37 -3.607,-3.84 z m 23.694,-7.79 v 4.69 c -0.529,-0.12 -1.026,-0.15 -1.493,-0.15 -1.896,0 -3.607,1.12 -3.607,4.22 v 6.78 h -4.726 v -15.54 h 4.571 v 2.1 c 0.808,-1.75 2.767,-2.25 4.011,-2.25 0.467,0 0.933,0.06 1.244,0.15 z m 12.469,5.91 h -6.188 c 0.094,-1.15 1.089,-2.62 3.079,-2.62 2.238,0 3.047,1.43 3.109,2.62 z m 0.342,4.03 3.949,1.13 c -0.746,2.69 -3.202,4.94 -7.12,4.94 -4.26,0 -8.054,-3.06 -8.054,-8.29 0,-5 3.7,-8.19 7.712,-8.19 4.788,0 7.742,2.97 7.742,7.98 0,0.65 -0.062,1.37 -0.093,1.47 h -10.759 c 0.093,1.75 1.679,3 3.514,3 1.71,0 2.674,-0.82 3.109,-2.04 z m 10.915,-3.37 c -2.55,0.37 -4.571,1.94 -4.571,4.69 0,2.47 1.959,4.72 5.348,4.72 2.052,0 3.545,-0.88 4.353,-2.19 0,1.06 0.125,1.63 0.156,1.75 h 4.26 c -0.031,-0.16 -0.187,-1.19 -0.187,-2.41 v -7.59 c 0,-3.19 -1.834,-6.01 -6.841,-6.01 -4.54,0 -6.592,2.94 -6.778,5.16 l 4.104,0.85 c 0.093,-1.16 0.995,-2.29 2.643,-2.29 1.493,0 2.27,0.79 2.27,1.69 0,0.53 -0.28,0.94 -1.119,1.07 z m 1.927,5.97 c 1.4,0 2.83,-0.69 2.83,-3.1 v -0.68 l -2.923,0.47 c -0.995,0.15 -1.741,0.62 -1.741,1.71 0,0.82 0.528,1.6 1.834,1.6 z m 17.071,-12.54 V 1942 h -4.229 v 2 c 0,1.44 -0.777,2.53 -2.394,2.53 h -0.777 v 4.16 h 2.736 v 6.66 c 0,3.09 1.959,5 5.162,5 1.492,0 2.27,-0.34 2.456,-0.44 v -3.94 c -0.279,0.07 -0.746,0.16 -1.243,0.16 -1.027,0 -1.711,-0.34 -1.711,-1.62 v -5.82 h 3.017 v -4.16 z m 10.946,15.54 h -4.726 v -15.54 h 4.726 z M 252.737,1939 c -1.493,0 -2.737,1.25 -2.737,2.78 0,1.53 1.244,2.78 2.737,2.78 1.554,0 2.798,-1.25 2.798,-2.78 0,-1.53 -1.244,-2.78 -2.798,-2.78 z m 21.735,7.53 -5.877,15.54 h -4.757 l -6.344,-15.54 h 5.131 l 3.576,9.66 3.296,-9.66 z m 12.966,7.76 c 0,2.62 -1.679,3.87 -3.482,3.87 -1.773,0 -3.483,-1.28 -3.483,-3.87 0,-2.63 1.71,-3.85 3.483,-3.85 1.803,0 3.482,1.22 3.482,3.85 z m -3.482,-8.23 c 4.633,0 8.209,3.41 8.209,8.23 0,4.81 -3.576,8.25 -8.209,8.25 -4.602,0 -8.209,-3.44 -8.209,-8.25 0,-4.82 3.607,-8.23 8.209,-8.23 z m 21.083,5.16 v -4.69 c -0.311,-0.09 -0.778,-0.15 -1.244,-0.15 -1.244,0 -3.203,0.5 -4.012,2.25 v -2.1 h -4.57 v 15.54 h 4.726 v -6.78 c 0,-3.1 1.71,-4.22 3.607,-4.22 0.466,0 0.964,0.03 1.493,0.15 z m 1.772,6.57 c 0,-2.75 2.021,-4.32 4.571,-4.69 l 3.638,-0.56 c 0.84,-0.13 1.12,-0.54 1.12,-1.07 0,-0.9 -0.778,-1.69 -2.27,-1.69 -1.648,0 -2.55,1.13 -2.643,2.29 l -4.105,-0.85 c 0.187,-2.22 2.239,-5.16 6.779,-5.16 5.006,0 6.841,2.82 6.841,6.01 v 7.59 c 0,1.22 0.155,2.25 0.186,2.41 h -4.26 c -0.031,-0.12 -0.155,-0.69 -0.155,-1.75 -0.809,1.31 -2.301,2.19 -4.354,2.19 -3.389,0 -5.348,-2.25 -5.348,-4.72 z m 9.328,-1.82 c 0,2.41 -1.43,3.1 -2.829,3.1 -1.306,0 -1.835,-0.78 -1.835,-1.6 0,-1.09 0.746,-1.56 1.741,-1.71 l 2.923,-0.47 z"
         fill="#5452f6"
         id="path656"
         style="display:inline" />
      <path
         fill-rule="evenodd"
         clip-rule="evenodd"
         d="m 80.0056,1954.57 c 0.1579,-5.83 3.8177,-12.66 7.9258,-15.1 1.5494,-0.92 3.5773,-0.45 4.5294,1.05 0.9521,1.49 0.4679,3.46 -1.0815,4.38 -0.851,0.5 -2.04,1.9 -3.004,3.7 -1.0789,2.02 -1.7346,4.23 -1.7862,6.13 -0.0514,1.9 0.4753,3.32 1.5684,4.27 1.4209,1.23 3.98,1.91 7.8944,1.75 3.9131,-0.16 6.5441,-1.14 8.0671,-2.65 1.219,-1.21 1.78,-2.86 1.673,-4.81 -0.105,-1.92 -0.86,-3.95 -2.029,-5.53 -1.039,-1.41 -2.221,-2.22 -3.102,-2.32 -1.8072,-0.19 -3.108,-1.77 -2.9054,-3.51 0.2027,-1.75 1.832,-3.01 3.6394,-2.81 5.778,0.62 10.609,7.18 10.973,13.83 0.199,3.64 -0.952,7.03 -3.525,9.59 -2.799,2.78 -7.025,4.34 -12.506,4.57 -5.4994,0.23 -9.7259,-0.9 -12.5805,-3.38 -2.6524,-2.3 -3.8495,-5.53 -3.7509,-9.16 z m 18.2429,18.39 c 0,2.19 -2.0304,3.96 -4.5349,3.96 -2.5046,0 -4.535,-1.77 -4.535,-3.96 0,-2.19 2.0304,-3.97 4.535,-3.97 2.5045,0 4.5349,1.78 4.5349,3.97 z"
         fill="#5452f6"
         id="path658"
         style="display:inline" />
      <text
         fill="#5c5bb3"
         xml:space="preserve"
         style="white-space:pre;display:inline"
         font-family="'DM Sans'"
         font-size="24px"
         letter-spacing="0.02em"
         id="text662"
         x="371.327"
         y="1962.6801"><tspan
           x="371.327"
           y="1962.6801"
           id="tspan660">User Hapiness Studio</tspan></text>
    </g>
    <path
       style="fill:none;stroke:#000000;stroke-width:1"
       d="M 1,2 V 2"
       id="path139" />
  </g>
</svg>
