<?xml version="1.0" encoding="UTF-8" standalone="no"?>
<svg
   width="211.54785"
   height="39"
   viewBox="0 0 211.54785 39"
   fill="none"
   version="1.1"
   id="svg1157"
   xmlns="http://www.w3.org/2000/svg"
   xmlns:svg="http://www.w3.org/2000/svg">
  <defs
     id="defs1155" />
  <g
     id="New_Layer_1653413531.7343462"
     style="display:inline"
     transform="translate(-614.45215,-3642)">
    <g
       id="g309">
      <line
         y1="-1"
         x2="201"
         y2="-1"
         transform="matrix(-1,0,0,1,816,3662.5)"
         stroke="#65bf73"
         stroke-width="2"
         id="line5540"
         x1="0" />
      <circle
         r="5.5"
         transform="matrix(-1,0,0,1,820.5,3662)"
         fill="#65bf73"
         id="circle5542"
         cx="0"
         cy="0" />
      <path
         d="m 614.753,3661.03 7.548,-7.37 c 0.633,-0.62 1.699,-0.17 1.699,0.71 v 14.35 c 0,0.87 -1.038,1.32 -1.678,0.73 l -7.548,-6.97 c -0.421,-0.38 -0.43,-1.05 -0.021,-1.45 z"
         fill="#65bf73"
         id="path5544" />
      <rect
         x="670.5"
         y="3642.5"
         width="99"
         height="38"
         rx="7.5"
         fill="#e5fde8"
         id="rect5546" />
      <text
         fill="#65bf73"
         xml:space="preserve"
         style="white-space:pre"
         font-family="Roboto"
         font-size="16px"
         letter-spacing="0em"
         id="text5550"
         x="707.328"
         y="3666.97"><tspan
           x="707.328"
           y="3666.97"
           id="tspan5548">Tag</tspan></text>
      <rect
         x="670.5"
         y="3642.5"
         width="99"
         height="38"
         rx="7.5"
         stroke="#65bf73"
         id="rect5552" />
    </g>
  </g>
</svg>
