<?xml version="1.0" encoding="UTF-8" standalone="no"?>
<svg
   width="211.54785"
   height="39"
   viewBox="0 0 211.54785 39"
   fill="none"
   version="1.1"
   id="svg1157"
   xmlns="http://www.w3.org/2000/svg"
   xmlns:svg="http://www.w3.org/2000/svg">
  <defs
     id="defs1155" />
  <g
     id="New_Layer_1653413531.7351668"
     style="display:inline"
     transform="translate(-615.45215,-3432)">
    <g
       id="g5578">
      <line
         y1="-1"
         x2="201"
         y2="-1"
         transform="matrix(-1,0,0,1,817,3452.5)"
         stroke="#de1306"
         stroke-width="2"
         id="line5572"
         x1="0" />
      <circle
         r="5.5"
         transform="matrix(-1,0,0,1,821.5,3452)"
         fill="#de1306"
         id="circle5574"
         cx="0"
         cy="0" />
      <path
         d="m 615.753,3451.03 7.548,-7.37 c 0.633,-0.62 1.699,-0.17 1.699,0.71 v 14.35 c 0,0.87 -1.038,1.32 -1.678,0.73 l -7.548,-6.97 c -0.421,-0.38 -0.43,-1.05 -0.021,-1.45 z"
         fill="#de1306"
         id="path5576" />
      <rect
         x="671.5"
         y="3432.5"
         width="99"
         height="38"
         rx="7.5"
         fill="#feebea"
         id="rect5578" />
      <text
         fill="#de1306"
         xml:space="preserve"
         style="white-space:pre"
         font-family="Roboto"
         font-size="16px"
         letter-spacing="0em"
         id="text5582"
         x="708.328"
         y="3456.97"><tspan
           x="708.328"
           y="3456.97"
           id="tspan5580">Tag</tspan></text>
      <rect
         x="671.5"
         y="3432.5"
         width="99"
         height="38"
         rx="7.5"
         stroke="#de1306"
         id="rect5584" />
    </g>
  </g>
</svg>
