<?xml version="1.0" encoding="UTF-8" standalone="no"?>
<svg
   width="211.54785"
   height="39"
   viewBox="0 0 211.54785 39"
   fill="none"
   version="1.1"
   id="svg1157"
   xmlns="http://www.w3.org/2000/svg"
   xmlns:svg="http://www.w3.org/2000/svg">
  <defs
     id="defs1155" />
  <g
     id="New_Layer_1653413531.7360046"
     style="display:inline"
     transform="translate(-615.45215,-3572)">
    <g
       id="g4154">
      <line
         y1="-1"
         x2="201"
         y2="-1"
         transform="matrix(-1,0,0,1,817,3592.5)"
         stroke="#5452f6"
         stroke-width="2"
         id="line5604"
         x1="0" />
      <circle
         r="5.5"
         transform="matrix(-1,0,0,1,821.5,3592)"
         fill="#5452f6"
         id="circle5606"
         cx="0"
         cy="0" />
      <path
         d="m 615.753,3591.03 7.548,-7.37 c 0.633,-0.62 1.699,-0.17 1.699,0.71 v 14.35 c 0,0.87 -1.038,1.32 -1.678,0.73 l -7.548,-6.97 c -0.421,-0.38 -0.43,-1.05 -0.021,-1.45 z"
         fill="#5452f6"
         id="path5608" />
      <rect
         x="671.5"
         y="3572.5"
         width="99"
         height="38"
         rx="7.5"
         fill="#eeeeff"
         id="rect5610" />
      <text
         fill="#5452f6"
         xml:space="preserve"
         style="white-space:pre"
         font-family="Roboto"
         font-size="16px"
         letter-spacing="0em"
         id="text5614"
         x="708.328"
         y="3596.97"><tspan
           x="708.328"
           y="3596.97"
           id="tspan5612">Tag</tspan></text>
      <rect
         x="671.5"
         y="3572.5"
         width="99"
         height="38"
         rx="7.5"
         stroke="#5452f6"
         id="rect5616" />
    </g>
  </g>
</svg>
