<?xml version="1.0" encoding="UTF-8" standalone="no"?>
<svg
   width="100"
   height="152"
   viewBox="0 0 100 152"
   fill="none"
   version="1.1"
   id="svg1157"
   xmlns="http://www.w3.org/2000/svg"
   xmlns:svg="http://www.w3.org/2000/svg">
  <defs
     id="defs1155">
    <clipPath
       id="clip3_0_1">
      <rect
         width="20"
         height="152"
         fill="#ffffff"
         transform="translate(1175.5,4582)"
         id="rect1059"
         x="0"
         y="0" />
    </clipPath>
    <clipPath
       id="clip4_0_1">
      <rect
         width="100"
         height="39"
         fill="#ffffff"
         transform="translate(1136,4638.5)"
         id="rect1062"
         x="0"
         y="0" />
    </clipPath>
  </defs>
  <g
     id="New_Layer_1653413531.739356"
     style="display:inline"
     transform="translate(-1136,-4582)">
    <g
       id="g3848">
      <g
         clip-path="url(#clip3_0_1)"
         id="g5744">
        <line
           y1="-1"
           x2="141"
           y2="-1"
           transform="matrix(-4.37114e-8,1,1,4.37114e-8,1187,4592)"
           stroke="#65bf73"
           stroke-width="2"
           id="line5738"
           x1="0" />
        <circle
           r="5.5"
           transform="matrix(-4.37114e-8,1,1,4.37114e-8,1186.5,4587.5)"
           fill="#65bf73"
           id="circle5740"
           cx="0"
           cy="0" />
        <circle
           r="5.5"
           transform="matrix(-4.37114e-8,1,1,4.37114e-8,1186.5,4728.5)"
           fill="#65bf73"
           id="circle5742"
           cx="0"
           cy="0" />
      </g>
      <g
         clip-path="url(#clip4_0_1)"
         id="g5754">
        <rect
           x="1136.5"
           y="4639"
           width="99"
           height="38"
           rx="7.5"
           fill="#e5fde8"
           id="rect5746" />
        <text
           fill="#65bf73"
           xml:space="preserve"
           style="white-space:pre"
           font-family="Roboto"
           font-size="16px"
           letter-spacing="0em"
           id="text5750"
           x="1173.33"
           y="4663.4702"><tspan
             x="1173.33"
             y="4663.4702"
             id="tspan5748">Tag</tspan></text>
        <rect
           x="1136.5"
           y="4639"
           width="99"
           height="38"
           rx="7.5"
           stroke="#65bf73"
           id="rect5752" />
      </g>
    </g>
  </g>
</svg>
