<?xml version="1.0" encoding="UTF-8" standalone="no"?>
<svg
   width="100"
   height="152"
   viewBox="0 0 100 152"
   fill="none"
   version="1.1"
   id="svg1157"
   xmlns="http://www.w3.org/2000/svg"
   xmlns:svg="http://www.w3.org/2000/svg">
  <defs
     id="defs1155">
    <clipPath
       id="clip8_0_1">
      <rect
         width="20"
         height="152"
         fill="#ffffff"
         transform="translate(1175.5,3976)"
         id="rect1074"
         x="0"
         y="0" />
    </clipPath>
    <clipPath
       id="clip9_0_1">
      <rect
         width="100"
         height="39"
         fill="#ffffff"
         transform="translate(1136,4032.5)"
         id="rect1077"
         x="0"
         y="0" />
    </clipPath>
  </defs>
  <g
     id="New_Layer_1653413531.7405987"
     style="display:inline"
     transform="translate(-1136,-3976)">
    <g
       id="g9021">
      <g
         clip-path="url(#clip8_0_1)"
         id="g5802">
        <line
           y1="-1"
           x2="141"
           y2="-1"
           transform="matrix(-4.37114e-8,1,1,4.37114e-8,1187,3986)"
           stroke="#de1306"
           stroke-width="2"
           id="line5796"
           x1="0" />
        <circle
           r="5.5"
           transform="matrix(-4.37114e-8,1,1,4.37114e-8,1186.5,3981.5)"
           fill="#de1306"
           id="circle5798"
           cx="0"
           cy="0" />
        <circle
           r="5.5"
           transform="matrix(-4.37114e-8,1,1,4.37114e-8,1186.5,4122.5)"
           fill="#de1306"
           id="circle5800"
           cx="0"
           cy="0" />
      </g>
      <g
         clip-path="url(#clip9_0_1)"
         id="g5812">
        <rect
           x="1136.5"
           y="4033"
           width="99"
           height="38"
           rx="7.5"
           fill="#feebea"
           id="rect5804" />
        <text
           fill="#de1306"
           xml:space="preserve"
           style="white-space:pre"
           font-family="Roboto"
           font-size="16px"
           letter-spacing="0em"
           id="text5808"
           x="1173.33"
           y="4057.47"><tspan
             x="1173.33"
             y="4057.47"
             id="tspan5806">Tag</tspan></text>
        <rect
           x="1136.5"
           y="4033"
           width="99"
           height="38"
           rx="7.5"
           stroke="#de1306"
           id="rect5810" />
      </g>
    </g>
  </g>
</svg>
