<?xml version="1.0" encoding="UTF-8" standalone="no"?>
<svg
   width="100"
   height="152"
   viewBox="0 0 100 152"
   fill="none"
   version="1.1"
   id="svg1157"
   xmlns="http://www.w3.org/2000/svg"
   xmlns:svg="http://www.w3.org/2000/svg">
  <defs
     id="defs1155">
    <clipPath
       id="clip13_0_1">
      <rect
         width="20"
         height="152"
         fill="#ffffff"
         transform="translate(1175.5,3774)"
         id="rect1089"
         x="0"
         y="0" />
    </clipPath>
    <clipPath
       id="clip14_0_1">
      <rect
         width="100"
         height="39"
         fill="#ffffff"
         transform="translate(1136,3830.5)"
         id="rect1092"
         x="0"
         y="0" />
    </clipPath>
  </defs>
  <g
     id="New_Layer_1653413531.7418492"
     style="display:inline"
     transform="translate(-1136,-3774)">
    <g
       id="g3425">
      <g
         clip-path="url(#clip13_0_1)"
         id="g5860">
        <line
           y1="-1"
           x2="141"
           y2="-1"
           transform="matrix(-4.37114e-8,1,1,4.37114e-8,1187,3784)"
           stroke="#ff5a43"
           stroke-width="2"
           id="line5854"
           x1="0" />
        <circle
           r="5.5"
           transform="matrix(-4.37114e-8,1,1,4.37114e-8,1186.5,3779.5)"
           fill="#ff5a43"
           id="circle5856"
           cx="0"
           cy="0" />
        <circle
           r="5.5"
           transform="matrix(-4.37114e-8,1,1,4.37114e-8,1186.5,3920.5)"
           fill="#ff5a43"
           id="circle5858"
           cx="0"
           cy="0" />
      </g>
      <g
         clip-path="url(#clip14_0_1)"
         id="g5870">
        <rect
           x="1136.5"
           y="3831"
           width="99"
           height="38"
           rx="7.5"
           fill="#ffecea"
           id="rect5862" />
        <text
           fill="#ff5a43"
           xml:space="preserve"
           style="white-space:pre"
           font-family="Roboto"
           font-size="16px"
           letter-spacing="0em"
           id="text5866"
           x="1173.33"
           y="3855.47"><tspan
             x="1173.33"
             y="3855.47"
             id="tspan5864">Tag</tspan></text>
        <rect
           x="1136.5"
           y="3831"
           width="99"
           height="38"
           rx="7.5"
           stroke="#ff5a43"
           id="rect5868" />
      </g>
    </g>
  </g>
</svg>
