<?xml version="1.0" encoding="UTF-8" standalone="no"?>
<svg
   width="100"
   height="152"
   viewBox="0 0 100 152"
   fill="none"
   version="1.1"
   id="svg1157"
   xmlns="http://www.w3.org/2000/svg"
   xmlns:svg="http://www.w3.org/2000/svg">
  <defs
     id="defs1155">
    <clipPath
       id="clip18_0_1">
      <rect
         width="20"
         height="152"
         fill="#ffffff"
         transform="translate(1175.5,4178)"
         id="rect1104"
         x="0"
         y="0" />
    </clipPath>
    <clipPath
       id="clip19_0_1">
      <rect
         width="100"
         height="39"
         fill="#ffffff"
         transform="translate(1136,4234.5)"
         id="rect1107"
         x="0"
         y="0" />
    </clipPath>
  </defs>
  <g
     id="New_Layer_1653413531.743098"
     style="display:inline"
     transform="translate(-1136,-4178)">
    <g
       id="g2964">
      <g
         clip-path="url(#clip18_0_1)"
         id="g5918">
        <line
           y1="-1"
           x2="141"
           y2="-1"
           transform="matrix(-4.37114e-8,1,1,4.37114e-8,1187,4188)"
           stroke="#2097f7"
           stroke-width="2"
           id="line5912"
           x1="0" />
        <circle
           r="5.5"
           transform="matrix(-4.37114e-8,1,1,4.37114e-8,1186.5,4183.5)"
           fill="#2097f6"
           id="circle5914"
           cx="0"
           cy="0" />
        <circle
           r="5.5"
           transform="matrix(-4.37114e-8,1,1,4.37114e-8,1186.5,4324.5)"
           fill="#2097f6"
           id="circle5916"
           cx="0"
           cy="0" />
      </g>
      <g
         clip-path="url(#clip19_0_1)"
         id="g5928">
        <rect
           x="1136.5"
           y="4235"
           width="99"
           height="38"
           rx="7.5"
           fill="#e7f4ff"
           id="rect5920" />
        <text
           fill="#2097f6"
           xml:space="preserve"
           style="white-space:pre"
           font-family="Roboto"
           font-size="16px"
           letter-spacing="0em"
           id="text5924"
           x="1173.33"
           y="4259.4702"><tspan
             x="1173.33"
             y="4259.4702"
             id="tspan5922">Tag</tspan></text>
        <rect
           x="1136.5"
           y="4235"
           width="99"
           height="38"
           rx="7.5"
           stroke="#2097f6"
           id="rect5926" />
      </g>
    </g>
  </g>
</svg>
