<?xml version="1.0" encoding="UTF-8" standalone="no"?>
<svg
   width="100"
   height="152"
   viewBox="0 0 100 152"
   fill="none"
   version="1.1"
   id="svg1157"
   xmlns="http://www.w3.org/2000/svg"
   xmlns:svg="http://www.w3.org/2000/svg">
  <defs
     id="defs1155">
    <clipPath
       id="clip23_0_1">
      <rect
         width="20"
         height="152"
         fill="#ffffff"
         transform="translate(1175.5,4380)"
         id="rect1119"
         x="0"
         y="0" />
    </clipPath>
    <clipPath
       id="clip24_0_1">
      <rect
         width="100"
         height="39"
         fill="#ffffff"
         transform="translate(1136,4436.5)"
         id="rect1122"
         x="0"
         y="0" />
    </clipPath>
  </defs>
  <g
     id="New_Layer_1653413531.744361"
     style="display:inline"
     transform="translate(-1136,-4380)">
    <g
       id="g5743">
      <g
         clip-path="url(#clip23_0_1)"
         id="g5976">
        <line
           y1="-1"
           x2="141"
           y2="-1"
           transform="matrix(-4.37114e-8,1,1,4.37114e-8,1187,4390)"
           stroke="#5452f6"
           stroke-width="2"
           id="line5970"
           x1="0" />
        <circle
           r="5.5"
           transform="matrix(-4.37114e-8,1,1,4.37114e-8,1186.5,4385.5)"
           fill="#5452f6"
           id="circle5972"
           cx="0"
           cy="0" />
        <circle
           r="5.5"
           transform="matrix(-4.37114e-8,1,1,4.37114e-8,1186.5,4526.5)"
           fill="#5452f6"
           id="circle5974"
           cx="0"
           cy="0" />
      </g>
      <g
         clip-path="url(#clip24_0_1)"
         id="g5986">
        <rect
           x="1136.5"
           y="4437"
           width="99"
           height="38"
           rx="7.5"
           fill="#eeeeff"
           id="rect5978" />
        <text
           fill="#5452f6"
           xml:space="preserve"
           style="white-space:pre"
           font-family="Roboto"
           font-size="16px"
           letter-spacing="0em"
           id="text5982"
           x="1173.33"
           y="4461.4702"><tspan
             x="1173.33"
             y="4461.4702"
             id="tspan5980">Tag</tspan></text>
        <rect
           x="1136.5"
           y="4437"
           width="99"
           height="38"
           rx="7.5"
           stroke="#5452f6"
           id="rect5984" />
      </g>
    </g>
  </g>
</svg>
